SplineFontDB: 3.0
FontName: Intuitive
FullName: Intuitive
FamilyName: Intuitive
Weight: Demi
Copyright: Copyright (c) 2011 by Bruno de Souza Lea~o. All rights reserved.
Version: 1.001 2011
ItalicAngle: 0
UnderlinePosition: -50
UnderlineWidth: 50
Ascent: 750
Descent: 250
InvalidEm: 0
sfntRevision: 0x00010042
woffMajor: 1
woffMinor: 1
LayerCount: 2
Layer: 0 1 "Back" 1
Layer: 1 1 "Fore" 0
XUID: [1021 591 -286901576 2306844]
FSType: 0
OS2Version: 3
OS2_WeightWidthSlopeOnly: 0
OS2_UseTypoMetrics: 1
CreationTime: 1306035018
ModificationTime: 1308248749
PfmFamily: 17
TTFWeight: 600
TTFWidth: 5
LineGap: 0
VLineGap: 0
Panose: 2 0 0 0 0 0 0 0 0 0
OS2TypoAscent: 750
OS2TypoAOffset: 0
OS2TypoDescent: -250
OS2TypoDOffset: 0
OS2TypoLinegap: 0
OS2WinAscent: 915
OS2WinAOffset: 0
OS2WinDescent: 303
OS2WinDOffset: 0
HheadAscent: 750
HheadAOffset: 0
HheadDescent: -250
HheadDOffset: 0
OS2SubXSize: 700
OS2SubYSize: 650
OS2SubXOff: 0
OS2SubYOff: 140
OS2SupXSize: 700
OS2SupYSize: 650
OS2SupXOff: 0
OS2SupYOff: 477
OS2StrikeYSize: 50
OS2StrikeYPos: 250
OS2CapHeight: 0
OS2XHeight: 0
OS2Vendor: '    '
OS2CodePages: 20000111.00000000
OS2UnicodeRanges: 8000002f.0000004a.00000000.00000000
Lookup: 258 0 0 "'kern' Horizontal Kerning in Latin lookup 0" { "'kern' Horizontal Kerning in Latin lookup 0 subtable"  } ['kern' ('latn' <'dflt' > ) ]
DEI: 91125
TtTable: prep
PUSHW_1
 10
CALL
PUSHW_1
 0
CALL
EndTTInstrs
TtTable: fpgm
PUSHW_1
 0
FDEF
MPPEM
PUSHW_1
 9
LT
IF
PUSHB_2
 1
 1
INSTCTRL
EIF
PUSHW_1
 511
SCANCTRL
PUSHW_1
 68
SCVTCI
PUSHW_2
 9
 3
SDS
SDB
ENDF
PUSHW_1
 1
FDEF
DUP
DUP
RCVT
ROUND[Black]
WCVTP
PUSHB_1
 1
ADD
ENDF
PUSHW_1
 2
FDEF
PUSHW_1
 1
LOOPCALL
POP
ENDF
PUSHW_1
 3
FDEF
DUP
GC[cur]
PUSHB_1
 3
CINDEX
GC[cur]
GT
IF
SWAP
EIF
DUP
ROLL
DUP
ROLL
MD[grid]
ABS
ROLL
DUP
GC[cur]
DUP
ROUND[Grey]
SUB
ABS
PUSHB_1
 4
CINDEX
GC[cur]
DUP
ROUND[Grey]
SUB
ABS
GT
IF
SWAP
NEG
ROLL
EIF
MDAP[rnd]
DUP
PUSHB_1
 0
GTEQ
IF
ROUND[Black]
DUP
PUSHB_1
 0
EQ
IF
POP
PUSHB_1
 64
EIF
ELSE
ROUND[Black]
DUP
PUSHB_1
 0
EQ

StartChar: exclam
Encoding: 33 33 4
Width: 227
GlyphClass: 2
Flags: W
LayerCount: 2
Back
Fore
SplineSet
102 -22 m 0,0,1
 70 -24 70 -24 57.5 -10.5 c 128,-1,2
 45 3 45 3 45 22 c 0,3,4
 45 29 45 29 46.5 38 c 128,-1,5
 48 47 48 47 55.5 56 c 128,-1,6
 63 65 63 65 78 71 c 128,-1,7
 93 77 93 77 120 78 c 1,8,9
 140 74 140 74 152.5 63 c 128,-1,10
 165 52 165 52 165 35 c 0,11,12
 165 27 165 27 163.5 18 c 128,-1,13
 162 9 162 9 156 1 c 128,-1,14
 150 -7 150 -7 137 -13.5 c 128,-1,15
 124 -20 124 -20 102 -22 c 0,0,1
55 594 m 0,16,17
 58 609 58 609 68 618.5 c 128,-1,18
 78 628 78 628 91 630.5 c 128,-1,19
 104 633 104 633 116 629 c 128,-1,20
 128 625 128 625 136 614 c 1,21,22
 147 612 147 612 156.5 604 c 128,-1,23
 166 596 166 596 171 581 c 1,24,25
 168 496 168 496 169 413 c 128,-1,26
 170 330 170 330 163 245 c 0,27,28
 161 227 161 227 161 210.5 c 128,-1,29
 161 194 161 194 159 178.5 c 128,-1,30
 157 163 157 163 150.5 149 c 128,-1,31
 144 135 144 135 129 122 c 0,32,33
 124 118 124 118 110.5 118 c 128,-1,34
 97 118 97 118 91 114 c 1,35,36
 70 123 70 123 62 139.5 c 128,-1,37
 54 156 54 156 52 175.5 c 128,-1,38
 50 195 50 195 52.5 216 c 128,-1,39
 55 237 55 237 55 256 c 0,40,41
 58 341 58 341 58.5 425 c 128,-1,42
 59 509 59 509 55 594 c 0,16,17
EndSplineSet
EndChar

StartChar: quotedbl
Encoding: 34 34 5
Width: 251
GlyphClass: 2
Flags: W
LayerCount: 2
Back
Fore
SplineSet
38 500 m 0,0,1
 36 512 36 512 33 532.5 c 128,-1,2
 30 553 30 553 28.5 574 c 128,-1,3
 27 595 27 595 28.5 614.5 c 128,-1,4
 30 634 30 634 37 644.5 c 128,-1,5
 44 655 44 655 58.5 654.5 c 128,-1,6
 73 654 73 654 98 635 c 1,7,-1
 109 603 l 1,8,9
 107 573 107 573 107 531 c 128,-1,10
 107 489 107 489 99 451 c 1,11,12
 104 430 104 430 102 410.5 c 128,-1,13
 100 391 100 391 80 379 c 0,14,15
 71 374 71 374 62 376 c 128,-1,16
 53 378 53 378 44 383 c 0,17,18
 34 394 34 394 37 409 c 0,19,20
 45 432 45 432 43.5 453 c 128,-1,21
 42 474 42 474 38 500 c 0,0,1
149 500 m 0,22,23
 147 512 147 512 144 532.5 c 128,-1,24
 141 553 141 553 139.5 574 c 128,-1,25
 138 595 138 595 139.5 614.5 c 128,-1,26
 141 634 141 634 148 644.5 c 128,-1,27
 155 655 155 655 169.5 654.5 c 128,-1,28
 184 654 184 654 209 635 c 1,29,-1
 220 603 l 1,30,31
 218 573 218 573 218 531 c 128,-1,32
 218 489 218 489 210 451 c 1,33,34
 215 430 215 430 213 410.5 c 128,-1,35
 211 391 211 391 191 379 c 0,36,37
 182 374 182 374 173 376 c 128,-1,38
 164 378 164 378 155 383 c 0,39,40
 145 394 145 394 148 409 c 0,41,42
 156 432 156 432 154.5 453 c 128,-1,43
 153 474 153 474 149 500 c 0,22,23
EndSplineSet
EndChar

StartChar: numbersign
Encoding: 35 35 6
Width: 641
GlyphClass: 2
Flags: W
LayerCount: 2
Back
Fore
SplineSet
46 157 m 1,0,1
 25 159 25 159 15.5 171.5 c 128,-1,2
 6 184 6 184 6.5 198 c 128,-1,3
 7 212 7 212 18 223.5 c 128,-1,4
 29 235 29 235 50 236 c 2,5,-1
 99 234 l 2,6,7
 74 237 74 237 74.5 235.5 c 128,-1,8
 75 234 75 234 87 232 c 128,-1,9
 99 230 99 230 116.5 228.5 c 128,-1,10
 134 227 134 227 143 229 c 1,11,12
 147 249 147 249 150 269 c 128,-1,13
 153 289 153 289 159 309 c 0,14,15
 167 339 167 339 176.5 368.5 c 128,-1,16
 186 398 186 398 195 428 c 1,17,18
 193 427 193 427 192 427 c 128,-1,19
 191 427 191 427 189 426 c 2,20,-1
 190 426 l 2,21,22
 194 425 194 425 186.5 424 c 128,-1,23
 179 423 179 423 175 421 c 0,24,25
 169 419 169 419 162.5 417 c 128,-1,26
 156 415 156 415 149 413 c 2,27,-1
 68 411 l 2,28,29
 47 413 47 413 37.5 425.5 c 128,-1,30
 28 438 28 438 28.5 452 c 128,-1,31
 29 466 29 466 40 477.5 c 128,-1,32
 51 489 51 489 72 490 c 0,33,34
 76 490 76 490 82.5 491.5 c 128,-1,35
 89 493 89 493 88 489 c 1,36,-1
 212 486 l 1,37,38
 220 520 220 520 225.5 554 c 128,-1,39
 231 588 231 588 230 624 c 1,40,41
 234 645 234 645 247 654 c 128,-1,42
 260 663 260 663 274 661.5 c 128,-1,43
 288 660 288 660 299 648 c 128,-1,44
 310 636 310 636 309 615 c 1,45,-1
 275 489 l 1,46,47
 301 490 301 490 327 491 c 128,-1,48
 353 492 353 492 379 492 c 1,49,50
 387 518 387 518 394 547 c 128,-1,51
 401 576 401 576 404 622 c 0,52,53
 408 643 408 643 421 652 c 128,-1,54
 434 661 434 661 448 659.5 c 128,-1,55
 462 658 462 658 473 646 c 128,-1,56
 484 634 484 634 483 613 c 0,57,58
 478 583 478 583 467.5 550.5 c 128,-1,59
 457 518 457 518 442 491 c 1,60,-1
 454 491 l 1,61,-1
 566 500 l 2,62,63
 579 501 579 501 589.5 495.5 c 128,-1,64
 600 490 600 490 605.5 480 c 128,-1,65
 611 470 611 470 610 457 c 128,-1,66
 609 444 609 444 598 431 c 1,67,68
 576 420 576 420 553 420.5 c 128,-1,69
 530 421 530 421 507.5 426 c 128,-1,70
 485 431 485 431 462.5 436.5 c 128,-1,71
 440 442 440 442 419 440 c 1,72,73
 417 410 417 410 415.5 386.5 c 128,-1,74
 414 363 414 363 411.5 340.5 c 128,-1,75
 409 318 409 318 406 294.5 c 128,-1,76
 403 271 403 271 397 241 c 1,77,-1
 564 240 l 2,78,79
 586 240 586 240 601 219 c 1,80,-1
 602 218 l 1,81,82
 608 195 608 195 599 180 c 128,-1,83
 590 165 590 165 567 160 c 0,84,85
 559 162 559 162 552.5 163 c 128,-1,86
 546 164 546 164 538 168 c 2,87,-1
 383 187 l 1,88,89
 369 146 369 146 367.5 110 c 128,-1,90
 366 74 366 74 363 30 c 1,91,92
 357 13 357 13 344.5 5.5 c 128,-1,93
 332 -2 332 -2 319.5 -0.5 c 128,-1,94
 307 1 307 1 296.5 11 c 128,-1,95
 286 21 286 21 284 39 c 1,96,97
 289 60 289 60 292 77.5 c 128,-1,98
 295 95 295 95 298.5 110.5 c 128,-1,99
 302 126 302 126 307.5 142 c 128,-1,100
 313 158 313 158 323 177 c 1,101,-1
 186 177 l 1,102,103
 183 165 183 165 181.5 151.5 c 128,-1,104
 180 138 180 138 177.5 120.5 c 128,-1,105
 175 103 175 103 172.5 79.5 c 128,-1,106
 170 56 170 56 166 25 c 0,107,108
 160 8 160 8 147.5 0.5 c 128,-1,109
 135 -7 135 -7 122.5 -5.5 c 128,-1,110
 110 -4 110 -4 99.5 6 c 128,-1,111
 89 16 89 16 87 34 c 1,112,113
 92 71 92 71 99.5 103 c 128,-1,114
 107 135 107 135 122 167 c 1,115,-1
 46 157 l 1,0,1
193 229 m 1,116,117
 222 228 222 228 250 228.5 c 128,-1,118
 278 229 278 229 306 231 c 0,119,120
 324 231 324 231 344 234 c 0,121,122
 346 237 346 237 350.5 290 c 128,-1,123
 355 343 355 343 367 445 c 1,124,-1
 255 440 l 1,125,-1
 193 229 l 1,116,117
440 491 m 2,126,127
 441 493 441 493 441 494.5 c 128,-1,128
 441 496 441 496 442 498 c 1,129,130
 441 496 441 496 440 494.5 c 128,-1,131
 439 493 439 493 439 491 c 2,132,-1
 440 491 l 2,126,127
EndSplineSet
EndChar

StartChar: dollar
Encoding: 36 36 7
Width: 467
GlyphClass: 2
Flags: W
LayerCount: 2
Back
Fore
SplineSet
353 361 m 1,0,1
 405 320 405 320 424.5 272.5 c 128,-1,2
 444 225 444 225 439.5 178.5 c 128,-1,3
 435 132 435 132 410.5 90 c 128,-1,4
 386 48 386 48 350 20 c 0,5,6
 340 11 340 11 326.5 8.5 c 128,-1,7
 313 6 313 6 300 2 c 0,8,9
 293 0 293 0 287 -1 c 128,-1,10
 281 -2 281 -2 274 -4 c 1,11,12
 267 -38 267 -38 257 -56.5 c 128,-1,13
 247 -75 247 -75 236.5 -75.5 c 128,-1,14
 226 -76 226 -76 217 -58 c 128,-1,15
 208 -40 208 -40 202 -1 c 1,16,17
 175 5 175 5 149.5 17 c 128,-1,18
 124 29 124 29 102.5 46.5 c 128,-1,19
 81 64 81 64 65 86 c 128,-1,20
 49 108 49 108 42 133 c 1,21,22
 34 144 34 144 34 156 c 0,23,24
 23 194 23 194 21.5 232 c 128,-1,25
 20 270 20 270 33 295 c 1,26,27
 50 315 50 315 70 313 c 1,28,29
 90 320 90 320 104.5 310.5 c 128,-1,30
 119 301 119 301 123 285 c 0,31,32
 124 283 124 283 125 280.5 c 128,-1,33
 126 278 126 278 127 275 c 0,34,35
 127 252 127 252 129.5 230 c 128,-1,36
 132 208 132 208 134 185 c 1,37,38
 142 156 142 156 158 137 c 128,-1,39
 174 118 174 118 197 112 c 1,40,-1
 197 119 l 2,41,42
 198 128 198 128 198.5 151 c 128,-1,43
 199 174 199 174 200 207 c 128,-1,44
 201 240 201 240 201.5 282 c 128,-1,45
 202 324 202 324 202 370 c 1,46,47
 184 383 184 383 164.5 398.5 c 128,-1,48
 145 414 145 414 122 436 c 1,49,-1
 80 467 l 1,50,51
 63 485 63 485 54 499 c 128,-1,52
 45 513 45 513 41 524 c 128,-1,53
 37 535 37 535 36 543.5 c 128,-1,54
 35 552 35 552 35 560 c 0,55,56
 35 584 35 584 42 608 c 128,-1,57
 49 632 49 632 67.5 652.5 c 128,-1,58
 86 673 86 673 118.5 687 c 128,-1,59
 151 701 151 701 202 706 c 1,60,61
 203 737 203 737 213.5 752 c 128,-1,62
 224 767 224 767 237 766 c 128,-1,63
 250 765 250 765 261 750 c 128,-1,64
 272 735 272 735 275 707 c 1,65,66
 291 706 291 706 308.5 704 c 128,-1,67
 326 702 326 702 342 697.5 c 128,-1,68
 358 693 358 693 371.5 686 c 128,-1,69
 385 679 385 679 393 668 c 0,70,71
 397 663 397 663 402.5 653 c 128,-1,72
 408 643 408 643 412 632 c 128,-1,73
 416 621 416 621 418 611 c 128,-1,74
 420 601 420 601 417 595 c 0,75,76
 406 573 406 573 392 568.5 c 128,-1,77
 378 564 378 564 363.5 568 c 128,-1,78
 349 572 349 572 337 580 c 128,-1,79
 325 588 325 588 318 591 c 0,80,81
 310 595 310 595 301 598.5 c 128,-1,82
 292 602 292 602 283 605 c 1,83,84
 285 563 285 563 282.5 521.5 c 128,-1,85
 280 480 280 480 277 435 c 1,86,87
 299 417 299 417 317.5 399 c 128,-1,88
 336 381 336 381 353 361 c 1,0,1
169 514 m 0,89,90
 177 508 177 508 184.5 502.5 c 128,-1,91
 192 497 192 497 200 492 c 1,92,93
 199 520 199 520 198.5 547.5 c 128,-1,94
 198 575 198 575 197 601 c 0,95,96
 196 605 196 605 196 609 c 128,-1,97
 196 613 196 613 196 618 c 1,98,99
 180 616 180 616 168 612 c 0,100,101
 138 601 138 601 134.5 576 c 128,-1,102
 131 551 131 551 169 514 c 0,89,90
320 206 m 0,103,104
 313 246 313 246 301.5 269 c 128,-1,105
 290 292 290 292 271 312 c 1,106,107
 270 238 270 238 274 197 c 128,-1,108
 278 156 278 156 281 135 c 1,109,110
 290 143 290 143 298 152.5 c 128,-1,111
 306 162 306 162 311 171 c 0,112,113
 320 190 320 190 320 206 c 0,103,104
132 192 m 1,114,115
 130 198 130 198 130 200 c 256,116,117
 130 202 130 202 130.5 199.5 c 128,-1,118
 131 197 131 197 132 192 c 1,114,115
EndSplineSet
EndChar

StartChar: ampersand
Encoding: 38 38 9
Width: 833
GlyphClass: 2
Flags: W
LayerCount: 2
Back
Fore
SplineSet
604 23 m 1,0,1
 594 -3 594 -3 579.5 -8.5 c 128,-1,2
 565 -14 565 -14 547.5 -7 c 128,-1,3
 530 0 530 0 510.5 16.5 c 128,-1,4
 491 33 491 33 471.5 51 c 128,-1,5
 452 69 452 69 433.5 85 c 128,-1,6
 415 101 415 101 399 108 c 1,7,8
 379 82 379 82 356 58 c 128,-1,9
 333 34 333 34 307 13 c 0,10,11
 295 3 295 3 277 -3.5 c 128,-1,12
 259 -10 259 -10 240 -12 c 128,-1,13
 221 -14 221 -14 201.5 -11.5 c 128,-1,14
 182 -9 182 -9 167 -1 c 0,15,16
 118 25 118 25 96 67.5 c 128,-1,17
 74 110 74 110 75.5 158 c 128,-1,18
 77 206 77 206 101.5 254.5 c 128,-1,19
 126 303 126 303 170 341 c 1,20,21
 142 379 142 379 123 417.5 c 128,-1,22
 104 456 104 456 103.5 491.5 c 128,-1,23
 103 527 103 527 127 558 c 128,-1,24
 151 589 151 589 208 611 c 0,25,26
 236 622 236 622 259 624 c 128,-1,27
 282 626 282 626 303.5 621 c 128,-1,28
 325 616 325 616 346.5 603.5 c 128,-1,29
 368 591 368 591 394 573 c 0,30,31
 400 567 400 567 404 560 c 128,-1,32
 408 553 408 553 410 546 c 0,33,34
 424 518 424 518 413 488 c 128,-1,35
 402 458 402 458 379.5 429.5 c 128,-1,36
 357 401 357 401 329.5 376 c 128,-1,37
 302 351 302 351 282 334 c 1,38,39
 296 319 296 319 308.5 307 c 128,-1,40
 321 295 321 295 333.5 284 c 128,-1,41
 346 273 346 273 358.5 261.5 c 128,-1,42
 371 250 371 250 386 235 c 1,43,44
 435 283 435 283 473 320.5 c 128,-1,45
 511 358 511 358 554 393 c 0,46,47
 559 399 559 399 565.5 398 c 128,-1,48
 572 397 572 397 576.5 392.5 c 128,-1,49
 581 388 581 388 582 379.5 c 128,-1,50
 583 371 583 371 576 362 c 2,51,-1
 524 284 l 2,52,53
 504 258 504 258 485.5 231.5 c 128,-1,54
 467 205 467 205 449 179 c 1,55,56
 459 154 459 154 482.5 137 c 128,-1,57
 506 120 506 120 531 104 c 128,-1,58
 556 88 556 88 577.5 69.5 c 128,-1,59
 599 51 599 51 604 23 c 1,0,1
238 416 m 0,60,61
 253 408 253 408 266.5 413 c 128,-1,62
 280 418 280 418 290.5 429 c 128,-1,63
 301 440 301 440 309.5 455 c 128,-1,64
 318 470 318 470 323 481 c 0,65,66
 331 498 331 498 327.5 511.5 c 128,-1,67
 324 525 324 525 304 531 c 0,68,69
 289 536 289 536 267.5 542 c 128,-1,70
 246 548 246 548 227.5 545 c 128,-1,71
 209 542 209 542 198.5 526 c 128,-1,72
 188 510 188 510 195 473 c 0,73,74
 200 454 200 454 212.5 437 c 128,-1,75
 225 420 225 420 238 416 c 0,60,61
228 269 m 1,76,77
 196 222 196 222 187.5 186.5 c 128,-1,78
 179 151 179 151 185.5 128 c 128,-1,79
 192 105 192 105 210.5 94.5 c 128,-1,80
 229 84 229 84 250 89 c 0,81,82
 259 91 259 91 279.5 118 c 128,-1,83
 300 145 300 145 334 184 c 1,84,-1
 228 269 l 1,76,77
EndSplineSet
EndChar

StartChar: quotesingle
Encoding: 39 39 10
Width: 134
GlyphClass: 2
Flags: W
LayerCount: 2
Back
Fore
SplineSet
38 500 m 0,0,1
 36 512 36 512 33 532.5 c 128,-1,2
 30 553 30 553 28.5 574 c 128,-1,3
 27 595 27 595 28.5 614.5 c 128,-1,4
 30 634 30 634 37 644.5 c 128,-1,5
 44 655 44 655 58.5 654.5 c 128,-1,6
 73 654 73 654 98 635 c 1,7,-1
 109 603 l 1,8,9
 107 573 107 573 107 531 c 128,-1,10
 107 489 107 489 99 451 c 1,11,12
 104 430 104 430 102 410.5 c 128,-1,13
 100 391 100 391 80 379 c 0,14,15
 71 374 71 374 62 376 c 128,-1,16
 53 378 53 378 44 383 c 0,17,18
 34 394 34 394 37 409 c 0,19,20
 45 432 45 432 43.5 453 c 128,-1,21
 42 474 42 474 38 500 c 0,0,1
EndSplineSet
EndChar

StartChar: parenleft
Encoding: 40 40 11
Width: 318
GlyphClass: 2
Flags: W
LayerCount: 2
Back
Fore
SplineSet
135 555 m 0,0,1
 144 565 144 565 163 576 c 128,-1,2
 182 587 182 587 204.5 594.5 c 128,-1,3
 227 602 227 602 250 604.5 c 128,-1,4
 273 607 273 607 290 600 c 1,5,6
 284 586 284 586 274 575 c 128,-1,7
 264 564 264 564 251.5 554.5 c 128,-1,8
 239 545 239 545 226 535.5 c 128,-1,9
 213 526 213 526 203 516 c 0,10,11
 161 474 161 474 136 417.5 c 128,-1,12
 111 361 111 361 104.5 300.5 c 128,-1,13
 98 240 98 240 109 181.5 c 128,-1,14
 120 123 120 123 150 77 c 0,15,16
 182 26 182 26 221.5 -30 c 128,-1,17
 261 -86 261 -86 303 -130 c 0,18,19
 319 -150 319 -150 296 -163 c 1,20,21
 260 -135 260 -135 221.5 -102 c 128,-1,22
 183 -69 183 -69 147 -30 c 128,-1,23
 111 9 111 9 81.5 54 c 128,-1,24
 52 99 52 99 35 150 c 0,25,26
 24 187 24 187 21.5 224 c 128,-1,27
 19 261 19 261 22 299 c 0,28,29
 24 314 24 314 28 328.5 c 128,-1,30
 32 343 32 343 36 357 c 0,31,32
 43 384 43 384 51.5 409 c 128,-1,33
 60 434 60 434 71.5 458 c 128,-1,34
 83 482 83 482 98.5 506 c 128,-1,35
 114 530 114 530 135 555 c 0,0,1
EndSplineSet
EndChar

StartChar: asterisk
Encoding: 42 42 13
Width: 454
GlyphClass: 2
Flags: W
LayerCount: 2
Back
Fore
SplineSet
85 360 m 0,0,1
 67 349 67 349 51.5 353 c 128,-1,2
 36 357 36 357 27.5 368.5 c 128,-1,3
 19 380 19 380 20.5 395.5 c 128,-1,4
 22 411 22 411 38 425 c 1,5,6
 52 431 52 431 69.5 434.5 c 128,-1,7
 87 438 87 438 105 443 c 128,-1,8
 123 448 123 448 140 455.5 c 128,-1,9
 157 463 157 463 169 475 c 1,10,11
 149 492 149 492 128 506 c 128,-1,12
 107 520 107 520 84 530 c 1,13,14
 71 543 71 543 69 557.5 c 128,-1,15
 67 572 67 572 73.5 582.5 c 128,-1,16
 80 593 80 593 93.5 598.5 c 128,-1,17
 107 604 107 604 124 599 c 1,18,19
 146 580 146 580 161.5 555 c 128,-1,20
 177 530 177 530 197 510 c 1,21,22
 201 522 201 522 200 538.5 c 128,-1,23
 199 555 199 555 197 572 c 128,-1,24
 195 589 195 589 193.5 605.5 c 128,-1,25
 192 622 192 622 196.5 635 c 128,-1,26
 201 648 201 648 213.5 654.5 c 128,-1,27
 226 661 226 661 250 659 c 1,28,29
 262 651 262 651 269.5 640 c 128,-1,30
 277 629 277 629 275 614 c 0,31,32
 275 606 275 606 270 594 c 128,-1,33
 265 582 265 582 258.5 568 c 128,-1,34
 252 554 252 554 246.5 538 c 128,-1,35
 241 522 241 522 240 505 c 1,36,37
 254 513 254 513 271 526 c 128,-1,38
 288 539 288 539 305.5 553.5 c 128,-1,39
 323 568 323 568 338.5 582 c 128,-1,40
 354 596 354 596 366 607 c 1,41,42
 383 613 383 613 397 609 c 128,-1,43
 411 605 411 605 418.5 595 c 128,-1,44
 426 585 426 585 425.5 570.5 c 128,-1,45
 425 556 425 556 413 542 c 1,46,47
 376 521 376 521 337 503 c 128,-1,48
 298 485 298 485 260 464 c 1,49,-1
 247 477 l 1,50,51
 252 462 252 462 269 450.5 c 128,-1,52
 286 439 286 439 306.5 428.5 c 128,-1,53
 327 418 327 418 347.5 408.5 c 128,-1,54
 368 399 368 399 378.5 388.5 c 128,-1,55
 389 378 389 378 386.5 365 c 128,-1,56
 384 352 384 352 359 336 c 1,57,58
 316 345 316 345 283.5 375 c 128,-1,59
 251 405 251 405 230 444 c 1,60,61
 238 431 238 431 242.5 411 c 128,-1,62
 247 391 247 391 246.5 370.5 c 128,-1,63
 246 350 246 350 242 332 c 128,-1,64
 238 314 238 314 229.5 304.5 c 128,-1,65
 221 295 221 295 208 296.5 c 128,-1,66
 195 298 195 298 178 318 c 1,67,68
 174 347 174 347 183.5 382 c 128,-1,69
 193 417 193 417 200 444 c 1,70,71
 192 431 192 431 177.5 420 c 128,-1,72
 163 409 163 409 146.5 399.5 c 128,-1,73
 130 390 130 390 113.5 380 c 128,-1,74
 97 370 97 370 85 360 c 0,0,1
EndSplineSet
EndChar

StartChar: plus
Encoding: 43 43 14
Width: 527
GlyphClass: 2
Flags: W
LayerCount: 2
Back
Fore
SplineSet
75 275 m 1,0,1
 54 277 54 277 44.5 289.5 c 128,-1,2
 35 302 35 302 35.5 316 c 128,-1,3
 36 330 36 330 47 341.5 c 128,-1,4
 58 353 58 353 79 354 c 0,5,6
 120 349 120 349 160 343.5 c 128,-1,7
 200 338 200 338 242 337 c 1,8,9
 243 373 243 373 240.5 411 c 128,-1,10
 238 449 238 449 233 493 c 1,11,12
 236 511 236 511 247 520.5 c 128,-1,13
 258 530 258 530 271 530.5 c 128,-1,14
 284 531 284 531 295.5 523 c 128,-1,15
 307 515 307 515 312 497 c 1,16,17
 305 452 305 452 301 414 c 128,-1,18
 297 376 297 376 295 338 c 1,19,20
 330 340 330 340 365.5 345 c 128,-1,21
 401 350 401 350 437 349 c 1,22,23
 457 343 457 343 464.5 329.5 c 128,-1,24
 472 316 472 316 469 302 c 128,-1,25
 466 288 466 288 453.5 278.5 c 128,-1,26
 441 269 441 269 420 271 c 0,27,28
 415 273 415 273 406.5 272.5 c 128,-1,29
 398 272 398 272 399 277 c 2,30,31
 399 277 399 277 400 278 c 1,32,33
 372 283 372 283 346 286 c 128,-1,34
 320 289 320 289 294 291 c 1,35,36
 295 261 295 261 297 230 c 128,-1,37
 299 199 299 199 304 164 c 0,38,39
 303 143 303 143 291.5 132 c 128,-1,40
 280 121 280 121 266 120.5 c 128,-1,41
 252 120 252 120 239.5 129.5 c 128,-1,42
 227 139 227 139 225 160 c 1,43,44
 230 196 230 196 234 228 c 128,-1,45
 238 260 238 260 240 291 c 1,46,47
 200 290 200 290 160 285.5 c 128,-1,48
 120 281 120 281 75 275 c 1,0,1
EndSplineSet
EndChar

StartChar: comma
Encoding: 44 44 15
Width: 232
GlyphClass: 2
Flags: W
LayerCount: 2
Back
Fore
SplineSet
196 112 m 1,0,1
 186 70 186 70 172 21 c 128,-1,2
 158 -28 158 -28 130 -73 c 0,3,4
 120 -87 120 -87 114 -94 c 128,-1,5
 108 -101 108 -101 107 -102 c 0,6,7
 100 -112 100 -112 92 -114.5 c 128,-1,8
 84 -117 84 -117 75.5 -115 c 128,-1,9
 67 -113 67 -113 58.5 -108 c 128,-1,10
 50 -103 50 -103 43 -98 c 1,11,12
 45 -100 45 -100 44.5 -100 c 128,-1,13
 44 -100 44 -100 43 -98 c 0,14,15
 34 -86 34 -86 34.5 -73 c 128,-1,16
 35 -60 35 -60 41.5 -51 c 128,-1,17
 48 -42 48 -42 59.5 -37.5 c 128,-1,18
 71 -33 71 -33 85 -37 c 2,19,-1
 91 -39 l 1,20,-1
 92 -40 l 1,21,22
 102 -30 102 -30 105.5 -20 c 128,-1,23
 109 -10 109 -10 108 1 c 128,-1,24
 107 12 107 12 103.5 23.5 c 128,-1,25
 100 35 100 35 96 49 c 1,26,27
 84 53 84 53 78 61 c 128,-1,28
 72 69 72 69 70 79 c 1,29,30
 58 92 58 92 59 107 c 128,-1,31
 60 122 60 122 71 132 c 1,32,33
 68 140 68 140 69 148 c 128,-1,34
 70 156 70 156 77 162.5 c 128,-1,35
 84 169 84 169 98 174 c 128,-1,36
 112 179 112 179 136 182 c 0,37,38
 163 183 163 183 178.5 168.5 c 128,-1,39
 194 154 194 154 196 112 c 1,0,1
EndSplineSet
EndChar

StartChar: hyphen
Encoding: 45 45 16
Width: 358
GlyphClass: 2
Flags: W
LayerCount: 2
Back
Fore
SplineSet
88 243 m 1,0,1
 67 245 67 245 57.5 257.5 c 128,-1,2
 48 270 48 270 48.5 284 c 128,-1,3
 49 298 49 298 60 309.5 c 128,-1,4
 71 321 71 321 92 322 c 1,5,6
 121 306 121 306 152.5 303.5 c 128,-1,7
 184 301 184 301 213 303.5 c 128,-1,8
 242 306 242 306 266.5 309 c 128,-1,9
 291 312 291 312 306.5 309 c 128,-1,10
 322 306 322 306 326.5 292 c 128,-1,11
 331 278 331 278 320 245 c 1,12,13
 307 241 307 241 294 241.5 c 128,-1,14
 281 242 281 242 268 244.5 c 128,-1,15
 255 247 255 247 241.5 250.5 c 128,-1,16
 228 254 228 254 215 255 c 0,17,18
 183 258 183 258 151.5 253.5 c 128,-1,19
 120 249 120 249 88 243 c 1,0,1
EndSplineSet
EndChar

StartChar: period
Encoding: 46 46 17
Width: 202
GlyphClass: 2
Flags: W
LayerCount: 2
Back
Fore
SplineSet
154 121 m 1,0,1
 163 107 163 107 163 93.5 c 128,-1,2
 163 80 163 80 157 69 c 0,3,4
 156 67 156 67 156 66.5 c 128,-1,5
 156 66 156 66 155 64 c 0,6,7
 154 60 154 60 154 57 c 128,-1,8
 154 54 154 54 152 51 c 0,9,10
 161 36 161 36 160 21 c 128,-1,11
 159 6 159 6 150.5 -4 c 128,-1,12
 142 -14 142 -14 128.5 -16.5 c 128,-1,13
 115 -19 115 -19 100 -8 c 0,14,15
 84 3 84 3 82 21 c 1,16,17
 68 19 68 19 55 30 c 0,18,19
 45 37 45 37 41 45.5 c 128,-1,20
 37 54 37 54 37 62.5 c 128,-1,21
 37 71 37 71 41 79 c 128,-1,22
 45 87 45 87 52 92 c 1,23,24
 53 111 53 111 69 123 c 128,-1,25
 85 135 85 135 108 127 c 1,26,27
 129 137 129 137 154 121 c 1,0,1
EndSplineSet
EndChar

StartChar: slash
Encoding: 47 47 18
Width: 499
GlyphClass: 2
Flags: W
LayerCount: 2
Back
Fore
SplineSet
399 649 m 1,0,1
 436 651 436 651 441.5 630.5 c 128,-1,2
 447 610 447 610 421 572 c 1,3,-1
 420 572 l 1,4,5
 387 503 387 503 348 437.5 c 128,-1,6
 309 372 309 372 270 306.5 c 128,-1,7
 231 241 231 241 194.5 174 c 128,-1,8
 158 107 158 107 130 36 c 0,9,10
 128 28 128 28 128 25 c 0,11,12
 122 8 122 8 109.5 0.5 c 128,-1,13
 97 -7 97 -7 84.5 -5.5 c 128,-1,14
 72 -4 72 -4 61.5 6 c 128,-1,15
 51 16 51 16 49 34 c 1,16,17
 54 53 54 53 61 67 c 128,-1,18
 68 81 68 81 79 96 c 0,19,20
 102 139 102 139 127 177 c 128,-1,21
 152 215 152 215 177 253 c 128,-1,22
 202 291 202 291 224 330.5 c 128,-1,23
 246 370 246 370 263 416 c 0,24,25
 270 437 270 437 283 472 c 128,-1,26
 296 507 296 507 313.5 543 c 128,-1,27
 331 579 331 579 352.5 609 c 128,-1,28
 374 639 374 639 399 649 c 1,0,1
EndSplineSet
EndChar

StartChar: zero
Encoding: 48 48 19
Width: 431
GlyphClass: 2
Flags: W
LayerCount: 2
Back
Fore
SplineSet
237 515 m 1,0,1
 280 512 280 512 310 492.5 c 128,-1,2
 340 473 340 473 359 442 c 128,-1,3
 378 411 378 411 388 372 c 128,-1,4
 398 333 398 333 401 292 c 128,-1,5
 404 251 404 251 400.5 211.5 c 128,-1,6
 397 172 397 172 391 140 c 0,7,8
 389 127 389 127 385 110 c 128,-1,9
 381 93 381 93 375 75.5 c 128,-1,10
 369 58 369 58 361 42 c 128,-1,11
 353 26 353 26 342 17 c 0,12,13
 324 2 324 2 296 -3.5 c 128,-1,14
 268 -9 268 -9 238.5 -8.5 c 128,-1,15
 209 -8 209 -8 181 -4 c 128,-1,16
 153 0 153 0 134 3 c 0,17,18
 82 12 82 12 57 48 c 128,-1,19
 32 84 32 84 23.5 132.5 c 128,-1,20
 15 181 15 181 18.5 236 c 128,-1,21
 22 291 22 291 28 338 c 0,22,23
 31 364 31 364 36 397 c 128,-1,24
 41 430 41 430 52 454 c 0,25,26
 61 473 61 473 84 487 c 128,-1,27
 107 501 107 501 134.5 509.5 c 128,-1,28
 162 518 162 518 190 519.5 c 128,-1,29
 218 521 218 521 237 515 c 1,0,1
309 133 m 0,30,31
 319 160 319 160 328 191.5 c 128,-1,32
 337 223 337 223 340 255 c 128,-1,33
 343 287 343 287 338 317.5 c 128,-1,34
 333 348 333 348 316 372.5 c 128,-1,35
 299 397 299 397 267.5 413.5 c 128,-1,36
 236 430 236 430 187 434 c 1,37,-1
 176 431 l 2,38,39
 165 424 165 424 149 417 c 128,-1,40
 133 410 133 410 126 399 c 0,41,42
 107 366 107 366 101 329 c 128,-1,43
 95 292 95 292 98 254 c 128,-1,44
 101 216 101 216 110.5 178.5 c 128,-1,45
 120 141 120 141 131 108 c 1,46,-1
 168 79 l 1,47,48
 200 77 200 77 222.5 76 c 128,-1,49
 245 75 245 75 261 80 c 128,-1,50
 277 85 277 85 288.5 97 c 128,-1,51
 300 109 300 109 309 133 c 0,30,31
EndSplineSet
EndChar

StartChar: one
Encoding: 49 49 20
Width: 245
GlyphClass: 2
Flags: W
LayerCount: 2
Back
Fore
SplineSet
88 305 m 1,0,1
 74 289 74 289 58.5 287.5 c 128,-1,2
 43 286 43 286 31.5 294.5 c 128,-1,3
 20 303 20 303 16 318.5 c 128,-1,4
 12 334 12 334 23 352 c 1,5,6
 61 378 61 378 81.5 411.5 c 128,-1,7
 102 445 102 445 119 489 c 0,8,9
 121 490 121 490 121.5 491 c 128,-1,10
 122 492 122 492 124 493 c 0,11,12
 129 507 129 507 143.5 515.5 c 128,-1,13
 158 524 158 524 179 519 c 0,14,15
 180 519 180 519 180.5 518.5 c 128,-1,16
 181 518 181 518 182 518 c 0,17,18
 193 511 193 511 197 505 c 128,-1,19
 201 499 201 499 204 487 c 2,20,-1
 204 480 l 1,21,-1
 194 381 l 1,22,-1
 193 364 l 1,23,-1
 193 381 l 1,24,-1
 198 141 l 2,25,26
 198 129 198 129 201 113 c 128,-1,27
 204 97 204 97 205.5 80.5 c 128,-1,28
 207 64 207 64 205.5 48.5 c 128,-1,29
 204 33 204 33 196 22 c 0,30,31
 187 10 187 10 170 1.5 c 128,-1,32
 153 -7 153 -7 135 -8.5 c 128,-1,33
 117 -10 117 -10 103 -1.5 c 128,-1,34
 89 7 89 7 87 30 c 2,35,-1
 99 172 l 1,36,-1
 121 372 l 1,37,38
 111 357 111 357 103.5 340.5 c 128,-1,39
 96 324 96 324 88 305 c 1,0,1
203 464 m 0,40,41
 203 469 203 469 204 472 c 2,42,-1
 204 468 l 2,43,44
 204 467 204 467 203.5 465 c 128,-1,45
 203 463 203 463 203 464 c 0,40,41
EndSplineSet
EndChar

StartChar: two
Encoding: 50 50 21
Width: 409
GlyphClass: 2
Flags: W
LayerCount: 2
Back
Fore
SplineSet
63 107 m 0,0,1
 80 136 80 136 109 161.5 c 128,-1,2
 138 187 138 187 168 212.5 c 128,-1,3
 198 238 198 238 224 265.5 c 128,-1,4
 250 293 250 293 262 327 c 0,5,6
 262 328 262 328 262.5 328 c 128,-1,7
 263 328 263 328 263 329 c 0,8,9
 263 331 263 331 264 332 c 0,10,11
 254 374 254 374 218 398 c 1,12,13
 195 396 195 396 168.5 395.5 c 128,-1,14
 142 395 142 395 118 389 c 1,15,16
 106 380 106 380 96.5 378 c 128,-1,17
 87 376 87 376 70 378 c 0,18,19
 59 383 59 383 53 391.5 c 128,-1,20
 47 400 47 400 46 408 c 1,21,22
 35 419 35 419 34 434 c 128,-1,23
 33 449 33 449 46 463 c 1,24,25
 44 462 44 462 46.5 465.5 c 128,-1,26
 49 469 49 469 51 471 c 0,27,28
 61 481 61 481 68.5 482.5 c 128,-1,29
 76 484 76 484 93 490 c 0,30,31
 119 498 119 498 145 503.5 c 128,-1,32
 171 509 171 509 199 506 c 0,33,34
 235 503 235 503 269 484.5 c 128,-1,35
 303 466 303 466 321.5 434.5 c 128,-1,36
 340 403 340 403 338 358.5 c 128,-1,37
 336 314 336 314 302 259 c 0,38,39
 286 226 286 226 265 195 c 128,-1,40
 244 164 244 164 224 133 c 0,41,42
 222 129 222 129 219.5 125 c 128,-1,43
 217 121 217 121 214 116 c 1,44,45
 232 108 232 108 246.5 101.5 c 128,-1,46
 261 95 261 95 276 91.5 c 128,-1,47
 291 88 291 88 309 88 c 128,-1,48
 327 88 327 88 353 94 c 1,49,50
 381 86 381 86 386.5 65 c 128,-1,51
 392 44 392 44 378 29 c 0,52,53
 378 27 378 27 377.5 24 c 128,-1,54
 377 21 377 21 377 19 c 0,55,56
 373 5 373 5 357 2 c 0,57,58
 328 2 328 2 299 5.5 c 128,-1,59
 270 9 270 9 241 14 c 0,60,61
 227 17 227 17 213.5 21.5 c 128,-1,62
 200 26 200 26 186 24 c 0,63,64
 166 23 166 23 146.5 19 c 128,-1,65
 127 15 127 15 106 13 c 1,66,67
 79 5 79 5 59.5 18 c 128,-1,68
 40 31 40 31 42 64 c 0,69,70
 42 70 42 70 45 77 c 128,-1,71
 48 84 48 84 52 90 c 128,-1,72
 56 96 56 96 59 101 c 128,-1,73
 62 106 62 106 63 107 c 0,0,1
EndSplineSet
EndChar

StartChar: three
Encoding: 51 51 22
Width: 441
GlyphClass: 2
Flags: W
LayerCount: 2
Back
Fore
SplineSet
156 152 m 1,0,1
 145 151 145 151 132.5 153 c 128,-1,2
 120 155 120 155 109 159 c 128,-1,3
 98 163 98 163 90.5 169 c 128,-1,4
 83 175 83 175 83 181 c 0,5,6
 76 199 76 199 89.5 210 c 128,-1,7
 103 221 103 221 126.5 229.5 c 128,-1,8
 150 238 150 238 177 245 c 128,-1,9
 204 252 204 252 225.5 263 c 128,-1,10
 247 274 247 274 256.5 290.5 c 128,-1,11
 266 307 266 307 253 333 c 1,12,13
 248 355 248 355 225.5 366 c 128,-1,14
 203 377 203 377 173.5 381 c 128,-1,15
 144 385 144 385 115 384.5 c 128,-1,16
 86 384 86 384 70 383 c 0,17,18
 49 385 49 385 39 398 c 128,-1,19
 29 411 29 411 30 425 c 0,20,21
 27 449 27 449 28.5 463.5 c 128,-1,22
 30 478 30 478 34 486 c 128,-1,23
 38 494 38 494 44 497.5 c 128,-1,24
 50 501 50 501 57 501 c 2,25,-1
 174 502 l 1,26,27
 246 498 246 498 288.5 474 c 128,-1,28
 331 450 331 450 350.5 418.5 c 128,-1,29
 370 387 370 387 371 354.5 c 128,-1,30
 372 322 372 322 362 300 c 0,31,32
 355 285 355 285 341 274.5 c 128,-1,33
 327 264 327 264 315 252 c 0,34,35
 303 241 303 241 290.5 230 c 128,-1,36
 278 219 278 219 264 211 c 1,37,38
 304 191 304 191 331 158 c 128,-1,39
 358 125 358 125 367 82.5 c 128,-1,40
 376 40 376 40 365 -10 c 128,-1,41
 354 -60 354 -60 318 -114 c 0,42,43
 313 -120 313 -120 308.5 -126 c 128,-1,44
 304 -132 304 -132 299 -138 c 0,45,46
 275 -164 275 -164 237 -188.5 c 128,-1,47
 199 -213 199 -213 155.5 -229 c 128,-1,48
 112 -245 112 -245 67 -248 c 128,-1,49
 22 -251 22 -251 -14 -234 c 0,50,51
 -23 -229 -23 -229 -28 -221 c 1,52,53
 -45 -210 -45 -210 -49.5 -188 c 128,-1,54
 -54 -166 -54 -166 -42 -130 c 0,55,56
 -37 -121 -37 -121 -32 -116.5 c 128,-1,57
 -27 -112 -27 -112 -17 -109 c 0,58,59
 -6 -108 -6 -108 2.5 -111 c 128,-1,60
 11 -114 11 -114 19 -117.5 c 128,-1,61
 27 -121 27 -121 35 -124.5 c 128,-1,62
 43 -128 43 -128 53 -128 c 0,63,64
 79 -128 79 -128 115.5 -115.5 c 128,-1,65
 152 -103 152 -103 187 -82 c 128,-1,66
 222 -61 222 -61 248.5 -33 c 128,-1,67
 275 -5 275 -5 281 25 c 128,-1,68
 287 55 287 55 265 85.5 c 128,-1,69
 243 116 243 116 182 143 c 1,70,-1
 156 152 l 1,0,1
EndSplineSet
EndChar

StartChar: four
Encoding: 52 52 23
Width: 499
GlyphClass: 2
Flags: W
LayerCount: 2
Back
Fore
SplineSet
418 102 m 1,0,1
 459 102 459 102 477.5 88 c 128,-1,2
 496 74 496 74 498.5 58 c 128,-1,3
 501 42 501 42 491 28.5 c 128,-1,4
 481 15 481 15 466 17 c 2,5,-1
 464 17 l 2,6,7
 458 15 458 15 448.5 15 c 128,-1,8
 439 15 439 15 429 15.5 c 128,-1,9
 419 16 419 16 409.5 17 c 128,-1,10
 400 18 400 18 394 17 c 1,11,12
 396 -11 396 -11 395 -42 c 128,-1,13
 394 -73 394 -73 391 -104 c 128,-1,14
 388 -135 388 -135 384.5 -164.5 c 128,-1,15
 381 -194 381 -194 378 -218 c 0,16,17
 376 -221 376 -221 375 -223.5 c 128,-1,18
 374 -226 374 -226 372 -228 c 0,19,20
 362 -245 362 -245 340 -249 c 1,21,-1
 270 -249 l 2,22,23
 247 -248 247 -248 242.5 -234 c 128,-1,24
 238 -220 238 -220 242.5 -201.5 c 128,-1,25
 247 -183 247 -183 255.5 -163.5 c 128,-1,26
 264 -144 264 -144 268 -131 c 0,27,28
 283 -94 283 -94 290 -71 c 128,-1,29
 297 -48 297 -48 300 -33 c 128,-1,30
 303 -18 303 -18 303 -7 c 128,-1,31
 303 4 303 4 302 16 c 1,32,33
 295 16 295 16 289 16 c 128,-1,34
 283 16 283 16 277 15 c 0,35,36
 273 15 273 15 267 17 c 2,37,-1
 83 15 l 2,38,39
 74 13 74 13 66.5 12.5 c 128,-1,40
 59 12 59 12 49 13 c 1,41,42
 38 21 38 21 30 32 c 1,43,44
 27 55 27 55 41 71 c 0,45,46
 42 73 42 73 43 73.5 c 128,-1,47
 44 74 44 74 46 76 c 0,48,49
 76 117 76 117 104 159.5 c 128,-1,50
 132 202 132 202 159.5 245 c 128,-1,51
 187 288 187 288 215 331 c 128,-1,52
 243 374 243 374 274 416 c 0,53,54
 280 425 280 425 286 434.5 c 128,-1,55
 292 444 292 444 297 452 c 0,56,57
 313 477 313 477 332.5 494.5 c 128,-1,58
 352 512 352 512 371 518 c 128,-1,59
 390 524 390 524 406 516.5 c 128,-1,60
 422 509 422 509 431.5 483.5 c 128,-1,61
 441 458 441 458 442 413 c 128,-1,62
 443 368 443 368 431 299 c 0,63,64
 427 257 427 257 421.5 216 c 128,-1,65
 416 175 416 175 413 133 c 0,66,67
 415 125 415 125 415.5 117.5 c 128,-1,68
 416 110 416 110 418 102 c 1,0,1
360 378 m 2,69,70
 357 373 357 373 352.5 365 c 128,-1,71
 348 357 348 357 343.5 348 c 128,-1,72
 339 339 339 339 335.5 330.5 c 128,-1,73
 332 322 332 322 329 318 c 0,74,75
 294 259 294 259 254 203.5 c 128,-1,76
 214 148 214 148 170 94 c 1,77,78
 195 92 195 92 219.5 92 c 128,-1,79
 244 92 244 92 268 92 c 0,80,81
 276 94 276 94 281 94 c 2,82,-1
 283 94 l 2,83,84
 290 96 290 96 297 97 c 128,-1,85
 304 98 304 98 311 100 c 1,86,87
 312 129 312 129 318.5 160.5 c 128,-1,88
 325 192 325 192 332.5 224.5 c 128,-1,89
 340 257 340 257 346.5 288.5 c 128,-1,90
 353 320 353 320 354 349 c 1,91,-1
 360 378 l 2,69,70
EndSplineSet
EndChar

StartChar: five
Encoding: 53 53 24
Width: 464
GlyphClass: 2
Flags: W
LayerCount: 2
Back
Fore
SplineSet
53 -128 m 0,0,1
 82 -128 82 -128 124 -112.5 c 128,-1,2
 166 -97 166 -97 203.5 -71.5 c 128,-1,3
 241 -46 241 -46 264.5 -13 c 128,-1,4
 288 20 288 20 280 54 c 1,5,-1
 281 54 l 1,6,7
 273 68 273 68 260.5 82.5 c 128,-1,8
 248 97 248 97 234.5 109 c 128,-1,9
 221 121 221 121 207.5 130 c 128,-1,10
 194 139 194 139 184 143 c 0,11,12
 180 144 180 144 177 145 c 128,-1,13
 174 146 174 146 171 147 c 2,14,-1
 89 175 l 2,15,16
 75 178 75 178 66 189 c 1,17,18
 56 223 56 223 65 258 c 1,19,-1
 65 260 l 1,20,21
 61 276 61 276 62 297.5 c 128,-1,22
 63 319 63 319 65 342.5 c 128,-1,23
 67 366 67 366 70 388 c 128,-1,24
 73 410 73 410 73 427 c 0,25,26
 74 441 74 441 75.5 454.5 c 128,-1,27
 77 468 77 468 80 482 c 0,28,29
 85 492 85 492 91 495 c 128,-1,30
 97 498 97 498 108 498 c 0,31,32
 171 501 171 501 232.5 502 c 128,-1,33
 294 503 294 503 356 506 c 1,34,35
 372 501 372 501 379.5 490.5 c 128,-1,36
 387 480 387 480 385 465 c 128,-1,37
 383 450 383 450 369.5 431 c 128,-1,38
 356 412 356 412 329 391 c 1,39,40
 319 392 319 392 294.5 395.5 c 128,-1,41
 270 399 270 399 242.5 401 c 128,-1,42
 215 403 215 403 191 402 c 128,-1,43
 167 401 167 401 160 393 c 0,44,45
 151 383 151 383 146.5 368.5 c 128,-1,46
 142 354 142 354 140 338.5 c 128,-1,47
 138 323 138 323 137.5 307.5 c 128,-1,48
 137 292 137 292 136 279 c 1,49,50
 136 280 136 280 136.5 280 c 128,-1,51
 137 280 137 280 137 281 c 2,52,-1
 137 271 l 2,53,54
 137 260 137 260 135 255 c 1,55,56
 163 252 163 252 203 240 c 1,57,-1
 266 211 l 2,58,59
 298 195 298 195 322 170.5 c 128,-1,60
 346 146 346 146 358.5 115 c 128,-1,61
 371 84 371 84 372.5 47.5 c 128,-1,62
 374 11 374 11 361 -29 c 1,63,-1
 359 -29 l 1,64,65
 347 -70 347 -70 318 -114 c 0,66,67
 313 -120 313 -120 308.5 -126 c 128,-1,68
 304 -132 304 -132 299 -138 c 0,69,70
 275 -164 275 -164 237 -188.5 c 128,-1,71
 199 -213 199 -213 155.5 -229 c 128,-1,72
 112 -245 112 -245 67 -248 c 128,-1,73
 22 -251 22 -251 -14 -234 c 0,74,75
 -23 -229 -23 -229 -28 -221 c 1,76,77
 -45 -210 -45 -210 -49.5 -188 c 128,-1,78
 -54 -166 -54 -166 -42 -130 c 0,79,80
 -37 -121 -37 -121 -32 -116.5 c 128,-1,81
 -27 -112 -27 -112 -17 -109 c 0,82,83
 -6 -108 -6 -108 2.5 -111 c 128,-1,84
 11 -114 11 -114 19 -117.5 c 128,-1,85
 27 -121 27 -121 35 -124.5 c 128,-1,86
 43 -128 43 -128 53 -128 c 0,0,1
123 438 m 1,87,88
 125 440 125 440 127 441 c 128,-1,89
 129 442 129 442 131 444 c 2,90,-1
 124 444 l 1,91,92
 124 440 124 440 123 438 c 1,87,88
EndSplineSet
EndChar

StartChar: six
Encoding: 54 54 25
Width: 517
GlyphClass: 2
Flags: W
LayerCount: 2
Back
Fore
SplineSet
493 157 m 0,0,1
 485 116 485 116 455.5 82 c 128,-1,2
 426 48 426 48 386 25.5 c 128,-1,3
 346 3 346 3 299.5 -6 c 128,-1,4
 253 -15 253 -15 210.5 -7 c 128,-1,5
 168 1 168 1 133 28.5 c 128,-1,6
 98 56 98 56 81 106 c 0,7,8
 63 159 63 159 55.5 228.5 c 128,-1,9
 48 298 48 298 50.5 369.5 c 128,-1,10
 53 441 53 441 65.5 508.5 c 128,-1,11
 78 576 78 576 99 624 c 128,-1,12
 120 672 120 672 149.5 694 c 128,-1,13
 179 716 179 716 216 698 c 1,14,-1
 216 695 l 2,15,16
 217 695 217 695 217.5 694.5 c 128,-1,17
 218 694 218 694 219 694 c 0,18,19
 232 688 232 688 230.5 675.5 c 128,-1,20
 229 663 229 663 220.5 643 c 128,-1,21
 212 623 212 623 200 595.5 c 128,-1,22
 188 568 188 568 180 532 c 128,-1,23
 172 496 172 496 171 451.5 c 128,-1,24
 170 407 170 407 185 353 c 1,25,26
 227 373 227 373 274.5 377 c 128,-1,27
 322 381 322 381 365.5 369.5 c 128,-1,28
 409 358 409 358 442.5 331 c 128,-1,29
 476 304 476 304 488 264 c 0,30,31
 496 239 496 239 497 211 c 128,-1,32
 498 183 498 183 493 157 c 0,0,1
389 152 m 0,33,34
 402 176 402 176 400.5 195 c 128,-1,35
 399 214 399 214 387.5 231 c 128,-1,36
 376 248 376 248 357 263.5 c 128,-1,37
 338 279 338 279 316 295 c 0,38,39
 301 306 301 306 282.5 303 c 128,-1,40
 264 300 264 300 247 287.5 c 128,-1,41
 230 275 230 275 216.5 255 c 128,-1,42
 203 235 203 235 198.5 210.5 c 128,-1,43
 194 186 194 186 201 159.5 c 128,-1,44
 208 133 208 133 231 109 c 0,45,46
 255 83 255 83 282 85.5 c 128,-1,47
 309 88 309 88 332.5 101.5 c 128,-1,48
 356 115 356 115 371.5 132 c 128,-1,49
 387 149 387 149 389 152 c 0,33,34
EndSplineSet
EndChar

StartChar: seven
Encoding: 55 55 26
Width: 510
GlyphClass: 2
Flags: W
LayerCount: 2
Back
Fore
SplineSet
112 -255 m 1,0,1
 106 -272 106 -272 93.5 -279.5 c 128,-1,2
 81 -287 81 -287 68.5 -285.5 c 128,-1,3
 56 -284 56 -284 45.5 -274 c 128,-1,4
 35 -264 35 -264 33 -246 c 1,5,6
 36 -221 36 -221 37.5 -197 c 128,-1,7
 39 -173 39 -173 46 -150 c 0,8,9
 77 -53 77 -53 116.5 39 c 128,-1,10
 156 131 156 131 213 224 c 0,11,12
 234 259 234 259 255.5 296 c 128,-1,13
 277 333 277 333 306 362 c 1,14,15
 283 357 283 357 247 354.5 c 128,-1,16
 211 352 211 352 173.5 354 c 128,-1,17
 136 356 136 356 102 363.5 c 128,-1,18
 68 371 68 371 48.5 386.5 c 128,-1,19
 29 402 29 402 30 427 c 128,-1,20
 31 452 31 452 63 488 c 1,21,22
 149 485 149 485 211 483.5 c 128,-1,23
 273 482 273 482 316.5 481 c 128,-1,24
 360 480 360 480 387.5 479.5 c 128,-1,25
 415 479 415 479 432.5 478 c 128,-1,26
 450 477 450 477 459.5 475 c 128,-1,27
 469 473 469 473 476 471 c 1,28,-1
 483 436 l 1,29,-1
 445 333 l 1,30,-1
 309 163 l 2,31,32
 276 118 276 118 241 70.5 c 128,-1,33
 206 23 206 23 177.5 -28 c 128,-1,34
 149 -79 149 -79 130.5 -135.5 c 128,-1,35
 112 -192 112 -192 112 -255 c 1,0,1
EndSplineSet
EndChar

StartChar: eight
Encoding: 56 56 27
Width: 489
GlyphClass: 2
Flags: W
LayerCount: 2
Back
Fore
SplineSet
81 643 m 0,0,1
 110 696 110 696 149.5 721.5 c 128,-1,2
 189 747 189 747 231.5 751 c 128,-1,3
 274 755 274 755 315.5 740.5 c 128,-1,4
 357 726 357 726 390.5 699 c 128,-1,5
 424 672 424 672 445.5 635 c 128,-1,6
 467 598 467 598 468.5 557.5 c 128,-1,7
 470 517 470 517 448 475.5 c 128,-1,8
 426 434 426 434 373 398 c 1,9,-1
 453 260 l 2,10,11
 462 247 462 247 468 224.5 c 128,-1,12
 474 202 474 202 475 175.5 c 128,-1,13
 476 149 476 149 468.5 120 c 128,-1,14
 461 91 461 91 443 65 c 0,15,16
 422 34 422 34 381.5 16 c 128,-1,17
 341 -2 341 -2 292.5 -7 c 128,-1,18
 244 -12 244 -12 194 -2 c 128,-1,19
 144 8 144 8 104.5 33 c 128,-1,20
 65 58 65 58 42 99 c 128,-1,21
 19 140 19 140 24 198 c 0,22,23
 27 230 27 230 40.5 258 c 128,-1,24
 54 286 54 286 75 310.5 c 128,-1,25
 96 335 96 335 123 355.5 c 128,-1,26
 150 376 150 376 179 394 c 1,27,28
 159 395 159 395 141.5 410 c 128,-1,29
 124 425 124 425 109.5 447 c 128,-1,30
 95 469 95 469 85 496.5 c 128,-1,31
 75 524 75 524 71 551 c 128,-1,32
 67 578 67 578 69 602.5 c 128,-1,33
 71 627 71 627 81 643 c 0,0,1
362 208 m 0,34,35
 359 226 359 226 349.5 247.5 c 128,-1,36
 340 269 340 269 325 286 c 128,-1,37
 310 303 310 303 289 312.5 c 128,-1,38
 268 322 268 322 243 316 c 0,39,40
 215 312 215 312 195.5 298 c 128,-1,41
 176 284 176 284 165 264.5 c 128,-1,42
 154 245 154 245 151 221.5 c 128,-1,43
 148 198 148 198 153.5 176 c 128,-1,44
 159 154 159 154 172.5 135 c 128,-1,45
 186 116 186 116 208 105 c 0,46,47
 229 96 229 96 252 96 c 128,-1,48
 275 96 275 96 295 105 c 128,-1,49
 315 114 315 114 331.5 132.5 c 128,-1,50
 348 151 348 151 357 179 c 0,51,52
 359 187 359 187 359.5 193.5 c 128,-1,53
 360 200 360 200 362 208 c 0,34,35
270 459 m 1,54,55
 298 463 298 463 318 481.5 c 128,-1,56
 338 500 338 500 348 524.5 c 128,-1,57
 358 549 358 549 356 575 c 128,-1,58
 354 601 354 601 338.5 620.5 c 128,-1,59
 323 640 323 640 291.5 648.5 c 128,-1,60
 260 657 260 657 211 646 c 0,61,62
 186 637 186 637 174.5 621 c 128,-1,63
 163 605 163 605 163 585 c 128,-1,64
 163 565 163 565 172 544.5 c 128,-1,65
 181 524 181 524 196 506 c 128,-1,66
 211 488 211 488 230.5 475 c 128,-1,67
 250 462 250 462 270 459 c 1,54,55
EndSplineSet
EndChar

StartChar: nine
Encoding: 57 57 28
Width: 494
GlyphClass: 2
Flags: W
LayerCount: 2
Back
Fore
SplineSet
103 -195 m 0,0,1
 165 -165 165 -165 204 -137 c 128,-1,2
 243 -109 243 -109 268 -75 c 128,-1,3
 293 -41 293 -41 309 3.5 c 128,-1,4
 325 48 325 48 342 110 c 1,5,6
 275 86 275 86 220.5 92 c 128,-1,7
 166 98 166 98 126.5 124 c 128,-1,8
 87 150 87 150 64 192 c 128,-1,9
 41 234 41 234 38 282 c 0,10,11
 37 299 37 299 36.5 315 c 128,-1,12
 36 331 36 331 36 348 c 0,13,14
 36 400 36 400 67.5 438 c 128,-1,15
 99 476 99 476 146.5 496 c 128,-1,16
 194 516 194 516 247.5 516.5 c 128,-1,17
 301 517 301 517 345 495 c 0,18,19
 399 469 399 469 428.5 420 c 128,-1,20
 458 371 458 371 468 309 c 128,-1,21
 478 247 478 247 469 177.5 c 128,-1,22
 460 108 460 108 436.5 40.5 c 128,-1,23
 413 -27 413 -27 377 -87.5 c 128,-1,24
 341 -148 341 -148 295.5 -192 c 128,-1,25
 250 -236 250 -236 197 -257.5 c 128,-1,26
 144 -279 144 -279 87 -269 c 0,27,28
 75 -267 75 -267 68.5 -261.5 c 128,-1,29
 62 -256 62 -256 60 -249 c 0,30,31
 57 -238 57 -238 67 -225 c 128,-1,32
 77 -212 77 -212 103 -195 c 0,0,1
332 291 m 1,33,34
 326 308 326 308 317 327 c 128,-1,35
 308 346 308 346 291 360.5 c 128,-1,36
 274 375 274 375 248 381.5 c 128,-1,37
 222 388 222 388 182 381 c 1,38,-1
 143 355 l 1,39,40
 133 309 133 309 143.5 274 c 128,-1,41
 154 239 154 239 178.5 222 c 128,-1,42
 203 205 203 205 237.5 209.5 c 128,-1,43
 272 214 272 214 310 248 c 1,44,-1
 332 291 l 1,33,34
EndSplineSet
EndChar

StartChar: colon
Encoding: 58 58 29
Width: 219
GlyphClass: 2
Flags: W
LayerCount: 2
Back
Fore
SplineSet
93 461 m 1,0,1
 129 487 129 487 149.5 484 c 128,-1,2
 170 481 170 481 178 461.5 c 128,-1,3
 186 442 186 442 182.5 414 c 128,-1,4
 179 386 179 386 167.5 363 c 128,-1,5
 156 340 156 340 138.5 329.5 c 128,-1,6
 121 319 121 319 100 335 c 0,7,8
 96 337 96 337 93.5 339.5 c 128,-1,9
 91 342 91 342 89 344 c 256,10,11
 87 346 87 346 84.5 347 c 128,-1,12
 82 348 82 348 80 350 c 0,13,14
 68 359 68 359 59 378.5 c 128,-1,15
 50 398 50 398 49 417.5 c 128,-1,16
 48 437 48 437 58 450.5 c 128,-1,17
 68 464 68 464 93 461 c 1,0,1
154 121 m 1,18,19
 163 107 163 107 163 93.5 c 128,-1,20
 163 80 163 80 157 69 c 0,21,22
 156 67 156 67 156 66.5 c 128,-1,23
 156 66 156 66 155 64 c 0,24,25
 154 60 154 60 154 57 c 128,-1,26
 154 54 154 54 152 51 c 0,27,28
 161 36 161 36 160 21 c 128,-1,29
 159 6 159 6 150.5 -4 c 128,-1,30
 142 -14 142 -14 128.5 -16.5 c 128,-1,31
 115 -19 115 -19 100 -8 c 0,32,33
 84 3 84 3 82 21 c 1,34,35
 64 20 64 20 54 29.5 c 128,-1,36
 44 39 44 39 41.5 52.5 c 128,-1,37
 39 66 39 66 43 81.5 c 128,-1,38
 47 97 47 97 56 109 c 128,-1,39
 65 121 65 121 78.5 126.5 c 128,-1,40
 92 132 92 132 108 127 c 2,41,-1
 154 121 l 1,18,19
EndSplineSet
EndChar

StartChar: semicolon
Encoding: 59 59 30
Width: 232
GlyphClass: 2
Flags: W
LayerCount: 2
Back
Fore
SplineSet
196 112 m 1,0,1
 186 70 186 70 172 21 c 128,-1,2
 158 -28 158 -28 130 -73 c 0,3,4
 123 -83 123 -83 115 -90 c 0,5,6
 113 -92 113 -92 107 -96 c 128,-1,7
 101 -100 101 -100 104 -98 c 0,8,9
 115 -93 115 -93 113.5 -94 c 128,-1,10
 112 -95 112 -95 107 -102 c 0,11,12
 100 -112 100 -112 92 -114 c 128,-1,13
 84 -116 84 -116 75.5 -113.5 c 128,-1,14
 67 -111 67 -111 59 -106 c 128,-1,15
 51 -101 51 -101 44 -98 c 2,16,-1
 43 -98 l 2,17,18
 45 -100 45 -100 44.5 -100 c 128,-1,19
 44 -100 44 -100 43 -98 c 0,20,21
 34 -86 34 -86 34.5 -73 c 128,-1,22
 35 -60 35 -60 41.5 -51 c 128,-1,23
 48 -42 48 -42 59.5 -37.5 c 128,-1,24
 71 -33 71 -33 85 -37 c 0,25,26
 91 -35 91 -35 92 -35 c 0,27,28
 94 -34 94 -34 96.5 -31 c 128,-1,29
 99 -28 99 -28 98 -30 c 0,30,31
 96 -34 96 -34 91 -39 c 1,32,-1
 92 -40 l 1,33,34
 102 -30 102 -30 105.5 -20 c 128,-1,35
 109 -10 109 -10 108 1 c 128,-1,36
 107 12 107 12 103.5 23.5 c 128,-1,37
 100 35 100 35 96 49 c 1,38,39
 84 53 84 53 78 61 c 128,-1,40
 72 69 72 69 70 79 c 1,41,42
 58 92 58 92 59 107 c 128,-1,43
 60 122 60 122 71 132 c 1,44,45
 68 140 68 140 69 148 c 128,-1,46
 70 156 70 156 77 162.5 c 128,-1,47
 84 169 84 169 98 174 c 128,-1,48
 112 179 112 179 136 182 c 0,49,50
 163 183 163 183 178.5 168.5 c 128,-1,51
 194 154 194 154 196 112 c 1,0,1
93 461 m 1,52,53
 129 487 129 487 149.5 484 c 128,-1,54
 170 481 170 481 178 461.5 c 128,-1,55
 186 442 186 442 182.5 414 c 128,-1,56
 179 386 179 386 167.5 363 c 128,-1,57
 156 340 156 340 138.5 329.5 c 128,-1,58
 121 319 121 319 100 335 c 0,59,60
 96 337 96 337 93.5 339.5 c 128,-1,61
 91 342 91 342 89 344 c 256,62,63
 87 346 87 346 84.5 347 c 128,-1,64
 82 348 82 348 80 350 c 0,65,66
 68 359 68 359 59 378.5 c 128,-1,67
 50 398 50 398 49 417.5 c 128,-1,68
 48 437 48 437 58 450.5 c 128,-1,69
 68 464 68 464 93 461 c 1,52,53
EndSplineSet
EndChar

StartChar: less
Encoding: 60 60 31
Width: 459
GlyphClass: 2
Flags: W
LayerCount: 2
Back
Fore
SplineSet
132 313 m 0,0,1
 160 288 160 288 190 271.5 c 128,-1,2
 220 255 220 255 253 238.5 c 128,-1,3
 286 222 286 222 324 201.5 c 128,-1,4
 362 181 362 181 407 147 c 1,5,6
 419 130 419 130 416.5 114.5 c 128,-1,7
 414 99 414 99 403.5 90 c 128,-1,8
 393 81 393 81 377 81 c 128,-1,9
 361 81 361 81 346 96 c 0,10,11
 294 138 294 138 248 168 c 128,-1,12
 202 198 202 198 163 224 c 128,-1,13
 124 250 124 250 93 276 c 128,-1,14
 62 302 62 302 41 336 c 1,15,16
 86 358 86 358 123 381.5 c 128,-1,17
 160 405 160 405 195 431 c 128,-1,18
 230 457 230 457 265.5 487.5 c 128,-1,19
 301 518 301 518 343 554 c 1,20,21
 360 560 360 560 374 556 c 128,-1,22
 388 552 388 552 395.5 542 c 128,-1,23
 403 532 403 532 402.5 517.5 c 128,-1,24
 402 503 402 503 390 489 c 1,25,26
 318 460 318 460 258 418 c 128,-1,27
 198 376 198 376 139 328 c 1,28,-1
 140 327 l 2,29,30
 141 328 141 328 139.5 326 c 128,-1,31
 138 324 138 324 136 321 c 128,-1,32
 134 318 134 318 132.5 315.5 c 128,-1,33
 131 313 131 313 132 313 c 0,0,1
EndSplineSet
EndChar

StartChar: equal
Encoding: 61 61 32
Width: 833
GlyphClass: 2
Flags: W
LayerCount: 2
Back
Fore
SplineSet
411 457 m 0,0,1
 420 456 420 456 434.5 457 c 128,-1,2
 449 458 449 458 465.5 459.5 c 128,-1,3
 482 461 482 461 497 461 c 128,-1,4
 512 461 512 461 522 457 c 0,5,6
 535 452 535 452 540 443 c 128,-1,7
 545 434 545 434 539.5 425.5 c 128,-1,8
 534 417 534 417 517.5 411 c 128,-1,9
 501 405 501 405 473 405 c 0,10,11
 431 404 431 404 394.5 404.5 c 128,-1,12
 358 405 358 405 322.5 405.5 c 128,-1,13
 287 406 287 406 250.5 406 c 128,-1,14
 214 406 214 406 172 404 c 0,15,16
 137 403 137 403 121.5 412.5 c 128,-1,17
 106 422 106 422 106 434 c 128,-1,18
 106 446 106 446 118.5 457 c 128,-1,19
 131 468 131 468 153 471 c 1,20,21
 220 466 220 466 282.5 465.5 c 128,-1,22
 345 465 345 465 411 457 c 0,0,1
249 254 m 0,23,24
 240 255 240 255 225.5 254 c 128,-1,25
 211 253 211 253 194.5 251.5 c 128,-1,26
 178 250 178 250 163 250 c 128,-1,27
 148 250 148 250 138 254 c 0,28,29
 124 259 124 259 119.5 268 c 128,-1,30
 115 277 115 277 120.5 285.5 c 128,-1,31
 126 294 126 294 142 300 c 128,-1,32
 158 306 158 306 187 306 c 0,33,34
 229 307 229 307 265.5 306.5 c 128,-1,35
 302 306 302 306 337.5 305.5 c 128,-1,36
 373 305 373 305 409.5 305 c 128,-1,37
 446 305 446 305 488 307 c 0,38,39
 523 308 523 308 538.5 298.5 c 128,-1,40
 554 289 554 289 554 277 c 128,-1,41
 554 265 554 265 541.5 254 c 128,-1,42
 529 243 529 243 507 240 c 1,43,44
 440 245 440 245 377.5 245.5 c 128,-1,45
 315 246 315 246 249 254 c 0,23,24
EndSplineSet
EndChar

StartChar: question
Encoding: 63 63 34
Width: 462
GlyphClass: 2
Flags: W
LayerCount: 2
Back
Fore
SplineSet
161 106 m 0,0,1
 133 109 133 109 126 122.5 c 128,-1,2
 119 136 119 136 127 166 c 0,3,4
 129 187 129 187 131 216.5 c 128,-1,5
 133 246 133 246 136.5 275 c 128,-1,6
 140 304 140 304 145.5 328.5 c 128,-1,7
 151 353 151 353 160 363 c 0,8,9
 181 379 181 379 202.5 391 c 128,-1,10
 224 403 224 403 245 416 c 128,-1,11
 266 429 266 429 284 446 c 128,-1,12
 302 463 302 463 315 490 c 0,13,14
 319 506 319 506 319 522 c 128,-1,15
 319 538 319 538 313.5 552 c 128,-1,16
 308 566 308 566 295.5 576.5 c 128,-1,17
 283 587 283 587 264 592 c 2,18,-1
 252 595 l 1,19,-1
 247 595 l 2,20,21
 228 594 228 594 211 590 c 128,-1,22
 194 586 194 586 177 578 c 0,23,24
 175 576 175 576 173 574.5 c 128,-1,25
 171 573 171 573 169 571 c 0,26,27
 166 569 166 569 165 567 c 2,28,-1
 126 530 l 2,29,30
 121 524 121 524 112.5 517 c 128,-1,31
 104 510 104 510 93.5 504.5 c 128,-1,32
 83 499 83 499 70 497.5 c 128,-1,33
 57 496 57 496 42 502 c 0,34,35
 30 508 30 508 26 519.5 c 128,-1,36
 22 531 22 531 23.5 544 c 128,-1,37
 25 557 25 557 30.5 570.5 c 128,-1,38
 36 584 36 584 43 594 c 0,39,40
 62 623 62 623 79.5 643 c 128,-1,41
 97 663 97 663 119 675 c 128,-1,42
 141 687 141 687 169.5 692 c 128,-1,43
 198 697 198 697 238 697 c 0,44,45
 326 697 326 697 371.5 651.5 c 128,-1,46
 417 606 417 606 420 523 c 0,47,48
 421 491 421 491 410.5 464.5 c 128,-1,49
 400 438 400 438 382 416 c 128,-1,50
 364 394 364 394 341.5 376.5 c 128,-1,51
 319 359 319 359 296 344 c 128,-1,52
 273 329 273 329 252.5 316 c 128,-1,53
 232 303 232 303 219 291 c 1,54,55
 222 243 222 243 222 212.5 c 128,-1,56
 222 182 222 182 220 163.5 c 128,-1,57
 218 145 218 145 215.5 134 c 128,-1,58
 213 123 213 123 212 113 c 1,59,60
 201 110 201 110 188 108.5 c 128,-1,61
 175 107 175 107 161 106 c 0,0,1
162 -22 m 0,62,63
 130 -24 130 -24 117.5 -10.5 c 128,-1,64
 105 3 105 3 105 22 c 0,65,66
 105 29 105 29 106.5 38 c 128,-1,67
 108 47 108 47 115.5 56 c 128,-1,68
 123 65 123 65 138 71 c 128,-1,69
 153 77 153 77 180 78 c 1,70,71
 200 74 200 74 212.5 63 c 128,-1,72
 225 52 225 52 225 35 c 0,73,74
 225 27 225 27 223.5 18 c 128,-1,75
 222 9 222 9 216 1 c 128,-1,76
 210 -7 210 -7 197 -13.5 c 128,-1,77
 184 -20 184 -20 162 -22 c 0,62,63
168 572 m 0,78,79
 169 573 169 573 169.5 573 c 128,-1,80
 170 573 170 573 171 574 c 1,81,82
 169 573 169 573 167.5 572 c 128,-1,83
 166 571 166 571 168 572 c 0,78,79
EndSplineSet
EndChar

StartChar: at
Encoding: 64 64 35
Width: 656
GlyphClass: 2
Flags: W
LayerCount: 2
Back
Fore
SplineSet
310 453 m 1,0,1
 326 453 326 453 337 447 c 1,2,3
 349 451 349 451 365 447 c 0,4,5
 370 443 370 443 374 440 c 128,-1,6
 378 437 378 437 382 434 c 0,7,8
 384 435 384 435 386.5 436 c 128,-1,9
 389 437 389 437 392 437 c 0,10,11
 399 447 399 447 409.5 451.5 c 128,-1,12
 420 456 420 456 430.5 454 c 128,-1,13
 441 452 441 452 450 444 c 128,-1,14
 459 436 459 436 463 421 c 1,15,16
 463 394 463 394 460.5 367 c 128,-1,17
 458 340 458 340 456.5 313.5 c 128,-1,18
 455 287 455 287 456 260.5 c 128,-1,19
 457 234 457 234 463 207 c 1,20,-1
 489 146 l 1,21,22
 512 168 512 168 525.5 199 c 128,-1,23
 539 230 539 230 545 262.5 c 128,-1,24
 551 295 551 295 551 324.5 c 128,-1,25
 551 354 551 354 547 374 c 0,26,27
 539 422 539 422 523 450.5 c 128,-1,28
 507 479 507 479 490.5 496 c 128,-1,29
 474 513 474 513 460.5 521.5 c 128,-1,30
 447 530 447 530 443 537 c 0,31,32
 429 548 429 548 414.5 557 c 128,-1,33
 400 566 400 566 379 571.5 c 128,-1,34
 358 577 358 577 327 576.5 c 128,-1,35
 296 576 296 576 248 567 c 1,36,37
 228 556 228 556 212.5 549 c 128,-1,38
 197 542 197 542 184 534 c 1,39,40
 169 517 169 517 159 502 c 0,41,42
 127 451 127 451 110 382 c 128,-1,43
 93 313 93 313 93 241 c 0,44,45
 96 209 96 209 102 177 c 128,-1,46
 108 145 108 145 119 116 c 0,47,48
 142 56 142 56 177.5 18 c 128,-1,49
 213 -20 213 -20 273 -39 c 0,50,51
 292 -45 292 -45 310 -41.5 c 128,-1,52
 328 -38 328 -38 344 -29.5 c 128,-1,53
 360 -21 360 -21 374.5 -10 c 128,-1,54
 389 1 389 1 401 10 c 0,55,56
 416 21 416 21 427.5 24.5 c 128,-1,57
 439 28 439 28 456 32 c 0,58,59
 473 33 473 33 484 25.5 c 128,-1,60
 495 18 495 18 500 7 c 0,61,62
 506 -36 506 -36 489 -66 c 128,-1,63
 472 -96 472 -96 440 -113.5 c 128,-1,64
 408 -131 408 -131 367 -136.5 c 128,-1,65
 326 -142 326 -142 285 -136 c 128,-1,66
 244 -130 244 -130 207 -113.5 c 128,-1,67
 170 -97 170 -97 147 -69 c 0,68,69
 98 -9 98 -9 72.5 55 c 128,-1,70
 47 119 47 119 43 200 c 1,71,72
 35 255 35 255 38.5 306 c 128,-1,73
 42 357 42 357 56 398 c 0,74,75
 64 419 64 419 71 439.5 c 128,-1,76
 78 460 78 460 86 480 c 256,77,78
 94 500 94 500 108 516.5 c 128,-1,79
 122 533 122 533 135 550 c 0,80,81
 139 555 139 555 144.5 559.5 c 128,-1,82
 150 564 150 564 156 569 c 256,83,84
 162 574 162 574 168.5 579.5 c 128,-1,85
 175 585 175 585 182 590 c 0,86,87
 231 629 231 629 283 639.5 c 128,-1,88
 335 650 335 650 384 639 c 128,-1,89
 433 628 433 628 476 597.5 c 128,-1,90
 519 567 519 567 551 524 c 128,-1,91
 583 481 583 481 601 428.5 c 128,-1,92
 619 376 619 376 618 320.5 c 128,-1,93
 617 265 617 265 593.5 209 c 128,-1,94
 570 153 570 153 519 104 c 0,95,96
 508 90 508 90 489 82.5 c 128,-1,97
 470 75 470 75 452 80 c 0,98,99
 432 85 432 85 418 95 c 128,-1,100
 404 105 404 105 393 119 c 1,101,102
 383 102 383 102 368.5 87.5 c 128,-1,103
 354 73 354 73 336 66 c 0,104,105
 324 61 324 61 310.5 64 c 128,-1,106
 297 67 297 67 284 68 c 0,107,108
 268 69 268 69 252 79 c 128,-1,109
 236 89 236 89 227 102 c 0,110,111
 219 114 219 114 210.5 125 c 128,-1,112
 202 136 202 136 198 150 c 0,113,114
 189 182 189 182 183.5 223 c 128,-1,115
 178 264 178 264 182.5 304.5 c 128,-1,116
 187 345 187 345 204 379.5 c 128,-1,117
 221 414 221 414 256 434 c 0,118,119
 269 441 269 441 282.5 444.5 c 128,-1,120
 296 448 296 448 310 453 c 1,0,1
361 177 m 0,121,122
 361 180 361 180 363 184 c 0,123,124
 356 212 356 212 354 241 c 0,125,126
 352 266 352 266 353.5 291.5 c 128,-1,127
 355 317 355 317 357 342 c 1,128,129
 346 363 346 363 329 375 c 1,130,131
 320 374 320 374 311 373 c 128,-1,132
 302 372 302 372 293 368 c 0,133,134
 266 355 266 355 250.5 317 c 128,-1,135
 235 279 235 279 233.5 236 c 128,-1,136
 232 193 232 193 245.5 156 c 128,-1,137
 259 119 259 119 290 108 c 0,138,139
 306 102 306 102 318.5 108 c 128,-1,140
 331 114 331 114 339.5 125.5 c 128,-1,141
 348 137 348 137 353 151.5 c 128,-1,142
 358 166 358 166 361 177 c 0,121,122
EndSplineSet
EndChar

StartChar: A
Encoding: 65 65 36
Width: 681
GlyphClass: 2
Flags: W
LayerCount: 2
Back
Fore
SplineSet
417 186 m 0,0,1
 405 206 405 206 390 213 c 128,-1,2
 375 220 375 220 355.5 219 c 128,-1,3
 336 218 336 218 310.5 211.5 c 128,-1,4
 285 205 285 205 252 198 c 1,5,6
 229 176 229 176 212.5 145.5 c 128,-1,7
 196 115 196 115 180.5 85 c 128,-1,8
 165 55 165 55 147.5 29 c 128,-1,9
 130 3 130 3 103 -10 c 1,10,11
 87 -30 87 -30 64.5 -25.5 c 128,-1,12
 42 -21 42 -21 35 2 c 1,13,14
 22 7 22 7 15 20 c 128,-1,15
 8 33 8 33 12 52 c 1,16,17
 79 116 79 116 122 192 c 128,-1,18
 165 268 165 268 197.5 350 c 128,-1,19
 230 432 230 432 258 516.5 c 128,-1,20
 286 601 286 601 322 682 c 0,21,22
 322 685 322 685 323 687.5 c 128,-1,23
 324 690 324 690 325 694 c 2,24,-1
 326 693 l 1,25,26
 331 699 331 699 338 701.5 c 128,-1,27
 345 704 345 704 350.5 702 c 128,-1,28
 356 700 356 700 360 694.5 c 128,-1,29
 364 689 364 689 363 680 c 0,30,31
 363 679 363 679 362 679 c 1,32,33
 372 671 372 671 379 653 c 1,34,35
 390 572 390 572 413.5 489.5 c 128,-1,36
 437 407 437 407 471.5 328 c 128,-1,37
 506 249 506 249 550.5 176 c 128,-1,38
 595 103 595 103 648 41 c 1,39,40
 665 29 665 29 668 13.5 c 128,-1,41
 671 -2 671 -2 664 -14.5 c 128,-1,42
 657 -27 657 -27 642 -32 c 128,-1,43
 627 -37 627 -37 608 -28 c 0,44,45
 590 -15 590 -15 570 -0.5 c 128,-1,46
 550 14 550 14 526.5 37 c 128,-1,47
 503 60 503 60 476 95 c 128,-1,48
 449 130 449 130 417 186 c 0,0,1
338 489 m 1,49,50
 328 456 328 456 321 428 c 128,-1,51
 314 400 314 400 306 374 c 128,-1,52
 298 348 298 348 288.5 323.5 c 128,-1,53
 279 299 279 299 265 275 c 1,54,55
 288 277 288 277 317.5 280.5 c 128,-1,56
 347 284 347 284 375 295 c 1,57,58
 365 316 365 316 360 338 c 128,-1,59
 355 360 355 360 352 384 c 128,-1,60
 349 408 349 408 346.5 434 c 128,-1,61
 344 460 344 460 338 489 c 1,49,50
EndSplineSet
EndChar

StartChar: B
Encoding: 66 66 37
Width: 484
GlyphClass: 2
Flags: W
LayerCount: 2
Back
Fore
SplineSet
23 696 m 1,0,1
 40 704 40 704 69.5 709.5 c 128,-1,2
 99 715 99 715 135.5 716 c 128,-1,3
 172 717 172 717 211.5 714.5 c 128,-1,4
 251 712 251 712 287 704 c 128,-1,5
 323 696 323 696 353 682 c 128,-1,6
 383 668 383 668 401 648 c 0,7,8
 432 611 432 611 443.5 574 c 128,-1,9
 455 537 455 537 451 501.5 c 128,-1,10
 447 466 447 466 429 433 c 128,-1,11
 411 400 411 400 384 370 c 1,12,13
 409 346 409 346 432 325.5 c 128,-1,14
 455 305 455 305 470 279 c 128,-1,15
 485 253 485 253 491 217.5 c 128,-1,16
 497 182 497 182 488 127 c 0,17,18
 482 91 482 91 456 68 c 128,-1,19
 430 45 430 45 392 30 c 128,-1,20
 354 15 354 15 309 6 c 128,-1,21
 264 -3 264 -3 222 -10 c 128,-1,22
 180 -17 180 -17 144.5 -24 c 128,-1,23
 109 -31 109 -31 90 -42 c 1,24,25
 73 -45 73 -45 60.5 -38.5 c 128,-1,26
 48 -32 48 -32 42.5 -21.5 c 128,-1,27
 37 -11 37 -11 38.5 2 c 128,-1,28
 40 15 40 15 51 26 c 1,29,30
 56 43 56 43 64 53.5 c 128,-1,31
 72 64 72 64 74 81 c 0,32,33
 77 95 77 95 77.5 111.5 c 128,-1,34
 78 128 78 128 77 155 c 128,-1,35
 76 182 76 182 72 223.5 c 128,-1,36
 68 265 68 265 61.5 329 c 128,-1,37
 55 393 55 393 45.5 482.5 c 128,-1,38
 36 572 36 572 23 696 c 1,0,1
176 306 m 1,39,40
 181 279 181 279 185 254.5 c 128,-1,41
 189 230 189 230 191.5 204 c 128,-1,42
 194 178 194 178 193.5 148.5 c 128,-1,43
 193 119 193 119 190 82 c 1,44,45
 215 89 215 89 249.5 97 c 128,-1,46
 284 105 284 105 314 121 c 128,-1,47
 344 137 344 137 362 163 c 128,-1,48
 380 189 380 189 371 232 c 0,49,50
 364 263 364 263 345 282.5 c 128,-1,51
 326 302 326 302 299.5 311 c 128,-1,52
 273 320 273 320 242 319 c 128,-1,53
 211 318 211 318 180 310 c 1,54,55
 183 310 183 310 182 309 c 2,56,-1
 176 306 l 1,39,40
141 613 m 1,57,58
 145 584 145 584 148.5 559 c 128,-1,59
 152 534 152 534 155.5 509.5 c 128,-1,60
 159 485 159 485 163 459.5 c 128,-1,61
 167 434 167 434 172 404 c 1,62,63
 190 408 190 408 218 417 c 128,-1,64
 246 426 246 426 271 441.5 c 128,-1,65
 296 457 296 457 310.5 480 c 128,-1,66
 325 503 325 503 315 535 c 0,67,68
 304 569 304 569 286.5 587 c 128,-1,69
 269 605 269 605 246.5 612.5 c 128,-1,70
 224 620 224 620 197 618.5 c 128,-1,71
 170 617 170 617 141 613 c 1,57,58
EndSplineSet
EndChar

StartChar: C
Encoding: 67 67 38
Width: 570
GlyphClass: 2
Flags: W
LayerCount: 2
Back
Fore
SplineSet
149 53 m 1,0,1
 75 124 75 124 45.5 207 c 128,-1,2
 16 290 16 290 22 370.5 c 128,-1,3
 28 451 28 451 66 521.5 c 128,-1,4
 104 592 104 592 164.5 638.5 c 128,-1,5
 225 685 225 685 303.5 700.5 c 128,-1,6
 382 716 382 716 470 686 c 0,7,8
 492 678 492 678 507.5 660 c 128,-1,9
 523 642 523 642 528 621 c 128,-1,10
 533 600 533 600 526 579 c 128,-1,11
 519 558 519 558 496 545 c 1,12,13
 467 539 467 539 450 555 c 128,-1,14
 433 571 433 571 436 592 c 0,15,16
 434 593 434 593 431 594 c 128,-1,17
 428 595 428 595 426 597 c 0,18,19
 403 613 403 613 375.5 616.5 c 128,-1,20
 348 620 348 620 319.5 614.5 c 128,-1,21
 291 609 291 609 265 596 c 128,-1,22
 239 583 239 583 220 568 c 0,23,24
 189 544 189 544 168.5 508 c 128,-1,25
 148 472 148 472 138.5 430 c 128,-1,26
 129 388 129 388 130.5 343.5 c 128,-1,27
 132 299 132 299 145 259 c 128,-1,28
 158 219 158 219 181.5 186.5 c 128,-1,29
 205 154 205 154 240.5 136 c 128,-1,30
 276 118 276 118 322.5 118 c 128,-1,31
 369 118 369 118 427 142 c 0,32,33
 433 147 433 147 439.5 150.5 c 128,-1,34
 446 154 446 154 452 156 c 1,35,36
 461 172 461 172 475 177 c 128,-1,37
 489 182 489 182 503 179 c 128,-1,38
 517 176 517 176 529 166.5 c 128,-1,39
 541 157 541 157 546 144 c 0,40,41
 551 127 551 127 548 114.5 c 128,-1,42
 545 102 545 102 537 87 c 0,43,44
 519 50 519 50 491.5 27.5 c 128,-1,45
 464 5 464 5 430 -5.5 c 128,-1,46
 396 -16 396 -16 358.5 -15.5 c 128,-1,47
 321 -15 321 -15 283.5 -6.5 c 128,-1,48
 246 2 246 2 211.5 17.5 c 128,-1,49
 177 33 177 33 149 53 c 1,0,1
EndSplineSet
EndChar

StartChar: D
Encoding: 68 68 39
Width: 565
GlyphClass: 2
Flags: W
LayerCount: 2
Back
Fore
SplineSet
78 13 m 1,0,1
 43 39 43 39 35 76.5 c 128,-1,2
 27 114 27 114 39 155 c 1,3,4
 59 202 59 202 61 261 c 128,-1,5
 63 320 63 320 56.5 380 c 128,-1,6
 50 440 50 440 40.5 497.5 c 128,-1,7
 31 555 31 555 28 599 c 128,-1,8
 25 643 25 643 34.5 670 c 128,-1,9
 44 697 44 697 75 696 c 1,10,11
 142 705 142 705 208 695 c 128,-1,12
 274 685 274 685 332.5 656.5 c 128,-1,13
 391 628 391 628 439 581 c 128,-1,14
 487 534 487 534 517 469 c 0,15,16
 531 438 531 438 537.5 399.5 c 128,-1,17
 544 361 544 361 542.5 320 c 128,-1,18
 541 279 541 279 531.5 238 c 128,-1,19
 522 197 522 197 505 161 c 0,20,21
 489 127 489 127 463 101.5 c 128,-1,22
 437 76 437 76 405.5 57 c 128,-1,23
 374 38 374 38 339.5 23.5 c 128,-1,24
 305 9 305 9 273 -2 c 0,25,26
 210 -23 210 -23 158 -13 c 0,27,28
 153 -15 153 -15 145 -17 c 0,29,30
 144 -17 144 -17 143 -18 c 128,-1,31
 142 -19 142 -19 140 -20 c 0,32,33
 109 -17 109 -17 96 3 c 1,34,-1
 78 13 l 1,0,1
152 101 m 1,35,36
 211 87 211 87 258 100.5 c 128,-1,37
 305 114 305 114 338.5 146 c 128,-1,38
 372 178 372 178 391.5 223.5 c 128,-1,39
 411 269 411 269 413.5 318.5 c 128,-1,40
 416 368 416 368 401.5 417 c 128,-1,41
 387 466 387 466 353 505 c 128,-1,42
 319 544 319 544 265.5 568.5 c 128,-1,43
 212 593 212 593 136 593 c 1,44,45
 137 538 137 538 144.5 479 c 128,-1,46
 152 420 152 420 158 358 c 128,-1,47
 164 296 164 296 164.5 231.5 c 128,-1,48
 165 167 165 167 152 101 c 1,35,36
EndSplineSet
EndChar

StartChar: E
Encoding: 69 69 40
Width: 532
GlyphClass: 2
Flags: W
LayerCount: 2
Back
Fore
SplineSet
33 3 m 1,0,1
 19 241 19 241 27.5 418.5 c 128,-1,2
 36 596 36 596 59 696 c 1,3,-1
 456 707 l 2,4,5
 479 705 479 705 492 687 c 128,-1,6
 505 669 505 669 507.5 648.5 c 128,-1,7
 510 628 510 628 502 611.5 c 128,-1,8
 494 595 494 595 476 595 c 0,9,10
 436 590 436 590 398.5 589.5 c 128,-1,11
 361 589 361 589 322 590.5 c 128,-1,12
 283 592 283 592 241.5 594 c 128,-1,13
 200 596 200 596 152 598 c 1,14,15
 156 590 156 590 155 567.5 c 128,-1,16
 154 545 154 545 152 516.5 c 128,-1,17
 150 488 150 488 148 457.5 c 128,-1,18
 146 427 146 427 148 402 c 1,19,20
 181 400 181 400 209 400 c 128,-1,21
 237 400 237 400 262.5 400.5 c 128,-1,22
 288 401 288 401 313.5 400.5 c 128,-1,23
 339 400 339 400 369 397 c 0,24,25
 391 393 391 393 399 376.5 c 128,-1,26
 407 360 407 360 404.5 342 c 128,-1,27
 402 324 402 324 391 310.5 c 128,-1,28
 380 297 380 297 364 300 c 1,29,30
 338 296 338 296 305.5 296.5 c 128,-1,31
 273 297 273 297 241 298 c 128,-1,32
 209 299 209 299 182 298.5 c 128,-1,33
 155 298 155 298 141 293 c 1,34,35
 137 255 137 255 136 212.5 c 128,-1,36
 135 170 135 170 130 122 c 0,37,38
 130 119 130 119 128 113 c 1,39,40
 130 113 130 113 131 112 c 0,41,42
 173 108 173 108 206.5 106.5 c 128,-1,43
 240 105 240 105 271.5 105 c 128,-1,44
 303 105 303 105 334 106.5 c 128,-1,45
 365 108 365 108 402 111 c 0,46,47
 446 115 446 115 464 111.5 c 128,-1,48
 482 108 482 108 487.5 98 c 128,-1,49
 493 88 493 88 493.5 71 c 128,-1,50
 494 54 494 54 503 31 c 1,51,52
 503 10 503 10 483 6 c 0,53,54
 452 0 452 0 416.5 -0.5 c 128,-1,55
 381 -1 381 -1 350 -2 c 0,56,57
 316 -2 316 -2 275 -1 c 128,-1,58
 234 0 234 0 191.5 1 c 128,-1,59
 149 2 149 2 108 3 c 128,-1,60
 67 4 67 4 33 3 c 1,0,1
EndSplineSet
EndChar

StartChar: F
Encoding: 70 70 41
Width: 515
GlyphClass: 2
Flags: W
LayerCount: 2
Back
Fore
SplineSet
27 13 m 1,0,1
 19 25 19 25 20.5 74 c 128,-1,2
 22 123 22 123 27 208.5 c 128,-1,3
 32 294 32 294 37 414.5 c 128,-1,4
 42 535 42 535 42 690 c 1,5,6
 74 699 74 699 119.5 699.5 c 128,-1,7
 165 700 165 700 221.5 698 c 128,-1,8
 278 696 278 696 344 693 c 128,-1,9
 410 690 410 690 482 690 c 0,10,11
 496 690 496 690 500 679.5 c 128,-1,12
 504 669 504 669 503 655 c 128,-1,13
 502 641 502 641 499 626.5 c 128,-1,14
 496 612 496 612 497 604 c 1,15,16
 416 593 416 593 332 591 c 128,-1,17
 248 589 248 589 152 588 c 1,18,19
 144 542 144 542 140.5 498.5 c 128,-1,20
 137 455 137 455 139 406 c 1,21,22
 172 404 172 404 198 401.5 c 128,-1,23
 224 399 224 399 248.5 398 c 128,-1,24
 273 397 273 397 299 398 c 128,-1,25
 325 399 325 399 358 404 c 1,26,27
 391 371 391 371 399 349.5 c 128,-1,28
 407 328 407 328 398.5 315.5 c 128,-1,29
 390 303 390 303 368 297.5 c 128,-1,30
 346 292 346 292 318 291 c 128,-1,31
 290 290 290 290 259 291.5 c 128,-1,32
 228 293 228 293 202.5 295 c 128,-1,33
 177 297 177 297 159.5 297 c 128,-1,34
 142 297 142 297 141 293 c 0,35,36
 136 256 136 256 135.5 219 c 128,-1,37
 135 182 135 182 134.5 144.5 c 128,-1,38
 134 107 134 107 130 69.5 c 128,-1,39
 126 32 126 32 116 -5 c 1,40,41
 111 -5 111 -5 107.5 -5.5 c 128,-1,42
 104 -6 104 -6 99 -6 c 0,43,44
 87 -5 87 -5 73.5 -5 c 128,-1,45
 60 -5 60 -5 49 -3.5 c 128,-1,46
 38 -2 38 -2 31.5 1.5 c 128,-1,47
 25 5 25 5 27 13 c 1,0,1
EndSplineSet
EndChar

StartChar: G
Encoding: 71 71 42
Width: 598
GlyphClass: 2
Flags: W
LayerCount: 2
Back
Fore
SplineSet
299 280 m 1,0,1
 293 293 293 293 293.5 307.5 c 128,-1,2
 294 322 294 322 299.5 335 c 128,-1,3
 305 348 305 348 313.5 358 c 128,-1,4
 322 368 322 368 333 372 c 0,5,6
 343 375 343 375 363 374.5 c 128,-1,7
 383 374 383 374 406.5 371.5 c 128,-1,8
 430 369 430 369 453.5 365 c 128,-1,9
 477 361 477 361 494 358 c 0,10,11
 520 353 520 353 533 349 c 128,-1,12
 546 345 546 345 551.5 337 c 128,-1,13
 557 329 557 329 557.5 314 c 128,-1,14
 558 299 558 299 559 273 c 0,15,16
 562 226 562 226 556.5 175.5 c 128,-1,17
 551 125 551 125 531 83 c 128,-1,18
 511 41 511 41 472 14 c 128,-1,19
 433 -13 433 -13 368 -13 c 0,20,21
 264 -13 264 -13 194 24 c 128,-1,22
 124 61 124 61 83.5 119.5 c 128,-1,23
 43 178 43 178 31 251.5 c 128,-1,24
 19 325 19 325 32 398.5 c 128,-1,25
 45 472 45 472 81 537.5 c 128,-1,26
 117 603 117 603 173.5 646.5 c 128,-1,27
 230 690 230 690 305 703.5 c 128,-1,28
 380 717 380 717 470 686 c 0,29,30
 492 678 492 678 507.5 660 c 128,-1,31
 523 642 523 642 528 621 c 128,-1,32
 533 600 533 600 526 579 c 128,-1,33
 519 558 519 558 496 545 c 1,34,35
 467 539 467 539 450 555 c 128,-1,36
 433 571 433 571 436 592 c 0,37,38
 434 593 434 593 431.5 594 c 128,-1,39
 429 595 429 595 426 597 c 0,40,41
 377 629 377 629 335 631 c 128,-1,42
 293 633 293 633 259.5 613.5 c 128,-1,43
 226 594 226 594 201.5 557 c 128,-1,44
 177 520 177 520 163 474 c 128,-1,45
 149 428 149 428 145 377 c 128,-1,46
 141 326 141 326 149 279.5 c 128,-1,47
 157 233 157 233 178 195 c 128,-1,48
 199 157 199 157 233 135.5 c 128,-1,49
 267 114 267 114 315 113.5 c 128,-1,50
 363 113 363 113 427 142 c 1,51,52
 451 180 451 180 455 204 c 128,-1,53
 459 228 459 228 449.5 242.5 c 128,-1,54
 440 257 440 257 421 264 c 128,-1,55
 402 271 402 271 379.5 274 c 128,-1,56
 357 277 357 277 335 277.5 c 128,-1,57
 313 278 313 278 299 280 c 1,0,1
EndSplineSet
EndChar

StartChar: H
Encoding: 72 72 43
Width: 623
GlyphClass: 2
Flags: W
LayerCount: 2
Back
Fore
SplineSet
454 686 m 0,0,1
 456 696 456 696 470 705 c 128,-1,2
 484 714 484 714 502 717.5 c 128,-1,3
 520 721 520 721 538.5 719 c 128,-1,4
 557 717 557 717 569 707 c 1,5,6
 592 579 592 579 589 472.5 c 128,-1,7
 586 366 586 366 577 282 c 128,-1,8
 568 198 568 198 565 137.5 c 128,-1,9
 562 77 562 77 585 40 c 0,10,11
 591 26 591 26 577.5 16 c 128,-1,12
 564 6 564 6 542.5 0.5 c 128,-1,13
 521 -5 521 -5 498 -5 c 128,-1,14
 475 -5 475 -5 464 1 c 0,15,16
 456 4 456 4 449.5 10.5 c 128,-1,17
 443 17 443 17 439.5 25 c 128,-1,18
 436 33 436 33 436.5 41.5 c 128,-1,19
 437 50 437 50 445 58 c 1,20,21
 447 98 447 98 447 133.5 c 128,-1,22
 447 169 447 169 445.5 202.5 c 128,-1,23
 444 236 444 236 441.5 268.5 c 128,-1,24
 439 301 439 301 437 335 c 1,25,26
 378 337 378 337 309 339.5 c 128,-1,27
 240 342 240 342 177 337 c 1,28,29
 177 313 177 313 178.5 277.5 c 128,-1,30
 180 242 180 242 181 198.5 c 128,-1,31
 182 155 182 155 180 106.5 c 128,-1,32
 178 58 178 58 172 8 c 1,33,34
 134 -4 134 -4 108 -3 c 128,-1,35
 82 -2 82 -2 48 5 c 1,36,37
 44 25 44 25 42 74 c 128,-1,38
 40 123 40 123 40 188.5 c 128,-1,39
 40 254 40 254 42.5 329 c 128,-1,40
 45 404 45 404 49 474 c 128,-1,41
 53 544 53 544 60 603 c 128,-1,42
 67 662 67 662 76 696 c 1,43,44
 90 699 90 699 103.5 703.5 c 128,-1,45
 117 708 117 708 130.5 709.5 c 128,-1,46
 144 711 144 711 157.5 707 c 128,-1,47
 171 703 171 703 184 689 c 0,48,49
 201 671 201 671 201.5 641.5 c 128,-1,50
 202 612 202 612 197 577.5 c 128,-1,51
 192 543 192 543 187.5 507 c 128,-1,52
 183 471 183 471 189 438 c 1,53,54
 196 439 196 439 202 439.5 c 128,-1,55
 208 440 208 440 217 440 c 0,56,57
 274 444 274 444 329.5 440 c 128,-1,58
 385 436 385 436 444 429 c 1,59,60
 453 464 453 464 454 499.5 c 128,-1,61
 455 535 455 535 453.5 568.5 c 128,-1,62
 452 602 452 602 450.5 632 c 128,-1,63
 449 662 449 662 454 686 c 0,0,1
EndSplineSet
EndChar

StartChar: I
Encoding: 73 73 44
Width: 202
GlyphClass: 2
Flags: W
LayerCount: 2
Back
Fore
SplineSet
69 3 m 0,0,1
 66 80 66 80 58 170 c 128,-1,2
 50 260 50 260 44 353 c 128,-1,3
 38 446 38 446 38 535.5 c 128,-1,4
 38 625 38 625 50 702 c 1,5,6
 57 712 57 712 75.5 716.5 c 128,-1,7
 94 721 94 721 114 721 c 128,-1,8
 134 721 134 721 150.5 718.5 c 128,-1,9
 167 716 167 716 170 714 c 0,10,11
 162 642 162 642 163 556 c 128,-1,12
 164 470 164 470 165.5 377.5 c 128,-1,13
 167 285 167 285 165.5 192 c 128,-1,14
 164 99 164 99 153 14 c 0,15,16
 152 5 152 5 139 -3.5 c 128,-1,17
 126 -12 126 -12 111 -16 c 128,-1,18
 96 -20 96 -20 83 -16.5 c 128,-1,19
 70 -13 70 -13 69 3 c 0,0,1
EndSplineSet
EndChar

StartChar: J
Encoding: 74 74 45
Width: 416
GlyphClass: 2
Flags: W
LayerCount: 2
Back
Fore
SplineSet
284 558 m 0,0,1
 284 569 284 569 268.5 572.5 c 128,-1,2
 253 576 253 576 230.5 577.5 c 128,-1,3
 208 579 208 579 182 579.5 c 128,-1,4
 156 580 156 580 134 584 c 128,-1,5
 112 588 112 588 97.5 598 c 128,-1,6
 83 608 83 608 83 627 c 0,7,8
 89 655 89 655 104.5 664.5 c 128,-1,9
 120 674 120 674 140.5 672.5 c 128,-1,10
 161 671 161 671 185 664.5 c 128,-1,11
 209 658 209 658 232.5 653.5 c 128,-1,12
 256 649 256 649 278 652.5 c 128,-1,13
 300 656 300 656 316 675 c 1,14,15
 321 693 321 693 333 701 c 128,-1,16
 345 709 345 709 357.5 708 c 128,-1,17
 370 707 370 707 381 697.5 c 128,-1,18
 392 688 392 688 395 670 c 1,19,20
 382 645 382 645 378.5 607.5 c 128,-1,21
 375 570 375 570 376 524.5 c 128,-1,22
 377 479 377 479 380.5 428 c 128,-1,23
 384 377 384 377 386 325.5 c 128,-1,24
 388 274 388 274 386.5 225 c 128,-1,25
 385 176 385 176 376 134.5 c 128,-1,26
 367 93 367 93 347.5 61 c 128,-1,27
 328 29 328 29 295 12 c 0,28,29
 270 -2 270 -2 233 -7.5 c 128,-1,30
 196 -13 196 -13 158.5 -10 c 128,-1,31
 121 -7 121 -7 89.5 5.5 c 128,-1,32
 58 18 58 18 45 40 c 0,33,34
 36 54 36 54 32 69 c 128,-1,35
 28 84 28 84 26 98 c 0,36,37
 24 111 24 111 26.5 129.5 c 128,-1,38
 29 148 29 148 35.5 164.5 c 128,-1,39
 42 181 42 181 53 192.5 c 128,-1,40
 64 204 64 204 80 203 c 0,41,42
 101 200 101 200 110 195.5 c 128,-1,43
 119 191 119 191 122 184 c 128,-1,44
 125 177 125 177 124 166 c 128,-1,45
 123 155 123 155 123 140 c 0,46,47
 123 109 123 109 142 93 c 128,-1,48
 161 77 161 77 186.5 75 c 128,-1,49
 212 73 212 73 237 85.5 c 128,-1,50
 262 98 262 98 274 124 c 0,51,52
 294 170 294 170 299 224 c 128,-1,53
 304 278 304 278 301.5 334.5 c 128,-1,54
 299 391 299 391 292.5 448 c 128,-1,55
 286 505 286 505 284 558 c 0,0,1
EndSplineSet
EndChar

StartChar: K
Encoding: 75 75 46
Width: 550
GlyphClass: 2
Flags: W
LayerCount: 2
Back
Fore
SplineSet
516 66 m 1,0,1
 528 17 528 17 522 0 c 128,-1,2
 516 -17 516 -17 501 -23.5 c 128,-1,3
 486 -30 486 -30 466 -20 c 1,4,5
 446 -4 446 -4 431 15 c 128,-1,6
 416 34 416 34 402 54.5 c 128,-1,7
 388 75 388 75 375 95.5 c 128,-1,8
 362 116 362 116 340 144.5 c 128,-1,9
 318 173 318 173 286 206.5 c 128,-1,10
 254 240 254 240 225 276 c 1,11,12
 211 259 211 259 195.5 243.5 c 128,-1,13
 180 228 180 228 164 219 c 0,14,15
 150 212 150 212 152.5 160 c 128,-1,16
 155 108 155 108 172.5 58.5 c 128,-1,17
 190 9 190 9 178 -1 c 0,18,19
 168 -9 168 -9 121 -10 c 128,-1,20
 74 -11 74 -11 53.5 -4.5 c 128,-1,21
 33 2 33 2 30 19 c 1,22,23
 35 27 35 27 39 35 c 128,-1,24
 43 43 43 43 50 69 c 128,-1,25
 57 95 57 95 60.5 135.5 c 128,-1,26
 64 176 64 176 63 255 c 128,-1,27
 62 334 62 334 61 393.5 c 128,-1,28
 60 453 60 453 48 685 c 1,29,30
 52 707 52 707 66.5 716.5 c 128,-1,31
 81 726 81 726 97 721 c 1,32,33
 112 729 112 729 128 721.5 c 128,-1,34
 144 714 144 714 152 692 c 0,35,36
 154 689 154 689 154.5 667 c 128,-1,37
 155 645 155 645 157.5 537.5 c 128,-1,38
 160 430 160 430 156 395.5 c 128,-1,39
 152 361 152 361 150 326 c 0,40,41
 150 321 150 321 150.5 316.5 c 128,-1,42
 151 312 151 312 152 307 c 1,43,44
 177 329 177 329 199.5 361.5 c 128,-1,45
 222 394 222 394 237.5 411 c 128,-1,46
 253 428 253 428 285 464 c 128,-1,47
 317 500 317 500 343.5 532.5 c 128,-1,48
 370 565 370 565 392 590 c 128,-1,49
 414 615 414 615 424 623.5 c 128,-1,50
 434 632 434 632 443.5 634.5 c 128,-1,51
 453 637 453 637 465.5 635 c 128,-1,52
 478 633 478 633 500 631 c 2,53,-1
 505 631 l 2,54,55
 514 629 514 629 518.5 623.5 c 128,-1,56
 523 618 523 618 524 611 c 128,-1,57
 525 604 525 604 522 597.5 c 128,-1,58
 519 591 519 591 512 587 c 0,59,60
 506 581 506 581 491.5 568 c 128,-1,61
 477 555 477 555 460.5 541 c 128,-1,62
 444 527 444 527 412 498 c 0,63,64
 391 478 391 478 372.5 455.5 c 128,-1,65
 354 433 354 433 312 382 c 1,66,67
 312 370 312 370 301 356.5 c 128,-1,68
 290 343 290 343 279 335 c 1,69,70
 286 319 286 319 308 294 c 128,-1,71
 330 269 330 269 360.5 237 c 128,-1,72
 391 205 391 205 426 167.5 c 128,-1,73
 461 130 461 130 516 66 c 1,0,1
EndSplineSet
EndChar

StartChar: L
Encoding: 76 76 47
Width: 482
GlyphClass: 2
Flags: W
LayerCount: 2
Back
Fore
SplineSet
435 1 m 0,0,1
 379 3 379 3 310 1.5 c 128,-1,2
 241 0 241 0 177 5 c 1,3,4
 139 -11 139 -11 106.5 -9.5 c 128,-1,5
 74 -8 74 -8 54.5 6 c 128,-1,6
 35 20 35 20 32.5 44 c 128,-1,7
 30 68 30 68 52 97 c 1,8,9
 56 155 56 155 55.5 231.5 c 128,-1,10
 55 308 55 308 53 390 c 128,-1,11
 51 472 51 472 47.5 552.5 c 128,-1,12
 44 633 44 633 42 699 c 1,13,14
 72 713 72 713 95.5 709.5 c 128,-1,15
 119 706 119 706 136 690 c 128,-1,16
 153 674 153 674 162.5 650 c 128,-1,17
 172 626 172 626 174 600 c 0,18,19
 179 531 179 531 178.5 470.5 c 128,-1,20
 178 410 178 410 174 350.5 c 128,-1,21
 170 291 170 291 164 229.5 c 128,-1,22
 158 168 158 168 152 99 c 1,23,24
 188 94 188 94 232.5 97 c 128,-1,25
 277 100 277 100 318.5 105.5 c 128,-1,26
 360 111 360 111 394.5 114.5 c 128,-1,27
 429 118 429 118 446 113 c 0,28,29
 462 107 462 107 469 89.5 c 128,-1,30
 476 72 476 72 474.5 53.5 c 128,-1,31
 473 35 473 35 463 19.5 c 128,-1,32
 453 4 453 4 435 1 c 0,0,1
EndSplineSet
EndChar

StartChar: M
Encoding: 77 77 48
Width: 573
GlyphClass: 2
Flags: W
LayerCount: 2
Back
Fore
SplineSet
322 304 m 1,0,1
 304 282 304 282 301 282 c 256,2,3
 298 282 298 282 295.5 289 c 128,-1,4
 293 296 293 296 282 304 c 0,5,6
 274 311 274 311 261 331 c 128,-1,7
 248 351 248 351 233 375.5 c 128,-1,8
 218 400 218 400 202.5 426 c 128,-1,9
 187 452 187 452 174.5 471 c 128,-1,10
 162 490 162 490 154.5 498.5 c 128,-1,11
 147 507 147 507 148 497 c 0,12,13
 152 478 152 478 153.5 470 c 128,-1,14
 155 462 155 462 155.5 454 c 128,-1,15
 156 446 156 446 155 432.5 c 128,-1,16
 154 419 154 419 152.5 389.5 c 128,-1,17
 151 360 151 360 149 308.5 c 128,-1,18
 147 257 147 257 145 174 c 0,19,20
 143 127 143 127 144 93.5 c 128,-1,21
 145 60 145 60 142 38.5 c 128,-1,22
 139 17 139 17 129 6 c 128,-1,23
 119 -5 119 -5 95 -7 c 0,24,25
 70 -8 70 -8 55 4 c 128,-1,26
 40 16 40 16 36 33 c 0,27,28
 30 116 30 116 32.5 196 c 128,-1,29
 35 276 35 276 38 354.5 c 128,-1,30
 41 433 41 433 41.5 510.5 c 128,-1,31
 42 588 42 588 33 666 c 0,32,33
 33 685 33 685 46 695 c 128,-1,34
 59 705 59 705 77.5 708 c 128,-1,35
 96 711 96 711 115.5 708 c 128,-1,36
 135 705 135 705 147 697 c 0,37,38
 155 687 155 687 161 673 c 0,39,40
 161 671 161 671 162 667 c 0,41,42
 168 637 168 637 183.5 608.5 c 128,-1,43
 199 580 199 580 220 553.5 c 128,-1,44
 241 527 241 527 263.5 501.5 c 128,-1,45
 286 476 286 476 306 452 c 1,46,47
 315 461 315 461 320 470 c 128,-1,48
 325 479 325 479 335 490 c 0,49,50
 356 515 356 515 378 546.5 c 128,-1,51
 400 578 400 578 417.5 607.5 c 128,-1,52
 435 637 435 637 444.5 661 c 128,-1,53
 454 685 454 685 450 696 c 0,54,55
 452 701 452 701 455.5 704.5 c 128,-1,56
 459 708 459 708 464 713 c 0,57,58
 467 715 467 715 468 716.5 c 128,-1,59
 469 718 469 718 469 718.5 c 128,-1,60
 469 719 469 719 470 719.5 c 128,-1,61
 471 720 471 720 475 720 c 0,62,63
 486 720 486 720 499.5 717 c 128,-1,64
 513 714 513 714 525 708 c 128,-1,65
 537 702 537 702 546 693 c 128,-1,66
 555 684 555 684 556 672 c 0,67,68
 552 604 552 604 551.5 543 c 128,-1,69
 551 482 551 482 552 423.5 c 128,-1,70
 553 365 553 365 554.5 305 c 128,-1,71
 556 245 556 245 556 179 c 0,72,73
 556 148 556 148 556.5 115 c 128,-1,74
 557 82 557 82 555.5 55 c 128,-1,75
 554 28 554 28 550 11 c 128,-1,76
 546 -6 546 -6 538 -6 c 0,77,78
 521 -6 521 -6 503.5 -5 c 128,-1,79
 486 -4 486 -4 471.5 1.5 c 128,-1,80
 457 7 457 7 447.5 19 c 128,-1,81
 438 31 438 31 438 54 c 0,82,83
 438 103 438 103 441.5 152 c 128,-1,84
 445 201 445 201 448.5 248 c 128,-1,85
 452 295 452 295 453.5 338.5 c 128,-1,86
 455 382 455 382 451 421 c 0,87,88
 449 432 449 432 448.5 442.5 c 128,-1,89
 448 453 448 453 446 464 c 1,90,91
 436 443 436 443 418.5 424 c 128,-1,92
 401 405 401 405 382 385.5 c 128,-1,93
 363 366 363 366 346.5 346 c 128,-1,94
 330 326 330 326 322 304 c 1,0,1
EndSplineSet
EndChar

StartChar: N
Encoding: 78 78 49
Width: 540
GlyphClass: 2
Flags: W
LayerCount: 2
Back
Fore
SplineSet
501 73 m 0,0,1
 504 56 504 56 497.5 39 c 128,-1,2
 491 22 491 22 478.5 10.5 c 128,-1,3
 466 -1 466 -1 448.5 -5 c 128,-1,4
 431 -9 431 -9 413 1 c 0,5,6
 407 5 407 5 393 32 c 128,-1,7
 379 59 379 59 360.5 100 c 128,-1,8
 342 141 342 141 320 192.5 c 128,-1,9
 298 244 298 244 276.5 297 c 128,-1,10
 255 350 255 350 234.5 400 c 128,-1,11
 214 450 214 450 198 488.5 c 128,-1,12
 182 527 182 527 172 550 c 128,-1,13
 162 573 162 573 161 572 c 0,14,15
 161 503 161 503 164 447 c 128,-1,16
 167 391 167 391 169.5 337 c 128,-1,17
 172 283 172 283 172.5 226 c 128,-1,18
 173 169 173 169 169 98 c 0,19,20
 167 62 167 62 159 34 c 128,-1,21
 151 6 151 6 135.5 -7.5 c 128,-1,22
 120 -21 120 -21 96 -18 c 128,-1,23
 72 -15 72 -15 36 11 c 1,24,25
 51 87 51 87 55 167 c 128,-1,26
 59 247 59 247 59 327.5 c 128,-1,27
 59 408 59 408 58 488 c 128,-1,28
 57 568 57 568 62 646 c 0,29,30
 63 675 63 675 75 689 c 128,-1,31
 87 703 87 703 103.5 706.5 c 128,-1,32
 120 710 120 710 137.5 706.5 c 128,-1,33
 155 703 155 703 168 697 c 1,34,35
 182 696 182 696 188 688 c 128,-1,36
 194 680 194 680 199 673 c 0,37,38
 225 612 225 612 246 562.5 c 128,-1,39
 267 513 267 513 286 469 c 128,-1,40
 305 425 305 425 324 382.5 c 128,-1,41
 343 340 343 340 365 294 c 0,42,43
 369 284 369 284 373.5 274.5 c 128,-1,44
 378 265 378 265 382 256 c 1,45,46
 391 299 391 299 388.5 354 c 128,-1,47
 386 409 386 409 382 465 c 128,-1,48
 378 521 378 521 378 574 c 128,-1,49
 378 627 378 627 391 666 c 0,50,51
 400 693 400 693 426 706 c 128,-1,52
 452 719 452 719 506 711 c 1,53,54
 507 702 507 702 504.5 665 c 128,-1,55
 502 628 502 628 498 573.5 c 128,-1,56
 494 519 494 519 491 452 c 128,-1,57
 488 385 488 385 487 317 c 128,-1,58
 486 249 486 249 489 185.5 c 128,-1,59
 492 122 492 122 501 73 c 0,0,1
EndSplineSet
EndChar

StartChar: O
Encoding: 79 79 50
Width: 532
GlyphClass: 2
Flags: W
LayerCount: 2
Back
Fore
SplineSet
18 348 m 0,0,1
 22 427 22 427 30 483.5 c 128,-1,2
 38 540 38 540 50.5 579 c 128,-1,3
 63 618 63 618 80.5 642.5 c 128,-1,4
 98 667 98 667 121.5 681 c 128,-1,5
 145 695 145 695 175 701.5 c 128,-1,6
 205 708 205 708 242 711 c 0,7,8
 318 711 318 711 371.5 669.5 c 128,-1,9
 425 628 425 628 457.5 563.5 c 128,-1,10
 490 499 490 499 502.5 420 c 128,-1,11
 515 341 515 341 509 264.5 c 128,-1,12
 503 188 503 188 480 124 c 128,-1,13
 457 60 457 60 418 25 c 0,14,15
 399 7 399 7 368.5 -2 c 128,-1,16
 338 -11 338 -11 304.5 -13.5 c 128,-1,17
 271 -16 271 -16 238.5 -13 c 128,-1,18
 206 -10 206 -10 183 -4 c 0,19,20
 137 9 137 9 107.5 31.5 c 128,-1,21
 78 54 78 54 60.5 83 c 128,-1,22
 43 112 43 112 34.5 145.5 c 128,-1,23
 26 179 26 179 23 214 c 128,-1,24
 20 249 20 249 20 283.5 c 128,-1,25
 20 318 20 318 18 348 c 0,0,1
255 76 m 0,26,27
 279 79 279 79 297 93 c 128,-1,28
 315 107 315 107 328 126.5 c 128,-1,29
 341 146 341 146 350 168.5 c 128,-1,30
 359 191 359 191 366 211 c 0,31,32
 372 229 372 229 375 265.5 c 128,-1,33
 378 302 378 302 377.5 347 c 128,-1,34
 377 392 377 392 371.5 440 c 128,-1,35
 366 488 366 488 355 527 c 128,-1,36
 344 566 344 566 327 591.5 c 128,-1,37
 310 617 310 617 285 618 c 0,38,39
 234 619 234 619 200 596 c 128,-1,40
 166 573 166 573 146.5 534 c 128,-1,41
 127 495 127 495 120.5 445.5 c 128,-1,42
 114 396 114 396 117.5 344 c 128,-1,43
 121 292 121 292 133.5 242.5 c 128,-1,44
 146 193 146 193 164.5 155 c 128,-1,45
 183 117 183 117 206.5 95 c 128,-1,46
 230 73 230 73 255 76 c 0,26,27
EndSplineSet
EndChar

StartChar: P
Encoding: 80 80 51
Width: 469
GlyphClass: 2
Flags: W
LayerCount: 2
Back
Fore
SplineSet
27 11 m 1,0,1
 32 55 32 55 34 118.5 c 128,-1,2
 36 182 36 182 37.5 252.5 c 128,-1,3
 39 323 39 323 39.5 394 c 128,-1,4
 40 465 40 465 41 522.5 c 128,-1,5
 42 580 42 580 43.5 619 c 128,-1,6
 45 658 45 658 48 664 c 2,7,-1
 47 663 l 1,8,9
 58 690 58 690 90.5 698 c 128,-1,10
 123 706 123 706 165 702 c 128,-1,11
 207 698 207 698 253 684 c 128,-1,12
 299 670 299 670 337 654 c 0,13,14
 361 644 361 644 382.5 630.5 c 128,-1,15
 404 617 404 617 420 599 c 128,-1,16
 436 581 436 581 444 557 c 128,-1,17
 452 533 452 533 450 502 c 0,18,19
 447 464 447 464 428 429 c 128,-1,20
 409 394 409 394 377 373 c 0,21,22
 360 363 360 363 327.5 352.5 c 128,-1,23
 295 342 295 342 260 332.5 c 128,-1,24
 225 323 225 323 194 313.5 c 128,-1,25
 163 304 163 304 148 297 c 1,26,27
 145 271 145 271 145 238.5 c 128,-1,28
 145 206 145 206 146 167.5 c 128,-1,29
 147 129 147 129 145.5 87 c 128,-1,30
 144 45 144 45 138 0 c 1,31,32
 126 -4 126 -4 115.5 -6.5 c 128,-1,33
 105 -9 105 -9 92.5 -8 c 128,-1,34
 80 -7 80 -7 64.5 -3 c 128,-1,35
 49 1 49 1 27 11 c 1,0,1
137 606 m 1,36,37
 144 556 144 556 144.5 505.5 c 128,-1,38
 145 455 145 455 148 402 c 1,39,40
 183 408 183 408 215.5 412 c 128,-1,41
 248 416 248 416 272.5 426 c 128,-1,42
 297 436 297 436 311.5 456.5 c 128,-1,43
 326 477 326 477 325 517 c 0,44,45
 324 549 324 549 299.5 567.5 c 128,-1,46
 275 586 275 586 243.5 595 c 128,-1,47
 212 604 212 604 181 605.5 c 128,-1,48
 150 607 150 607 137 606 c 1,36,37
EndSplineSet
EndChar

StartChar: Q
Encoding: 81 81 52
Width: 513
GlyphClass: 2
Flags: W
LayerCount: 2
Back
Fore
SplineSet
172 -162 m 1,0,1
 147 -176 147 -176 134 -171.5 c 128,-1,2
 121 -167 121 -167 116.5 -152 c 128,-1,3
 112 -137 112 -137 114 -115.5 c 128,-1,4
 116 -94 116 -94 122 -74.5 c 128,-1,5
 128 -55 128 -55 135 -41.5 c 128,-1,6
 142 -28 142 -28 148 -29 c 0,7,8
 156 -28 156 -28 163.5 -21.5 c 128,-1,9
 171 -15 171 -15 179 -7 c 1,10,11
 136 -5 136 -5 103.5 27 c 128,-1,12
 71 59 71 59 49.5 110 c 128,-1,13
 28 161 28 161 18.5 225.5 c 128,-1,14
 9 290 9 290 12.5 357.5 c 128,-1,15
 16 425 16 425 34 489.5 c 128,-1,16
 52 554 52 554 84.5 604 c 128,-1,17
 117 654 117 654 165.5 685 c 128,-1,18
 214 716 214 716 280 716 c 0,19,20
 291 716 291 716 312 715.5 c 128,-1,21
 333 715 333 715 357.5 705 c 128,-1,22
 382 695 382 695 407 672 c 128,-1,23
 432 649 432 649 452 603 c 128,-1,24
 472 557 472 557 484 484.5 c 128,-1,25
 496 412 496 412 495 304 c 1,26,27
 499 242 499 242 481 189 c 128,-1,28
 463 136 463 136 432 94.5 c 128,-1,29
 401 53 401 53 362.5 26.5 c 128,-1,30
 324 0 324 0 286 -8 c 1,31,32
 300 -16 300 -16 316 -30.5 c 128,-1,33
 332 -45 332 -45 353.5 -53.5 c 128,-1,34
 375 -62 375 -62 403.5 -57.5 c 128,-1,35
 432 -53 432 -53 471 -23 c 1,36,37
 494 -33 494 -33 498.5 -48 c 128,-1,38
 503 -63 503 -63 495 -79.5 c 128,-1,39
 487 -96 487 -96 470 -112 c 128,-1,40
 453 -128 453 -128 432.5 -141 c 128,-1,41
 412 -154 412 -154 392 -162.5 c 128,-1,42
 372 -171 372 -171 358 -172 c 0,43,44
 343 -173 343 -173 329 -165 c 128,-1,45
 315 -157 315 -157 302.5 -145 c 128,-1,46
 290 -133 290 -133 278.5 -119.5 c 128,-1,47
 267 -106 267 -106 257 -95 c 0,48,49
 256 -95 256 -95 254.5 -94 c 128,-1,50
 253 -93 253 -93 252 -93 c 0,51,52
 245 -92 245 -92 220 -114 c 2,53,-1
 172 -162 l 1,0,1
265 87 m 0,54,55
 294 93 294 93 315.5 116 c 128,-1,56
 337 139 337 139 352.5 171 c 128,-1,57
 368 203 368 203 377.5 240.5 c 128,-1,58
 387 278 387 278 392.5 313 c 128,-1,59
 398 348 398 348 400 377.5 c 128,-1,60
 402 407 402 407 402 423 c 0,61,62
 401 473 401 473 395.5 514.5 c 128,-1,63
 390 556 390 556 372 584 c 128,-1,64
 354 612 354 612 320.5 624 c 128,-1,65
 287 636 287 636 232 627 c 0,66,67
 215 624 215 624 203.5 611 c 128,-1,68
 192 598 192 598 184.5 580.5 c 128,-1,69
 177 563 177 563 172.5 545 c 128,-1,70
 168 527 168 527 165 514 c 0,71,72
 159 487 159 487 152.5 446 c 128,-1,73
 146 405 146 405 142.5 361.5 c 128,-1,74
 139 318 139 318 140.5 278 c 128,-1,75
 142 238 142 238 151 211 c 0,76,77
 157 195 157 195 167.5 171.5 c 128,-1,78
 178 148 178 148 192.5 128 c 128,-1,79
 207 108 207 108 225.5 95 c 128,-1,80
 244 82 244 82 265 87 c 0,54,55
EndSplineSet
EndChar

StartChar: R
Encoding: 82 82 53
Width: 510
GlyphClass: 2
Flags: W
LayerCount: 2
Back
Fore
SplineSet
151 295 m 2,0,1
 150 296 150 296 149.5 296 c 128,-1,2
 149 296 149 296 148 297 c 2,3,-1
 138 0 l 1,4,5
 126 -4 126 -4 115.5 -6.5 c 128,-1,6
 105 -9 105 -9 92.5 -8 c 128,-1,7
 80 -7 80 -7 64.5 -3 c 128,-1,8
 49 1 49 1 27 11 c 1,9,10
 32 55 32 55 34 118.5 c 128,-1,11
 36 182 36 182 37.5 252.5 c 128,-1,12
 39 323 39 323 39.5 394 c 128,-1,13
 40 465 40 465 41 522.5 c 128,-1,14
 42 580 42 580 43.5 619 c 128,-1,15
 45 658 45 658 48 664 c 2,16,-1
 47 663 l 1,17,18
 58 690 58 690 90.5 698 c 128,-1,19
 123 706 123 706 165 702 c 128,-1,20
 207 698 207 698 253 684 c 128,-1,21
 299 670 299 670 337 654 c 0,22,23
 361 644 361 644 382.5 630.5 c 128,-1,24
 404 617 404 617 420 599 c 128,-1,25
 436 581 436 581 444 557 c 128,-1,26
 452 533 452 533 450 502 c 0,27,28
 447 464 447 464 428 429 c 128,-1,29
 409 394 409 394 377 373 c 0,30,31
 366 367 366 367 355.5 361.5 c 128,-1,32
 345 356 345 356 333 351 c 128,-1,33
 321 346 321 346 306 341 c 128,-1,34
 291 336 291 336 270 330 c 1,35,-1
 352 155 l 2,36,37
 369 123 369 123 380 104 c 128,-1,38
 391 85 391 85 397 74 c 128,-1,39
 403 63 403 63 406 57 c 128,-1,40
 409 51 409 51 411 47 c 0,41,42
 417 31 417 31 414.5 18.5 c 128,-1,43
 412 6 412 6 404 -2 c 128,-1,44
 396 -10 396 -10 383.5 -12.5 c 128,-1,45
 371 -15 371 -15 357 -10 c 1,46,-1
 158 288 l 1,47,-1
 151 295 l 2,0,1
137 606 m 1,48,49
 144 556 144 556 144.5 505.5 c 128,-1,50
 145 455 145 455 148 402 c 1,51,52
 183 408 183 408 215.5 412 c 128,-1,53
 248 416 248 416 272.5 426 c 128,-1,54
 297 436 297 436 311.5 456.5 c 128,-1,55
 326 477 326 477 325 517 c 0,56,57
 324 549 324 549 299.5 567.5 c 128,-1,58
 275 586 275 586 243.5 595 c 128,-1,59
 212 604 212 604 181 605.5 c 128,-1,60
 150 607 150 607 137 606 c 1,48,49
EndSplineSet
EndChar

StartChar: S
Encoding: 83 83 54
Width: 467
GlyphClass: 2
Flags: W
LayerCount: 2
Back
Fore
SplineSet
353 361 m 2,0,1
 391 332 391 332 412 296.5 c 128,-1,2
 433 261 433 261 438.5 224.5 c 128,-1,3
 444 188 444 188 436.5 152.5 c 128,-1,4
 429 117 429 117 410 87 c 128,-1,5
 391 57 391 57 363 34.5 c 128,-1,6
 335 12 335 12 300 2 c 0,7,8
 261 -11 261 -11 217 -4 c 128,-1,9
 173 3 173 3 135 25 c 128,-1,10
 97 47 97 47 69 81 c 128,-1,11
 41 115 41 115 34 156 c 1,12,13
 23 194 23 194 21.5 232 c 128,-1,14
 20 270 20 270 33 295 c 0,15,16
 41 305 41 305 54.5 310.5 c 128,-1,17
 68 316 68 316 82 315.5 c 128,-1,18
 96 315 96 315 107.5 308 c 128,-1,19
 119 301 119 301 123 285 c 0,20,21
 123 284 123 284 124 281.5 c 128,-1,22
 125 279 125 279 126 269 c 128,-1,23
 127 259 127 259 129 238.5 c 128,-1,24
 131 218 131 218 134 182 c 0,25,26
 135 176 135 176 145 159 c 128,-1,27
 155 142 155 142 172.5 128.5 c 128,-1,28
 190 115 190 115 215.5 112 c 128,-1,29
 241 109 241 109 274 130 c 0,30,31
 284 137 284 137 295 148.5 c 128,-1,32
 306 160 306 160 311 171 c 0,33,34
 320 190 320 190 320 206 c 0,35,36
 315 237 315 237 307 257.5 c 128,-1,37
 299 278 299 278 286.5 294.5 c 128,-1,38
 274 311 274 311 257 325.5 c 128,-1,39
 240 340 240 340 217 359 c 0,40,41
 212 363 212 363 202.5 370 c 128,-1,42
 193 377 193 377 177 389 c 128,-1,43
 161 401 161 401 137.5 420 c 128,-1,44
 114 439 114 439 80 467 c 0,45,46
 63 485 63 485 54 499 c 128,-1,47
 45 513 45 513 41 524 c 128,-1,48
 37 535 37 535 36 543.5 c 128,-1,49
 35 552 35 552 35 560 c 0,50,51
 35 587 35 587 43.5 613 c 128,-1,52
 52 639 52 639 75 660 c 128,-1,53
 98 681 98 681 138.5 694 c 128,-1,54
 179 707 179 707 243 708 c 0,55,56
 254 708 254 708 274.5 706 c 128,-1,57
 295 704 295 704 318 699.5 c 128,-1,58
 341 695 341 695 363.5 686.5 c 128,-1,59
 386 678 386 678 402 665.5 c 128,-1,60
 418 653 418 653 423 635.5 c 128,-1,61
 428 618 428 618 417 595 c 0,62,63
 406 573 406 573 392 568.5 c 128,-1,64
 378 564 378 564 363.5 568 c 128,-1,65
 349 572 349 572 337 580 c 128,-1,66
 325 588 325 588 318 591 c 0,67,68
 302 598 302 598 283 604.5 c 128,-1,69
 264 611 264 611 244 614.5 c 128,-1,70
 224 618 224 618 204.5 618 c 128,-1,71
 185 618 185 618 168 612 c 0,72,73
 138 601 138 601 134.5 576 c 128,-1,74
 131 551 131 551 169 514 c 1,75,-1
 353 361 l 2,0,1
EndSplineSet
EndChar

StartChar: T
Encoding: 84 84 55
Width: 550
GlyphClass: 2
Flags: W
LayerCount: 2
Back
Fore
SplineSet
80 710 m 1,0,1
 119 705 119 705 173.5 702 c 128,-1,2
 228 699 228 699 284 698 c 128,-1,3
 340 697 340 697 390 697.5 c 128,-1,4
 440 698 440 698 469 699 c 0,5,6
 483 700 483 700 495 700 c 128,-1,7
 507 700 507 700 516 696.5 c 128,-1,8
 525 693 525 693 530.5 684.5 c 128,-1,9
 536 676 536 676 537 660 c 1,10,11
 547 642 547 642 539 626 c 128,-1,12
 531 610 531 610 505 605 c 1,13,14
 461 612 461 612 426.5 614.5 c 128,-1,15
 392 617 392 617 347 616 c 1,16,17
 347 594 347 594 346.5 571.5 c 128,-1,18
 346 549 346 549 344.5 519.5 c 128,-1,19
 343 490 343 490 341.5 450 c 128,-1,20
 340 410 340 410 339.5 353 c 128,-1,21
 339 296 339 296 339.5 219.5 c 128,-1,22
 340 143 340 143 342 41 c 0,23,24
 341 22 341 22 327 10 c 128,-1,25
 313 -2 313 -2 294.5 -6 c 128,-1,26
 276 -10 276 -10 258 -6 c 128,-1,27
 240 -2 240 -2 233 10 c 1,28,29
 233 71 233 71 229.5 129.5 c 128,-1,30
 226 188 226 188 236 232 c 0,31,32
 236 244 236 244 236 255 c 128,-1,33
 236 266 236 266 236.5 282.5 c 128,-1,34
 237 299 237 299 237 323.5 c 128,-1,35
 237 348 237 348 237.5 386.5 c 128,-1,36
 238 425 238 425 238.5 479.5 c 128,-1,37
 239 534 239 534 239 610 c 1,38,39
 222 607 222 607 182.5 609 c 128,-1,40
 143 611 143 611 74 611 c 0,41,42
 59 612 59 612 50 621 c 128,-1,43
 41 630 41 630 37 642 c 128,-1,44
 33 654 33 654 34.5 667 c 128,-1,45
 36 680 36 680 42 689 c 0,46,47
 51 707 51 707 80 710 c 1,0,1
EndSplineSet
EndChar

StartChar: U
Encoding: 85 85 56
Width: 502
GlyphClass: 2
Flags: W
LayerCount: 2
Back
Fore
SplineSet
39 682 m 2,0,1
 39 697 39 697 55.5 703 c 128,-1,2
 72 709 72 709 92.5 707.5 c 128,-1,3
 113 706 113 706 132 697.5 c 128,-1,4
 151 689 151 689 157 673 c 1,5,6
 157 607 157 607 156.5 551 c 128,-1,7
 156 495 156 495 157 440.5 c 128,-1,8
 158 386 158 386 161.5 330 c 128,-1,9
 165 274 165 274 173 208 c 0,10,11
 176 189 176 189 177.5 172 c 128,-1,12
 179 155 179 155 184.5 140.5 c 128,-1,13
 190 126 190 126 202 116 c 128,-1,14
 214 106 214 106 237 102 c 0,15,16
 260 97 260 97 285.5 100 c 128,-1,17
 311 103 311 103 330 113 c 0,18,19
 356 128 356 128 361.5 156.5 c 128,-1,20
 367 185 367 185 369 215 c 0,21,22
 373 271 373 271 369.5 331.5 c 128,-1,23
 366 392 366 392 360.5 452.5 c 128,-1,24
 355 513 355 513 351.5 571 c 128,-1,25
 348 629 348 629 353 681 c 1,26,27
 372 707 372 707 401.5 712.5 c 128,-1,28
 431 718 431 718 463 689 c 1,29,30
 469 618 469 618 471.5 557.5 c 128,-1,31
 474 497 474 497 475 446 c 128,-1,32
 476 395 476 395 476 353.5 c 128,-1,33
 476 312 476 312 477 278 c 0,34,35
 478 256 478 256 476 217.5 c 128,-1,36
 474 179 474 179 468 141 c 0,37,38
 465 120 465 120 457 98.5 c 128,-1,39
 449 77 449 77 420 47 c 0,40,41
 405 30 405 30 390 22.5 c 128,-1,42
 375 15 375 15 352 10 c 0,43,44
 317 2 317 2 277.5 0 c 128,-1,45
 238 -2 238 -2 203 2 c 0,46,47
 162 7 162 7 133 23.5 c 128,-1,48
 104 40 104 40 84 78 c 0,49,50
 71 103 71 103 61.5 133.5 c 128,-1,51
 52 164 52 164 46 195 c 128,-1,52
 40 226 40 226 36.5 254 c 128,-1,53
 33 282 33 282 32 303 c 2,54,-1
 39 682 l 2,0,1
EndSplineSet
EndChar

StartChar: V
Encoding: 86 86 57
Width: 610
GlyphClass: 2
Flags: W
LayerCount: 2
Back
Fore
SplineSet
59 571 m 2,0,1
 49 602 49 602 41.5 637.5 c 128,-1,2
 34 673 34 673 38 699 c 1,3,4
 51 707 51 707 65.5 710 c 128,-1,5
 80 713 80 713 93 712 c 128,-1,6
 106 711 106 711 116 706.5 c 128,-1,7
 126 702 126 702 130 694 c 0,8,9
 151 653 151 653 165 617 c 128,-1,10
 179 581 179 581 190.5 546.5 c 128,-1,11
 202 512 202 512 212 477.5 c 128,-1,12
 222 443 222 443 233.5 404 c 128,-1,13
 245 365 245 365 261 321 c 128,-1,14
 277 277 277 277 300 223 c 0,15,16
 300 222 300 222 300.5 222 c 128,-1,17
 301 222 301 222 301 221 c 2,18,19
 301 221 301 221 303 225 c 2,20,-1
 464 610 l 1,21,-1
 502 698 l 1,22,23
 512 702 512 702 521.5 706.5 c 128,-1,24
 531 711 531 711 541.5 712 c 128,-1,25
 552 713 552 713 564.5 709 c 128,-1,26
 577 705 577 705 594 694 c 1,27,28
 567 638 567 638 545 579 c 128,-1,29
 523 520 523 520 502 459.5 c 128,-1,30
 481 399 481 399 458.5 337.5 c 128,-1,31
 436 276 436 276 409 216 c 0,32,33
 405 208 405 208 397.5 189.5 c 128,-1,34
 390 171 390 171 379 148 c 128,-1,35
 368 125 368 125 354.5 100 c 128,-1,36
 341 75 341 75 327 54.5 c 128,-1,37
 313 34 313 34 299 20 c 128,-1,38
 285 6 285 6 272 6 c 0,39,40
 263 6 263 6 250.5 28 c 128,-1,41
 238 50 238 50 223 86 c 128,-1,42
 208 122 208 122 191.5 168 c 128,-1,43
 175 214 175 214 159 262 c 2,44,-1
 59 571 l 2,0,1
EndSplineSet
EndChar

StartChar: W
Encoding: 87 87 58
Width: 767
GlyphClass: 2
Flags: W
LayerCount: 2
Back
Fore
SplineSet
223 3 m 1,0,1
 159 168 159 168 105 337 c 128,-1,2
 51 506 51 506 11 686 c 0,3,4
 8 695 8 695 16 701.5 c 128,-1,5
 24 708 24 708 37.5 711.5 c 128,-1,6
 51 715 51 715 67.5 716 c 128,-1,7
 84 717 84 717 99 715.5 c 128,-1,8
 114 714 114 714 125 709 c 128,-1,9
 136 704 136 704 139 697 c 0,10,11
 163 646 163 646 177 582.5 c 128,-1,12
 191 519 191 519 203 453 c 128,-1,13
 215 387 215 387 228 322.5 c 128,-1,14
 241 258 241 258 264 206 c 1,15,16
 293 237 293 237 309.5 262 c 128,-1,17
 326 287 326 287 338 306.5 c 128,-1,18
 350 326 350 326 361.5 341 c 128,-1,19
 373 356 373 356 393 368 c 0,20,21
 400 374 400 374 409 372.5 c 128,-1,22
 418 371 418 371 434.5 350 c 128,-1,23
 451 329 451 329 478 281.5 c 128,-1,24
 505 234 505 234 547 147 c 1,25,26
 547 153 547 153 555 161 c 128,-1,27
 563 169 563 169 574 187 c 128,-1,28
 585 205 585 205 597.5 237.5 c 128,-1,29
 610 270 610 270 620 325.5 c 128,-1,30
 630 381 630 381 635 463.5 c 128,-1,31
 640 546 640 546 636 664 c 0,32,33
 639 682 639 682 655.5 691 c 128,-1,34
 672 700 672 700 691 700.5 c 128,-1,35
 710 701 710 701 727 692.5 c 128,-1,36
 744 684 744 684 749 666 c 1,37,38
 746 636 746 636 741 580.5 c 128,-1,39
 736 525 736 525 727.5 458 c 128,-1,40
 719 391 719 391 707.5 318.5 c 128,-1,41
 696 246 696 246 680.5 182 c 128,-1,42
 665 118 665 118 646 69 c 128,-1,43
 627 20 627 20 604 1 c 1,44,45
 580 -13 580 -13 565 -8 c 128,-1,46
 550 -3 550 -3 540 5 c 1,47,-1
 423 251 l 1,48,-1
 282 -1 l 1,49,50
 272 -8 272 -8 252.5 -7 c 128,-1,51
 233 -6 233 -6 223 3 c 1,0,1
EndSplineSet
EndChar

StartChar: X
Encoding: 88 88 59
Width: 651
GlyphClass: 2
Flags: W
LayerCount: 2
Back
Fore
SplineSet
105 -23 m 0,0,1
 87 -26 87 -26 74.5 -20 c 128,-1,2
 62 -14 62 -14 56 -2.5 c 128,-1,3
 50 9 50 9 52.5 22.5 c 128,-1,4
 55 36 55 36 69 48 c 1,5,6
 111 110 111 110 140.5 153.5 c 128,-1,7
 170 197 170 197 189.5 226.5 c 128,-1,8
 209 256 209 256 221 273 c 128,-1,9
 233 290 233 290 240 300 c 128,-1,10
 247 310 247 310 250 314 c 128,-1,11
 253 318 253 318 256 321 c 1,12,13
 226 373 226 373 199 414 c 128,-1,14
 172 455 172 455 149 488.5 c 128,-1,15
 126 522 126 522 106.5 548.5 c 128,-1,16
 87 575 87 575 73 598 c 0,17,18
 70 603 70 603 62.5 616 c 128,-1,19
 55 629 55 629 47.5 644 c 128,-1,20
 40 659 40 659 34.5 672.5 c 128,-1,21
 29 686 29 686 29 692 c 0,22,23
 29 702 29 702 35 711 c 128,-1,24
 41 720 41 720 50.5 724.5 c 128,-1,25
 60 729 60 729 72 728.5 c 128,-1,26
 84 728 84 728 96 719 c 0,27,28
 140 686 140 686 169.5 649.5 c 128,-1,29
 199 613 199 613 223.5 577 c 128,-1,30
 248 541 248 541 273 506 c 128,-1,31
 298 471 298 471 333 441 c 1,32,33
 338 453 338 453 349 475 c 128,-1,34
 360 497 360 497 374 523 c 128,-1,35
 388 549 388 549 404 577.5 c 128,-1,36
 420 606 420 606 435 632 c 0,37,38
 449 655 449 655 457.5 676.5 c 128,-1,39
 466 698 466 698 481 704 c 0,40,41
 493 708 493 708 509.5 706.5 c 128,-1,42
 526 705 526 705 539.5 699 c 128,-1,43
 553 693 553 693 560.5 683 c 128,-1,44
 568 673 568 673 561 661 c 0,45,46
 528 603 528 603 502.5 562.5 c 128,-1,47
 477 522 477 522 456 490 c 128,-1,48
 435 458 435 458 418 431.5 c 128,-1,49
 401 405 401 405 386 375 c 1,50,-1
 623 52 l 1,51,52
 626 41 626 41 626 33.5 c 128,-1,53
 626 26 626 26 621 15 c 0,54,55
 611 3 611 3 596.5 -2 c 128,-1,56
 582 -7 582 -7 566.5 -6.5 c 128,-1,57
 551 -6 551 -6 536.5 0 c 128,-1,58
 522 6 522 6 512 17 c 1,59,60
 512 17 512 17 511 19 c 2,61,-1
 511 20 l 1,62,-1
 314 250 l 1,63,64
 303 237 303 237 281 206 c 128,-1,65
 259 175 259 175 233 138 c 128,-1,66
 207 101 207 101 180.5 64.5 c 128,-1,67
 154 28 154 28 135 4 c 0,68,69
 119 -17 119 -17 105 -23 c 0,0,1
EndSplineSet
EndChar

StartChar: Y
Encoding: 89 89 60
Width: 510
GlyphClass: 2
Flags: W
LayerCount: 2
Back
Fore
SplineSet
19 629 m 0,0,1
 16 635 16 635 11.5 649 c 128,-1,2
 7 663 7 663 9 674 c 0,3,4
 12 687 12 687 21 696.5 c 128,-1,5
 30 706 30 706 42 710 c 128,-1,6
 54 714 54 714 67 710.5 c 128,-1,7
 80 707 80 707 90 694 c 0,8,9
 123 653 123 653 140 622.5 c 128,-1,10
 157 592 157 592 170.5 566 c 128,-1,11
 184 540 184 540 199.5 516.5 c 128,-1,12
 215 493 215 493 246 467 c 1,13,14
 289 533 289 533 317 575.5 c 128,-1,15
 345 618 345 618 363 643 c 128,-1,16
 381 668 381 668 391.5 679.5 c 128,-1,17
 402 691 402 691 409 696 c 0,18,19
 416 699 416 699 427 701.5 c 128,-1,20
 438 704 438 704 449.5 703 c 128,-1,21
 461 702 461 702 469.5 694.5 c 128,-1,22
 478 687 478 687 479 669 c 0,23,24
 480 649 480 649 467 621 c 128,-1,25
 454 593 454 593 433.5 561 c 128,-1,26
 413 529 413 529 389 495.5 c 128,-1,27
 365 462 365 462 343.5 431 c 128,-1,28
 322 400 322 400 307.5 374 c 128,-1,29
 293 348 293 348 292 331 c 0,30,31
 289 292 289 292 291 251.5 c 128,-1,32
 293 211 293 211 295 170.5 c 128,-1,33
 297 130 297 130 297 89 c 128,-1,34
 297 48 297 48 290 8 c 0,35,36
 288 -2 288 -2 272 -7 c 128,-1,37
 256 -12 256 -12 237.5 -9.5 c 128,-1,38
 219 -7 219 -7 204 3.5 c 128,-1,39
 189 14 189 14 190 35 c 0,40,41
 195 96 195 96 197.5 171.5 c 128,-1,42
 200 247 200 247 208 340 c 1,43,-1
 205 346 l 2,44,45
 190 372 190 372 162.5 411 c 128,-1,46
 135 450 135 450 106 490.5 c 128,-1,47
 77 531 77 531 52.5 568.5 c 128,-1,48
 28 606 28 606 19 629 c 0,0,1
EndSplineSet
EndChar

StartChar: Z
Encoding: 90 90 61
Width: 580
GlyphClass: 2
Flags: W
LayerCount: 2
Back
Fore
SplineSet
97 572 m 1,0,1
 85 573 85 573 69 579 c 128,-1,2
 53 585 53 585 48 599 c 0,3,4
 44 609 44 609 44.5 628.5 c 128,-1,5
 45 648 45 648 50 668 c 0,6,7
 53 683 53 683 57.5 690.5 c 128,-1,8
 62 698 62 698 69.5 702 c 128,-1,9
 77 706 77 706 87.5 707.5 c 128,-1,10
 98 709 98 709 113 712 c 0,11,12
 162 719 162 719 216.5 714 c 128,-1,13
 271 709 271 709 325.5 702 c 128,-1,14
 380 695 380 695 433.5 692.5 c 128,-1,15
 487 690 487 690 534 702 c 1,16,17
 545 696 545 696 550 688.5 c 128,-1,18
 555 681 555 681 553 668 c 1,19,20
 475 520 475 520 383 378 c 128,-1,21
 291 236 291 236 185 115 c 1,22,-1
 390 127 l 2,23,24
 444 130 444 130 477 133 c 128,-1,25
 510 136 510 136 528 130.5 c 128,-1,26
 546 125 546 125 552.5 107.5 c 128,-1,27
 559 90 559 90 561 51 c 1,28,-1
 559 39 l 2,29,30
 559 25 559 25 549 12 c 128,-1,31
 539 -1 539 -1 517 -3 c 0,32,33
 488 -3 488 -3 460 -0.5 c 128,-1,34
 432 2 432 2 404 5.5 c 128,-1,35
 376 9 376 9 348 11 c 128,-1,36
 320 13 320 13 291 12 c 0,37,38
 280 11 280 11 250 7 c 128,-1,39
 220 3 220 3 186.5 -0.5 c 128,-1,40
 153 -4 153 -4 124 -6.5 c 128,-1,41
 95 -9 95 -9 86 -7 c 256,42,43
 77 -5 77 -5 68.5 -1.5 c 128,-1,44
 60 2 60 2 53.5 8 c 128,-1,45
 47 14 47 14 43 23.5 c 128,-1,46
 39 33 39 33 40 47 c 0,47,48
 67 126 67 126 107.5 198 c 128,-1,49
 148 270 148 270 195.5 337.5 c 128,-1,50
 243 405 243 405 294.5 468.5 c 128,-1,51
 346 532 346 532 395 594 c 1,52,53
 383 598 383 598 359.5 602.5 c 128,-1,54
 336 607 336 607 310.5 611 c 128,-1,55
 285 615 285 615 261 616 c 128,-1,56
 237 617 237 617 222 614 c 0,57,58
 188 606 188 606 159.5 593.5 c 128,-1,59
 131 581 131 581 97 572 c 1,0,1
EndSplineSet
EndChar

StartChar: bracketleft
Encoding: 91 91 62
Width: 308
GlyphClass: 2
Flags: W
LayerCount: 2
Back
Fore
SplineSet
231 649 m 0,0,1
 252 650 252 650 264 639 c 128,-1,2
 276 628 276 628 277.5 614 c 128,-1,3
 279 600 279 600 270 587 c 128,-1,4
 261 574 261 574 240 570 c 0,5,6
 214 566 214 566 187.5 570.5 c 128,-1,7
 161 575 161 575 135 577 c 1,8,9
 135 514 135 514 132 451.5 c 128,-1,10
 129 389 129 389 126 322 c 0,11,12
 123 245 123 245 123.5 160.5 c 128,-1,13
 124 76 124 76 135 -19 c 1,14,-1
 135 -23 l 2,15,16
 135 -27 135 -27 135.5 -30 c 128,-1,17
 136 -33 136 -33 136 -37 c 0,18,19
 139 -39 139 -39 141.5 -41 c 128,-1,20
 144 -43 144 -43 146 -45 c 0,21,22
 156 -44 156 -44 170.5 -43 c 128,-1,23
 185 -42 185 -42 199 -43.5 c 128,-1,24
 213 -45 213 -45 225 -50.5 c 128,-1,25
 237 -56 237 -56 243 -68 c 0,26,27
 243 -69 243 -69 243.5 -69 c 128,-1,28
 244 -69 244 -69 244 -70 c 0,29,30
 246 -74 246 -74 246 -75 c 0,31,32
 246 -96 246 -96 236.5 -106.5 c 128,-1,33
 227 -117 227 -117 211.5 -120.5 c 128,-1,34
 196 -124 196 -124 177 -122.5 c 128,-1,35
 158 -121 158 -121 139.5 -119 c 128,-1,36
 121 -117 121 -117 103.5 -117 c 128,-1,37
 86 -117 86 -117 75 -123 c 1,38,39
 56 -113 56 -113 52 -99 c 0,40,41
 47 -4 47 -4 50 87 c 128,-1,42
 53 178 53 178 55.5 266 c 128,-1,43
 58 354 58 354 56.5 440 c 128,-1,44
 55 526 55 526 42 612 c 1,45,46
 50 624 50 624 62 630.5 c 128,-1,47
 74 637 74 637 88 642 c 0,48,49
 106 646 106 646 123.5 646.5 c 128,-1,50
 141 647 141 647 159 646 c 128,-1,51
 177 645 177 645 195 645 c 128,-1,52
 213 645 213 645 231 649 c 0,0,1
EndSplineSet
EndChar

StartChar: asciicircum
Encoding: 94 94 65
Width: 623
GlyphClass: 2
Flags: W
LayerCount: 2
Back
Fore
SplineSet
109 332 m 0,0,1
 93 323 93 323 78.5 324.5 c 128,-1,2
 64 326 64 326 55 335 c 128,-1,3
 46 344 46 344 44.5 358.5 c 128,-1,4
 43 373 43 373 52 389 c 1,5,6
 70 385 70 385 95 406.5 c 128,-1,7
 120 428 120 428 147 463 c 128,-1,8
 174 498 174 498 201.5 539 c 128,-1,9
 229 580 229 580 252 615 c 128,-1,10
 275 650 275 650 292 672 c 128,-1,11
 309 694 309 694 315 691 c 0,12,13
 322 688 322 688 331.5 672.5 c 128,-1,14
 341 657 341 657 350 639 c 128,-1,15
 359 621 359 621 367 605 c 128,-1,16
 375 589 375 589 378 584 c 0,17,18
 395 561 395 561 415 532 c 128,-1,19
 435 503 435 503 457.5 475 c 128,-1,20
 480 447 480 447 505 424 c 128,-1,21
 530 401 530 401 557 389 c 0,22,23
 572 378 572 378 576.5 364.5 c 128,-1,24
 581 351 581 351 576 339 c 128,-1,25
 571 327 571 327 558.5 319.5 c 128,-1,26
 546 312 546 312 528 314 c 1,27,28
 495 333 495 333 464 368 c 128,-1,29
 433 403 433 403 404.5 444.5 c 128,-1,30
 376 486 376 486 351.5 529.5 c 128,-1,31
 327 573 327 573 307 610 c 1,32,33
 304 601 304 601 301 592 c 128,-1,34
 298 583 298 583 295 575 c 0,35,36
 281 537 281 537 261.5 502 c 128,-1,37
 242 467 242 467 213 438 c 0,38,39
 202 423 202 423 193 410.5 c 128,-1,40
 184 398 184 398 174.5 386.5 c 128,-1,41
 165 375 165 375 153 364.5 c 128,-1,42
 141 354 141 354 124 345 c 0,43,44
 116 340 116 340 116 339.5 c 128,-1,45
 116 339 116 339 109 332 c 0,0,1
EndSplineSet
EndChar

StartChar: underscore
Encoding: 95 95 66
Width: 643
GlyphClass: 2
Flags: W
LayerCount: 2
Back
Fore
SplineSet
49 -227 m 0,0,1
 28 -225 28 -225 18.5 -212.5 c 128,-1,2
 9 -200 9 -200 9.5 -186 c 128,-1,3
 10 -172 10 -172 21 -160.5 c 128,-1,4
 32 -149 32 -149 53 -148 c 0,5,6
 139 -156 139 -156 222 -162 c 128,-1,7
 305 -168 305 -168 392 -169 c 0,8,9
 411 -169 411 -169 441.5 -167 c 128,-1,10
 472 -165 472 -165 503.5 -162.5 c 128,-1,11
 535 -160 535 -160 561.5 -158 c 128,-1,12
 588 -156 588 -156 600 -155 c 1,13,14
 618 -160 618 -160 626 -171.5 c 128,-1,15
 634 -183 634 -183 633.5 -196 c 128,-1,16
 633 -209 633 -209 623.5 -220 c 128,-1,17
 614 -231 614 -231 596 -234 c 1,18,19
 509 -226 509 -226 425 -219.5 c 128,-1,20
 341 -213 341 -213 253 -213 c 0,21,22
 233 -213 233 -213 204 -215 c 128,-1,23
 175 -217 175 -217 145 -219 c 128,-1,24
 115 -221 115 -221 88.5 -223.5 c 128,-1,25
 62 -226 62 -226 49 -227 c 0,0,1
EndSplineSet
EndChar

StartChar: grave
Encoding: 96 96 67
Width: 368
GlyphClass: 2
Flags: W
LayerCount: 2
Back
Fore
SplineSet
248 541 m 0,0,1
 236 545 236 545 214.5 556.5 c 128,-1,2
 193 568 193 568 170.5 584 c 128,-1,3
 148 600 148 600 128.5 618.5 c 128,-1,4
 109 637 109 637 99.5 655 c 128,-1,5
 90 673 90 673 95.5 688 c 128,-1,6
 101 703 101 703 129 713 c 0,7,8
 147 717 147 717 161 712.5 c 128,-1,9
 175 708 175 708 186.5 698.5 c 128,-1,10
 198 689 198 689 207.5 677 c 128,-1,11
 217 665 217 665 225 653 c 0,12,13
 226 651 226 651 235 637 c 128,-1,14
 244 623 244 623 253.5 606.5 c 128,-1,15
 263 590 263 590 271 576 c 128,-1,16
 279 562 279 562 279 560 c 0,17,18
 278 546 278 546 269.5 540 c 128,-1,19
 261 534 261 534 248 541 c 0,0,1
EndSplineSet
EndChar

StartChar: a
Encoding: 97 97 68
Width: 439
GlyphClass: 2
Flags: W
LayerCount: 2
Back
Fore
SplineSet
219 286 m 2,0,1
 280 292 280 292 300.5 306 c 128,-1,2
 321 320 321 320 314 335 c 128,-1,3
 307 350 307 350 279.5 363 c 128,-1,4
 252 376 252 376 217 380 c 128,-1,5
 182 384 182 384 147 375 c 128,-1,6
 112 366 112 366 90 338 c 1,7,8
 73 336 73 336 60.5 343 c 128,-1,9
 48 350 48 350 43.5 362 c 128,-1,10
 39 374 39 374 42.5 387.5 c 128,-1,11
 46 401 46 401 61 412 c 1,12,13
 76 417 76 417 82 425 c 128,-1,14
 88 433 88 433 102 441 c 0,15,16
 166 475 166 475 216.5 478.5 c 128,-1,17
 267 482 267 482 304 464.5 c 128,-1,18
 341 447 341 447 365 413.5 c 128,-1,19
 389 380 389 380 400.5 339 c 128,-1,20
 412 298 412 298 411.5 255.5 c 128,-1,21
 411 213 411 213 398 177 c 0,22,23
 393 163 393 163 393.5 151 c 128,-1,24
 394 139 394 139 396.5 124.5 c 128,-1,25
 399 110 399 110 402 91 c 128,-1,26
 405 72 405 72 407 46 c 0,27,28
 411 39 411 39 411 33 c 0,29,30
 415 22 415 22 414 9 c 0,31,32
 414 8 414 8 413 8 c 0,33,34
 407 -7 407 -7 396.5 -14.5 c 128,-1,35
 386 -22 386 -22 374.5 -21.5 c 128,-1,36
 363 -21 363 -21 352.5 -13.5 c 128,-1,37
 342 -6 342 -6 336 8 c 0,38,39
 334 15 334 15 334 18 c 128,-1,40
 334 21 334 21 334 22 c 0,41,42
 327 30 327 30 326 37 c 0,43,44
 322 40 322 40 319 43.5 c 128,-1,45
 316 47 316 47 313 51 c 256,46,47
 310 55 310 55 303 54.5 c 128,-1,48
 296 54 296 54 294 59 c 1,49,50
 289 57 289 57 285 54.5 c 128,-1,51
 281 52 281 52 277 50 c 0,52,53
 247 31 247 31 220.5 16.5 c 128,-1,54
 194 2 194 2 168 -2 c 128,-1,55
 142 -6 142 -6 115.5 3.5 c 128,-1,56
 89 13 89 13 59 43 c 0,57,58
 50 52 50 52 43.5 67 c 128,-1,59
 37 82 37 82 33.5 99.5 c 128,-1,60
 30 117 30 117 30 134 c 128,-1,61
 30 151 30 151 35 165 c 0,62,63
 39 176 39 176 42.5 183 c 128,-1,64
 46 190 46 190 53 198 c 0,65,66
 63 210 63 210 71 219 c 0,67,68
 73 221 73 221 75.5 223.5 c 128,-1,69
 78 226 78 226 77 224 c 1,70,71
 82 232 82 232 90.5 243.5 c 128,-1,72
 99 255 99 255 106 260 c 0,73,74
 125 275 125 275 153 277.5 c 128,-1,75
 181 280 181 280 204 284 c 2,76,-1
 219 286 l 2,0,1
292 120 m 1,77,78
 304 137 304 137 308 150 c 128,-1,79
 312 163 312 163 313 174.5 c 128,-1,80
 314 186 314 186 314.5 196 c 128,-1,81
 315 206 315 206 318 218 c 1,82,83
 287 223 287 223 251 224.5 c 128,-1,84
 215 226 215 226 185 216 c 128,-1,85
 155 206 155 206 135.5 180.5 c 128,-1,86
 116 155 116 155 117 107 c 1,87,-1
 145 86 l 1,88,89
 175 79 175 79 211 88.5 c 128,-1,90
 247 98 247 98 292 120 c 1,77,78
340 10 m 0,91,92
 341 8 341 8 340.5 10 c 128,-1,93
 340 12 340 12 338 14 c 1,94,95
 339 13 339 13 339 12 c 128,-1,96
 339 11 339 11 340 10 c 0,91,92
EndSplineSet
EndChar

StartChar: b
Encoding: 98 98 69
Width: 447
GlyphClass: 2
Flags: W
LayerCount: 2
Back
Fore
SplineSet
32 228 m 0,0,1
 30 280 30 280 28 347.5 c 128,-1,2
 26 415 26 415 25 484 c 128,-1,3
 24 553 24 553 24.5 616.5 c 128,-1,4
 25 680 25 680 30 725 c 0,5,6
 30 727 30 727 31.5 729 c 128,-1,7
 33 731 33 731 35 733 c 0,8,9
 44 744 44 744 51 743.5 c 128,-1,10
 58 743 58 743 72 747 c 0,11,12
 74 747 74 747 75.5 745.5 c 128,-1,13
 77 744 77 744 78 745 c 0,14,15
 82 747 82 747 84 750.5 c 128,-1,16
 86 754 86 754 90 754 c 1,17,-1
 90 755 l 2,18,19
 93 754 93 754 96.5 753.5 c 128,-1,20
 100 753 100 753 103 752 c 0,21,22
 104 751 104 751 104 750.5 c 128,-1,23
 104 750 104 750 105 749 c 0,24,25
 120 742 120 742 123 725 c 0,26,27
 129 692 129 692 131 656 c 128,-1,28
 133 620 133 620 133 584 c 128,-1,29
 133 548 133 548 132.5 512 c 128,-1,30
 132 476 132 476 133 443 c 0,31,32
 133 429 133 429 133 414.5 c 128,-1,33
 133 400 133 400 134 385 c 1,34,35
 148 406 148 406 173.5 426.5 c 128,-1,36
 199 447 199 447 225 452 c 0,37,38
 260 459 260 459 284.5 456 c 128,-1,39
 309 453 309 453 327 442.5 c 128,-1,40
 345 432 345 432 359 415.5 c 128,-1,41
 373 399 373 399 387 378 c 0,42,43
 413 338 413 338 421.5 292 c 128,-1,44
 430 246 430 246 423.5 201 c 128,-1,45
 417 156 417 156 396.5 116.5 c 128,-1,46
 376 77 376 77 344.5 49.5 c 128,-1,47
 313 22 313 22 272 10 c 128,-1,48
 231 -2 231 -2 184 9 c 0,49,50
 170 12 170 12 156 23 c 128,-1,51
 142 34 142 34 131 43 c 1,52,53
 126 18 126 18 118 6 c 0,54,55
 112 -4 112 -4 100 -9 c 128,-1,56
 88 -14 88 -14 75 -13.5 c 128,-1,57
 62 -13 62 -13 50.5 -7 c 128,-1,58
 39 -1 39 -1 35 11 c 0,59,60
 27 33 27 33 25.5 61 c 128,-1,61
 24 89 24 89 25.5 118.5 c 128,-1,62
 27 148 27 148 29.5 176.5 c 128,-1,63
 32 205 32 205 32 228 c 0,0,1
139 174 m 0,64,65
 138 163 138 163 138.5 147.5 c 128,-1,66
 139 132 139 132 138 115 c 1,67,68
 142 112 142 112 147 104 c 0,69,70
 176 76 176 76 203 72.5 c 128,-1,71
 230 69 230 69 252.5 81.5 c 128,-1,72
 275 94 275 94 293 120 c 128,-1,73
 311 146 311 146 322.5 177 c 128,-1,74
 334 208 334 208 337.5 240.5 c 128,-1,75
 341 273 341 273 335 300 c 128,-1,76
 329 327 329 327 313 344.5 c 128,-1,77
 297 362 297 362 268 362 c 0,78,79
 252 362 252 362 237 355.5 c 128,-1,80
 222 349 222 349 208.5 339.5 c 128,-1,81
 195 330 195 330 184 320 c 128,-1,82
 173 310 173 310 165 304 c 0,83,84
 155 290 155 290 139 277 c 1,85,86
 141 222 141 222 139 174 c 0,64,65
EndSplineSet
EndChar

StartChar: c
Encoding: 99 99 70
Width: 416
GlyphClass: 2
Flags: W
LayerCount: 2
Back
Fore
SplineSet
393 108 m 1,0,1
 377 68 377 68 340 40.5 c 128,-1,2
 303 13 303 13 258.5 1 c 128,-1,3
 214 -11 214 -11 168.5 -6 c 128,-1,4
 123 -1 123 -1 92 24 c 0,5,6
 61 48 61 48 43 85 c 128,-1,7
 25 122 25 122 18 163.5 c 128,-1,8
 11 205 11 205 12.5 248 c 128,-1,9
 14 291 14 291 22 328 c 0,10,11
 34 394 34 394 66.5 430.5 c 128,-1,12
 99 467 99 467 139.5 482.5 c 128,-1,13
 180 498 180 498 222 497.5 c 128,-1,14
 264 497 264 497 295 490 c 0,15,16
 311 487 311 487 329.5 478 c 128,-1,17
 348 469 348 469 363 456 c 128,-1,18
 378 443 378 443 386.5 427.5 c 128,-1,19
 395 412 395 412 391 394 c 1,20,21
 382 375 382 375 362 379 c 0,22,23
 356 381 356 381 352.5 383 c 128,-1,24
 349 385 349 385 344 389 c 0,25,26
 343 391 343 391 340 392.5 c 128,-1,27
 337 394 337 394 335 396 c 0,28,29
 317 401 317 401 299.5 408.5 c 128,-1,30
 282 416 282 416 264 421.5 c 128,-1,31
 246 427 246 427 228 428 c 128,-1,32
 210 429 210 429 192 421 c 0,33,34
 153 403 153 403 133.5 369 c 128,-1,35
 114 335 114 335 108 296 c 128,-1,36
 102 257 102 257 108 219 c 128,-1,37
 114 181 114 181 126 154 c 1,38,39
 142 139 142 139 155.5 128 c 128,-1,40
 169 117 169 117 185 112.5 c 128,-1,41
 201 108 201 108 221.5 110 c 128,-1,42
 242 112 242 112 272 121 c 0,43,44
 288 126 288 126 309.5 136.5 c 128,-1,45
 331 147 331 147 350 150.5 c 128,-1,46
 369 154 369 154 381.5 146.5 c 128,-1,47
 394 139 394 139 393 108 c 1,0,1
EndSplineSet
EndChar

StartChar: d
Encoding: 100 100 71
Width: 459
GlyphClass: 2
Flags: W
LayerCount: 2
Back
Fore
SplineSet
409 11 m 2,0,1
 405 -1 405 -1 393.5 -7 c 128,-1,2
 382 -13 382 -13 369 -13.5 c 128,-1,3
 356 -14 356 -14 344 -9 c 128,-1,4
 332 -4 332 -4 326 6 c 0,5,6
 318 18 318 18 313 43 c 1,7,8
 302 34 302 34 288 23 c 128,-1,9
 274 12 274 12 260 9 c 0,10,11
 212 -2 212 -2 171.5 10 c 128,-1,12
 131 22 131 22 99.5 49.5 c 128,-1,13
 68 77 68 77 47.5 116.5 c 128,-1,14
 27 156 27 156 20.5 201 c 128,-1,15
 14 246 14 246 22 292 c 128,-1,16
 30 338 30 338 57 378 c 0,17,18
 71 399 71 399 85 415.5 c 128,-1,19
 99 432 99 432 117 442.5 c 128,-1,20
 135 453 135 453 159.5 456 c 128,-1,21
 184 459 184 459 219 452 c 0,22,23
 245 447 245 447 270.5 426.5 c 128,-1,24
 296 406 296 406 310 385 c 1,25,26
 311 400 311 400 311 414.5 c 128,-1,27
 311 429 311 429 311 443 c 0,28,29
 312 510 312 510 311 584 c 128,-1,30
 310 658 310 658 321 725 c 0,31,32
 324 742 324 742 339 749 c 0,33,34
 340 750 340 750 340 750.5 c 128,-1,35
 340 751 340 751 341 752 c 0,36,37
 344 753 344 753 347.5 753.5 c 128,-1,38
 351 754 351 754 354 755 c 2,39,-1
 354 754 l 1,40,41
 358 754 358 754 360 750.5 c 128,-1,42
 362 747 362 747 366 745 c 0,43,44
 367 744 367 744 368.5 745.5 c 128,-1,45
 370 747 370 747 372 747 c 0,46,47
 386 743 386 743 393 743.5 c 128,-1,48
 400 744 400 744 409 733 c 0,49,50
 411 731 411 731 412.5 729 c 128,-1,51
 414 727 414 727 414 725 c 2,52,-1
 409 11 l 2,0,1
305 174 m 0,53,54
 303 222 303 222 305 277 c 1,55,56
 289 290 289 290 279 304 c 0,57,58
 271 310 271 310 260 320 c 128,-1,59
 249 330 249 330 235.5 339.5 c 128,-1,60
 222 349 222 349 207 355.5 c 128,-1,61
 192 362 192 362 176 362 c 0,62,63
 147 362 147 362 131 344.5 c 128,-1,64
 115 327 115 327 109 300 c 128,-1,65
 103 273 103 273 106.5 240.5 c 128,-1,66
 110 208 110 208 121.5 177 c 128,-1,67
 133 146 133 146 151 120 c 128,-1,68
 169 94 169 94 191.5 81.5 c 128,-1,69
 214 69 214 69 241 72.5 c 128,-1,70
 268 76 268 76 297 104 c 0,71,72
 302 112 302 112 306 115 c 1,73,74
 305 132 305 132 305.5 147.5 c 128,-1,75
 306 163 306 163 305 174 c 0,53,54
EndSplineSet
EndChar

StartChar: e
Encoding: 101 101 72
Width: 477
GlyphClass: 2
Flags: W
LayerCount: 2
Back
Fore
SplineSet
337 237 m 0,0,1
 318 237 318 237 292 238 c 128,-1,2
 266 239 266 239 238.5 239 c 128,-1,3
 211 239 211 239 185 239 c 128,-1,4
 159 239 159 239 140 238 c 1,5,6
 137 216 137 216 142.5 194 c 128,-1,7
 148 172 148 172 161 152 c 128,-1,8
 174 132 174 132 194 116 c 128,-1,9
 214 100 214 100 241 91 c 0,10,11
 251 87 251 87 266 84 c 128,-1,12
 281 81 281 81 296.5 80 c 128,-1,13
 312 79 312 79 325 81 c 128,-1,14
 338 83 338 83 345 88 c 0,15,16
 354 94 354 94 364 98 c 128,-1,17
 374 102 374 102 380 108 c 0,18,19
 382 110 382 110 382 112.5 c 128,-1,20
 382 115 382 115 383 118 c 2,21,22
 383 118 383 118 384 117 c 1,23,24
 390 128 390 128 400.5 130.5 c 128,-1,25
 411 133 411 133 419.5 130 c 128,-1,26
 428 127 428 127 432 118.5 c 128,-1,27
 436 110 436 110 431 98 c 0,28,29
 411 54 411 54 376 29.5 c 128,-1,30
 341 5 341 5 299 -1 c 128,-1,31
 257 -7 257 -7 212.5 3.5 c 128,-1,32
 168 14 168 14 129 39.5 c 128,-1,33
 90 65 90 65 60.5 104 c 128,-1,34
 31 143 31 143 20.5 193 c 128,-1,35
 10 243 10 243 21.5 303.5 c 128,-1,36
 33 364 33 364 76 433 c 0,37,38
 93 460 93 460 127.5 477 c 128,-1,39
 162 494 162 494 203.5 499.5 c 128,-1,40
 245 505 245 505 289 497.5 c 128,-1,41
 333 490 333 490 369.5 469.5 c 128,-1,42
 406 449 406 449 429 413.5 c 128,-1,43
 452 378 452 378 453 327 c 0,44,45
 453 292 453 292 452 273.5 c 128,-1,46
 451 255 451 255 440.5 246.5 c 128,-1,47
 430 238 430 238 406 237 c 128,-1,48
 382 236 382 236 337 237 c 0,0,1
259 412 m 1,49,50
 231 408 231 408 215.5 403.5 c 128,-1,51
 200 399 200 399 190 389.5 c 128,-1,52
 180 380 180 380 172.5 364.5 c 128,-1,53
 165 349 165 349 153 323 c 1,54,55
 204 324 204 324 257 321 c 128,-1,56
 310 318 310 318 360 320 c 1,57,58
 357 348 357 348 347.5 364.5 c 128,-1,59
 338 381 338 381 324 390.5 c 128,-1,60
 310 400 310 400 293.5 404.5 c 128,-1,61
 277 409 277 409 259 412 c 1,49,50
110 409 m 1,62,-1
 111 408 l 1,63,-1
 110 409 l 1,62,-1
EndSplineSet
EndChar

StartChar: f
Encoding: 102 102 73
Width: 382
GlyphClass: 2
Flags: W
LayerCount: 2
Back
Fore
SplineSet
69 346 m 0,0,1
 69 403 69 403 88.5 439 c 128,-1,2
 108 475 108 475 138.5 493.5 c 128,-1,3
 169 512 169 512 205.5 513 c 128,-1,4
 242 514 242 514 275.5 501 c 128,-1,5
 309 488 309 488 335 461 c 128,-1,6
 361 434 361 434 370 396 c 1,7,8
 361 385 361 385 350 384.5 c 128,-1,9
 339 384 339 384 328 394 c 0,10,11
 300 412 300 412 275.5 419 c 128,-1,12
 251 426 251 426 231.5 425 c 128,-1,13
 212 424 212 424 198.5 415.5 c 128,-1,14
 185 407 185 407 180 395 c 0,15,16
 164 355 164 355 165 334.5 c 128,-1,17
 166 314 166 314 176 304.5 c 128,-1,18
 186 295 186 295 202.5 293 c 128,-1,19
 219 291 219 291 234.5 289.5 c 128,-1,20
 250 288 250 288 261 283.5 c 128,-1,21
 272 279 272 279 272 263 c 0,22,23
 272 246 272 246 255 238 c 0,24,25
 239 232 239 232 226.5 230 c 128,-1,26
 214 228 214 228 203.5 225 c 128,-1,27
 193 222 193 222 183 214 c 128,-1,28
 173 206 173 206 161 187 c 1,29,-1
 161 182 l 2,30,31
 160 125 160 125 158.5 69 c 128,-1,32
 157 13 157 13 156 -44 c 0,33,34
 155 -86 155 -86 158.5 -129 c 128,-1,35
 162 -172 162 -172 156 -214 c 0,36,37
 156 -232 156 -232 136.5 -241.5 c 128,-1,38
 117 -251 117 -251 95.5 -250.5 c 128,-1,39
 74 -250 74 -250 57 -238.5 c 128,-1,40
 40 -227 40 -227 45 -203 c 0,41,42
 49 -180 49 -180 67 -170 c 1,43,-1
 67 -167 l 2,44,45
 67 -162 67 -162 67.5 -158.5 c 128,-1,46
 68 -155 68 -155 68 -151 c 0,47,48
 67 -128 67 -128 65.5 -106.5 c 128,-1,49
 64 -85 64 -85 64 -63 c 0,50,51
 63 16 63 16 63 94.5 c 128,-1,52
 63 173 63 173 65 252 c 0,53,54
 66 276 66 276 67.5 299.5 c 128,-1,55
 69 323 69 323 69 346 c 0,0,1
64 -193 m 2,56,57
 64 -196 64 -196 64.5 -194.5 c 128,-1,58
 65 -193 65 -193 65 -189 c 1,59,60
 65 -190 65 -190 64.5 -190 c 128,-1,61
 64 -190 64 -190 64 -191 c 2,62,-1
 64 -193 l 2,56,57
EndSplineSet
EndChar

StartChar: g
Encoding: 103 103 74
Width: 459
GlyphClass: 2
Flags: W
LayerCount: 2
Back
Fore
SplineSet
415 233 m 1,0,1
 407 207 407 207 407 166 c 128,-1,2
 407 125 407 125 408.5 78 c 128,-1,3
 410 31 410 31 411 -19 c 128,-1,4
 412 -69 412 -69 406.5 -112.5 c 128,-1,5
 401 -156 401 -156 385 -189.5 c 128,-1,6
 369 -223 369 -223 338 -238 c 0,7,8
 319 -247 319 -247 296.5 -250.5 c 128,-1,9
 274 -254 274 -254 253 -256 c 0,10,11
 230 -258 230 -258 205 -256 c 128,-1,12
 180 -254 180 -254 157 -249 c 0,13,14
 149 -248 149 -248 136 -239 c 128,-1,15
 123 -230 123 -230 110.5 -218.5 c 128,-1,16
 98 -207 98 -207 87.5 -194.5 c 128,-1,17
 77 -182 77 -182 74 -173 c 0,18,19
 71 -168 71 -168 70 -162 c 0,20,21
 57 -124 57 -124 67 -102.5 c 128,-1,22
 77 -81 77 -81 104 -81 c 0,23,24
 113 -82 113 -82 118 -88.5 c 128,-1,25
 123 -95 123 -95 129 -106 c 128,-1,26
 135 -117 135 -117 143.5 -131.5 c 128,-1,27
 152 -146 152 -146 169 -164 c 1,28,29
 185 -175 185 -175 205 -177.5 c 128,-1,30
 225 -180 225 -180 244.5 -177.5 c 128,-1,31
 264 -175 264 -175 281 -168.5 c 128,-1,32
 298 -162 298 -162 307 -153 c 0,33,34
 323 -137 323 -137 324 -109 c 128,-1,35
 325 -81 325 -81 321 -48.5 c 128,-1,36
 317 -16 317 -16 312.5 17 c 128,-1,37
 308 50 308 50 313 76 c 1,38,39
 299 55 299 55 273.5 34.5 c 128,-1,40
 248 14 248 14 222 9 c 0,41,42
 187 2 187 2 162.5 5 c 128,-1,43
 138 8 138 8 120 18.5 c 128,-1,44
 102 29 102 29 88 45.5 c 128,-1,45
 74 62 74 62 60 83 c 0,46,47
 33 123 33 123 25 169 c 128,-1,48
 17 215 17 215 23.5 260 c 128,-1,49
 30 305 30 305 50.5 344.5 c 128,-1,50
 71 384 71 384 102.5 411.5 c 128,-1,51
 134 439 134 439 174.5 451 c 128,-1,52
 215 463 215 463 263 452 c 0,53,54
 277 449 277 449 291 438 c 128,-1,55
 305 427 305 427 316 418 c 1,56,57
 321 443 321 443 329 455 c 0,58,59
 335 465 335 465 347 470 c 128,-1,60
 359 475 359 475 372 474.5 c 128,-1,61
 385 474 385 474 396.5 468 c 128,-1,62
 408 462 408 462 412 450 c 0,63,64
 420 427 420 427 421 399 c 128,-1,65
 422 371 422 371 420.5 342 c 128,-1,66
 419 313 419 313 417 284.5 c 128,-1,67
 415 256 415 256 415 233 c 1,0,1
308 287 m 0,68,69
 309 298 309 298 308.5 313.5 c 128,-1,70
 308 329 308 329 309 346 c 1,71,72
 305 349 305 349 300 357 c 0,73,74
 261 394 261 394 226.5 389.5 c 128,-1,75
 192 385 192 385 166 356.5 c 128,-1,76
 140 328 140 328 124.5 284.5 c 128,-1,77
 109 241 109 241 108.5 200 c 128,-1,78
 108 159 108 159 124.5 129 c 128,-1,79
 141 99 141 99 179 99 c 0,80,81
 195 99 195 99 210 105.5 c 128,-1,82
 225 112 225 112 238.5 121.5 c 128,-1,83
 252 131 252 131 263 141 c 128,-1,84
 274 151 274 151 282 157 c 0,85,86
 292 171 292 171 308 184 c 1,87,88
 306 239 306 239 308 287 c 0,68,69
EndSplineSet
EndChar

StartChar: h
Encoding: 104 104 75
Width: 454
GlyphClass: 2
Flags: W
LayerCount: 2
Back
Fore
SplineSet
364 -8 m 0,0,1
 338 -7 338 -7 332 15 c 128,-1,2
 326 37 326 37 329.5 74.5 c 128,-1,3
 333 112 333 112 340.5 162 c 128,-1,4
 348 212 348 212 349 270 c 0,5,6
 347 285 347 285 344.5 301.5 c 128,-1,7
 342 318 342 318 336.5 333.5 c 128,-1,8
 331 349 331 349 321 363 c 128,-1,9
 311 377 311 377 294 389 c 1,10,-1
 288 390 l 1,11,-1
 251 399 l 1,12,13
 238 391 238 391 227 385 c 128,-1,14
 216 379 216 379 205.5 370.5 c 128,-1,15
 195 362 195 362 185.5 349.5 c 128,-1,16
 176 337 176 337 166 316 c 1,17,18
 166 276 166 276 164 237 c 128,-1,19
 162 198 162 198 162 158 c 0,20,21
 162 147 162 147 163.5 125.5 c 128,-1,22
 165 104 165 104 164.5 80.5 c 128,-1,23
 164 57 164 57 159.5 36 c 128,-1,24
 155 15 155 15 143 5 c 0,25,26
 129 -3 129 -3 116 -2.5 c 128,-1,27
 103 -2 103 -2 94 4 c 1,28,29
 84 4 84 4 72 6.5 c 128,-1,30
 60 9 60 9 56 23 c 0,31,32
 52 38 52 38 53 63.5 c 128,-1,33
 54 89 54 89 56.5 116.5 c 128,-1,34
 59 144 59 144 61.5 168.5 c 128,-1,35
 64 193 64 193 64 205 c 0,36,37
 64 326 64 326 54.5 446.5 c 128,-1,38
 45 567 45 567 36 695 c 0,39,40
 39 709 39 709 47 719 c 0,41,42
 47 723 47 723 48 725 c 0,43,44
 65 753 65 753 80 756.5 c 128,-1,45
 95 760 95 760 107.5 746.5 c 128,-1,46
 120 733 120 733 129.5 706.5 c 128,-1,47
 139 680 139 680 144.5 648.5 c 128,-1,48
 150 617 150 617 152 583.5 c 128,-1,49
 154 550 154 550 151 523 c 1,50,-1
 162 407 l 1,51,52
 179 424 179 424 195 442.5 c 128,-1,53
 211 461 211 461 235 466 c 2,54,-1
 264 468 l 1,55,-1
 278 470 l 1,56,-1
 295 467 l 1,57,-1
 323 461 l 1,58,-1
 324 461 l 1,59,-1
 325 461 l 1,60,61
 350 453 350 453 369 437 c 1,62,-1
 369 436 l 2,63,64
 370 435 370 435 371 435 c 0,65,66
 401 414 401 414 412.5 385.5 c 128,-1,67
 424 357 424 357 426.5 324 c 128,-1,68
 429 291 429 291 426.5 256.5 c 128,-1,69
 424 222 424 222 426 189 c 0,70,71
 428 160 428 160 427 129.5 c 128,-1,72
 426 99 426 99 428 69 c 0,73,74
 429 44 429 44 428 30.5 c 128,-1,75
 427 17 427 17 420.5 9.5 c 128,-1,76
 414 2 414 2 401 -1.5 c 128,-1,77
 388 -5 388 -5 364 -8 c 0,0,1
EndSplineSet
EndChar

StartChar: i
Encoding: 105 105 76
Width: 197
GlyphClass: 2
Flags: W
LayerCount: 2
Back
Fore
SplineSet
106 641 m 0,0,1
 138 643 138 643 150.5 629.5 c 128,-1,2
 163 616 163 616 163 597 c 0,3,4
 163 590 163 590 161.5 581 c 128,-1,5
 160 572 160 572 152.5 563 c 128,-1,6
 145 554 145 554 130 548 c 128,-1,7
 115 542 115 542 88 541 c 1,8,9
 68 545 68 545 55.5 556 c 128,-1,10
 43 567 43 567 43 584 c 0,11,12
 43 591 43 591 44.5 600.5 c 128,-1,13
 46 610 46 610 52 618 c 128,-1,14
 58 626 58 626 70.5 632.5 c 128,-1,15
 83 639 83 639 106 641 c 0,0,1
153 25 m 0,16,17
 150 10 150 10 140 0.5 c 128,-1,18
 130 -9 130 -9 117 -11.5 c 128,-1,19
 104 -14 104 -14 91.5 -10 c 128,-1,20
 79 -6 79 -6 72 5 c 1,21,22
 61 7 61 7 51.5 15 c 128,-1,23
 42 23 42 23 37 38 c 1,24,25
 40 123 40 123 39 206 c 128,-1,26
 38 289 38 289 45 374 c 0,27,28
 46 392 46 392 46.5 408.5 c 128,-1,29
 47 425 47 425 49 440.5 c 128,-1,30
 51 456 51 456 57.5 470 c 128,-1,31
 64 484 64 484 79 497 c 0,32,33
 84 501 84 501 97.5 501 c 128,-1,34
 111 501 111 501 117 505 c 1,35,36
 138 496 138 496 146 479.5 c 128,-1,37
 154 463 154 463 156 443.5 c 128,-1,38
 158 424 158 424 155.5 403 c 128,-1,39
 153 382 153 382 153 363 c 0,40,41
 150 278 150 278 149.5 194 c 128,-1,42
 149 110 149 110 153 25 c 0,16,17
EndSplineSet
EndChar

StartChar: j
Encoding: 106 106 77
Width: 207
GlyphClass: 2
Flags: W
LayerCount: 2
Back
Fore
SplineSet
56 -153 m 0,0,1
 67 -141 67 -141 70.5 -122 c 128,-1,2
 74 -103 74 -103 72.5 -80.5 c 128,-1,3
 71 -58 71 -58 67.5 -33.5 c 128,-1,4
 64 -9 64 -9 61 14 c 0,5,6
 47 99 47 99 47 192 c 128,-1,7
 47 285 47 285 55 374 c 0,8,9
 56 392 56 392 56.5 408.5 c 128,-1,10
 57 425 57 425 59 440.5 c 128,-1,11
 61 456 61 456 67.5 470 c 128,-1,12
 74 484 74 484 89 497 c 0,13,14
 94 501 94 501 107.5 501 c 128,-1,15
 121 501 121 501 127 505 c 1,16,17
 148 496 148 496 156 479.5 c 128,-1,18
 164 463 164 463 166 443.5 c 128,-1,19
 168 424 168 424 165.5 403 c 128,-1,20
 163 382 163 382 163 363 c 1,21,22
 151 329 151 329 152 276.5 c 128,-1,23
 153 224 153 224 157.5 163.5 c 128,-1,24
 162 103 162 103 166 40 c 128,-1,25
 170 -23 170 -23 165.5 -78.5 c 128,-1,26
 161 -134 161 -134 143.5 -176.5 c 128,-1,27
 126 -219 126 -219 87 -238 c 0,28,29
 68 -247 68 -247 45.5 -250.5 c 128,-1,30
 23 -254 23 -254 2 -256 c 0,31,32
 -21 -258 -21 -258 -46 -256 c 128,-1,33
 -71 -254 -71 -254 -94 -249 c 0,34,35
 -102 -248 -102 -248 -115 -239 c 128,-1,36
 -128 -230 -128 -230 -140.5 -218.5 c 128,-1,37
 -153 -207 -153 -207 -163.5 -194.5 c 128,-1,38
 -174 -182 -174 -182 -177 -173 c 0,39,40
 -180 -168 -180 -168 -181 -162 c 0,41,42
 -194 -124 -194 -124 -184 -102.5 c 128,-1,43
 -174 -81 -174 -81 -147 -81 c 0,44,45
 -138 -82 -138 -82 -133 -88.5 c 128,-1,46
 -128 -95 -128 -95 -122 -106 c 128,-1,47
 -116 -117 -116 -117 -107.5 -131.5 c 128,-1,48
 -99 -146 -99 -146 -82 -164 c 1,49,50
 -66 -175 -66 -175 -46 -177.5 c 128,-1,51
 -26 -180 -26 -180 -6.5 -177.5 c 128,-1,52
 13 -175 13 -175 30 -168.5 c 128,-1,53
 47 -162 47 -162 56 -153 c 0,0,1
116 641 m 0,54,55
 148 643 148 643 160.5 629.5 c 128,-1,56
 173 616 173 616 173 597 c 0,57,58
 173 590 173 590 171.5 581 c 128,-1,59
 170 572 170 572 162.5 563 c 128,-1,60
 155 554 155 554 140 548 c 128,-1,61
 125 542 125 542 98 541 c 1,62,63
 78 545 78 545 65.5 556 c 128,-1,64
 53 567 53 567 53 584 c 0,65,66
 53 591 53 591 54.5 600.5 c 128,-1,67
 56 610 56 610 62 618 c 128,-1,68
 68 626 68 626 80.5 632.5 c 128,-1,69
 93 639 93 639 116 641 c 0,54,55
EndSplineSet
EndChar

StartChar: k
Encoding: 107 107 78
Width: 431
GlyphClass: 2
Flags: W
LayerCount: 2
Back
Fore
SplineSet
42 725 m 0,0,1
 59 753 59 753 74 756.5 c 128,-1,2
 89 760 89 760 101.5 746.5 c 128,-1,3
 114 733 114 733 123.5 706.5 c 128,-1,4
 133 680 133 680 138.5 648.5 c 128,-1,5
 144 617 144 617 146 583.5 c 128,-1,6
 148 550 148 550 145 523 c 1,7,-1
 158 323 l 1,8,9
 176 335 176 335 195 345.5 c 128,-1,10
 214 356 214 356 230 367 c 0,11,12
 249 381 249 381 261 390 c 128,-1,13
 273 399 273 399 283.5 407 c 128,-1,14
 294 415 294 415 305 423.5 c 128,-1,15
 316 432 316 432 333 445 c 0,16,17
 339 450 339 450 347 457.5 c 128,-1,18
 355 465 355 465 363.5 470 c 128,-1,19
 372 475 372 475 381 475.5 c 128,-1,20
 390 476 390 476 399 468 c 0,21,22
 414 456 414 456 410 440.5 c 128,-1,23
 406 425 406 425 393.5 411 c 128,-1,24
 381 397 381 397 366 385.5 c 128,-1,25
 351 374 351 374 344 368 c 0,26,27
 339 363 339 363 331 355 c 128,-1,28
 323 347 323 347 315 338.5 c 128,-1,29
 307 330 307 330 300.5 323 c 128,-1,30
 294 316 294 316 293 315 c 0,31,32
 277 299 277 299 259 288 c 0,33,34
 252 285 252 285 245 280 c 0,35,36
 245 276 245 276 240.5 273.5 c 128,-1,37
 236 271 236 271 233 268 c 0,38,39
 226 260 226 260 220.5 254 c 128,-1,40
 215 248 215 248 209 242 c 0,41,42
 210 240 210 240 211 239.5 c 128,-1,43
 212 239 212 239 213 238 c 0,44,45
 221 230 221 230 227.5 220.5 c 128,-1,46
 234 211 234 211 240 201 c 0,47,48
 249 191 249 191 258 181 c 128,-1,49
 267 171 267 171 277 162 c 0,50,51
 297 143 297 143 320 128.5 c 128,-1,52
 343 114 343 114 360 93 c 0,53,54
 375 76 375 76 386 56 c 128,-1,55
 397 36 397 36 385 13 c 1,56,57
 370 -5 370 -5 351.5 -5 c 128,-1,58
 333 -5 333 -5 322 8 c 0,59,60
 320 8 320 8 320 9 c 0,61,62
 309 19 309 19 303 30 c 0,63,64
 299 34 299 34 297 37 c 0,65,66
 282 57 282 57 282 58.5 c 128,-1,67
 282 60 282 60 285.5 57 c 128,-1,68
 289 54 289 54 289.5 53.5 c 128,-1,69
 290 53 290 53 276 70 c 0,70,71
 266 83 266 83 250.5 94 c 128,-1,72
 235 105 235 105 224 116 c 0,73,74
 223 117 223 117 215.5 125 c 128,-1,75
 208 133 208 133 198 143.5 c 128,-1,76
 188 154 188 154 178 164.5 c 128,-1,77
 168 175 168 175 162 181 c 2,78,-1
 156 187 l 1,79,-1
 156 158 l 2,80,81
 156 147 156 147 157.5 125.5 c 128,-1,82
 159 104 159 104 158.5 80.5 c 128,-1,83
 158 57 158 57 153.5 36 c 128,-1,84
 149 15 149 15 137 5 c 0,85,86
 123 -3 123 -3 110 -2.5 c 128,-1,87
 97 -2 97 -2 88 4 c 1,88,89
 78 4 78 4 66 6.5 c 128,-1,90
 54 9 54 9 50 23 c 0,91,92
 46 38 46 38 47 63.5 c 128,-1,93
 48 89 48 89 50.5 116.5 c 128,-1,94
 53 144 53 144 55.5 168.5 c 128,-1,95
 58 193 58 193 58 205 c 0,96,97
 58 326 58 326 48.5 446.5 c 128,-1,98
 39 567 39 567 30 695 c 0,99,100
 33 709 33 709 41 719 c 0,101,102
 41 723 41 723 42 725 c 0,0,1
233 272 m 0,103,104
 235 272 235 272 237.5 274.5 c 128,-1,105
 240 277 240 277 242 279 c 1,106,107
 230 272 230 272 233 272 c 0,103,104
EndSplineSet
EndChar

StartChar: l
Encoding: 108 108 79
Width: 310
GlyphClass: 2
Flags: W
LayerCount: 2
Back
Fore
SplineSet
120 -5 m 0,0,1
 118 -5 118 -5 117 -4.5 c 128,-1,2
 116 -4 116 -4 114 -4 c 0,3,4
 104 -8 104 -8 92 -7 c 128,-1,5
 80 -6 80 -6 69.5 -0.5 c 128,-1,6
 59 5 59 5 52.5 16.5 c 128,-1,7
 46 28 46 28 46 45 c 2,8,-1
 49 344 l 1,9,10
 42 377 42 377 42 415.5 c 128,-1,11
 42 454 42 454 42.5 493.5 c 128,-1,12
 43 533 43 533 40 570 c 128,-1,13
 37 607 37 607 24 637 c 1,14,15
 22 636 22 636 18 632 c 1,16,17
 2 641 2 641 -4 654 c 128,-1,18
 -10 667 -10 667 -7.5 679.5 c 128,-1,19
 -5 692 -5 692 6 701 c 128,-1,20
 17 710 17 710 35 710 c 1,21,22
 37 706 37 706 38 705 c 1,23,24
 45 712 45 712 61 714 c 0,25,26
 72 713 72 713 82 710.5 c 128,-1,27
 92 708 92 708 103 705 c 0,28,29
 109 707 109 707 115.5 707.5 c 128,-1,30
 122 708 122 708 128 708 c 0,31,32
 141 704 141 704 146 697 c 128,-1,33
 151 690 151 690 155 675 c 0,34,35
 165 594 165 594 160.5 511 c 128,-1,36
 156 428 156 428 153 347 c 0,37,38
 151 305 151 305 153.5 246.5 c 128,-1,39
 156 188 156 188 150 123 c 1,40,41
 154 118 154 118 156.5 112.5 c 128,-1,42
 159 107 159 107 159 101 c 1,43,44
 162 101 162 101 164 99 c 0,45,46
 173 97 173 97 190 99 c 128,-1,47
 207 101 207 101 225.5 103.5 c 128,-1,48
 244 106 244 106 261 107.5 c 128,-1,49
 278 109 278 109 287 108 c 0,50,51
 297 105 297 105 301 89.5 c 128,-1,52
 305 74 305 74 303 57 c 128,-1,53
 301 40 301 40 293.5 25 c 128,-1,54
 286 10 286 10 275 8 c 2,55,-1
 273 8 l 2,56,57
 259 7 259 7 239 6 c 128,-1,58
 219 5 219 5 197.5 3 c 128,-1,59
 176 1 176 1 155.5 -1 c 128,-1,60
 135 -3 135 -3 120 -5 c 0,0,1
EndSplineSet
EndChar

StartChar: m
Encoding: 109 109 80
Width: 666
GlyphClass: 2
Flags: W
LayerCount: 2
Back
Fore
SplineSet
53 -13 m 1,0,1
 48 -8 48 -8 35 0 c 1,2,3
 32 15 32 15 40 30 c 1,4,-1
 40 32 l 2,5,6
 41 37 41 37 42 48 c 128,-1,7
 43 59 43 59 43 60 c 0,8,9
 44 75 44 75 44.5 90.5 c 128,-1,10
 45 106 45 106 45 120 c 0,11,12
 46 166 46 166 44 211.5 c 128,-1,13
 42 257 42 257 45 302 c 0,14,15
 46 313 46 313 47 322.5 c 128,-1,16
 48 332 48 332 50 343 c 0,17,18
 49 358 49 358 47.5 376.5 c 128,-1,19
 46 395 46 395 45.5 413.5 c 128,-1,20
 45 432 45 432 44.5 450 c 128,-1,21
 44 468 44 468 45 483 c 0,22,23
 49 499 49 499 56 507 c 128,-1,24
 63 515 63 515 77 520 c 0,25,26
 78 521 78 521 80 521 c 0,27,28
 91 521 91 521 99 518 c 0,29,30
 103 518 103 518 105 517 c 0,31,32
 119 524 119 524 135.5 517 c 128,-1,33
 152 510 152 510 159 489 c 1,34,35
 174 497 174 497 191 502.5 c 128,-1,36
 208 508 208 508 224 506 c 0,37,38
 266 501 266 501 290 480 c 128,-1,39
 314 459 314 459 338 424 c 0,40,41
 340 420 340 420 342 418 c 1,42,43
 356 440 356 440 377.5 460 c 128,-1,44
 399 480 399 480 426 489 c 0,45,46
 460 500 460 500 493 498 c 128,-1,47
 526 496 526 496 553.5 479 c 128,-1,48
 581 462 581 462 601.5 429.5 c 128,-1,49
 622 397 622 397 633 346 c 0,50,51
 640 314 640 314 639.5 275.5 c 128,-1,52
 639 237 639 237 635 193 c 128,-1,53
 631 149 631 149 625 99.5 c 128,-1,54
 619 50 619 50 615 -3 c 1,55,56
 605 -13 605 -13 590 -19 c 128,-1,57
 575 -25 575 -25 561 -24.5 c 128,-1,58
 547 -24 547 -24 536 -15 c 128,-1,59
 525 -6 525 -6 523 14 c 0,60,61
 525 33 525 33 529 60 c 128,-1,62
 533 87 533 87 537.5 115.5 c 128,-1,63
 542 144 542 144 546 171 c 128,-1,64
 550 198 550 198 552 217 c 0,65,66
 554 238 554 238 549.5 261.5 c 128,-1,67
 545 285 545 285 535 305.5 c 128,-1,68
 525 326 525 326 510.5 340.5 c 128,-1,69
 496 355 496 355 477 357 c 128,-1,70
 458 359 458 359 436 345.5 c 128,-1,71
 414 332 414 332 389 297 c 0,72,73
 385 286 385 286 381.5 274 c 128,-1,74
 378 262 378 262 376 249 c 0,75,76
 372 220 372 220 373 190 c 128,-1,77
 374 160 374 160 376.5 130 c 128,-1,78
 379 100 379 100 382.5 70.5 c 128,-1,79
 386 41 386 41 386 11 c 0,80,81
 385 -16 385 -16 359 -20 c 0,82,83
 327 -25 327 -25 311 -21 c 128,-1,84
 295 -17 295 -17 289 -4 c 128,-1,85
 283 9 283 9 284 29 c 128,-1,86
 285 49 285 49 288 75 c 2,87,-1
 285 325 l 2,88,89
 282 336 282 336 277.5 345.5 c 128,-1,90
 273 355 273 355 268 364 c 0,91,92
 255 375 255 375 242 376 c 128,-1,93
 229 377 229 377 212 376 c 0,94,95
 181 374 181 374 163.5 356 c 128,-1,96
 146 338 146 338 138.5 311.5 c 128,-1,97
 131 285 131 285 131 253 c 128,-1,98
 131 221 131 221 134 190.5 c 128,-1,99
 137 160 137 160 141 135 c 128,-1,100
 145 110 145 110 146 97 c 0,101,102
 147 79 147 79 149.5 63.5 c 128,-1,103
 152 48 152 48 152.5 34 c 128,-1,104
 153 20 153 20 150 6 c 128,-1,105
 147 -8 147 -8 137 -23 c 1,106,-1
 53 -13 l 1,0,1
EndSplineSet
EndChar

StartChar: n
Encoding: 110 110 81
Width: 477
GlyphClass: 2
Flags: W
LayerCount: 2
Back
Fore
SplineSet
53 -13 m 1,0,1
 48 -8 48 -8 35 0 c 1,2,3
 32 15 32 15 40 30 c 1,4,-1
 40 32 l 2,5,6
 41 37 41 37 42 48 c 128,-1,7
 43 59 43 59 43 60 c 0,8,9
 44 75 44 75 44.5 90.5 c 128,-1,10
 45 106 45 106 45 120 c 0,11,12
 46 166 46 166 44 206.5 c 128,-1,13
 42 247 42 247 45 292 c 0,14,15
 46 303 46 303 47 312.5 c 128,-1,16
 48 322 48 322 50 333 c 0,17,18
 49 348 49 348 47.5 366.5 c 128,-1,19
 46 385 46 385 45.5 403.5 c 128,-1,20
 45 422 45 422 44.5 440 c 128,-1,21
 44 458 44 458 45 473 c 0,22,23
 49 489 49 489 56 497 c 128,-1,24
 63 505 63 505 77 510 c 0,25,26
 78 511 78 511 80 511 c 0,27,28
 91 511 91 511 99 508 c 0,29,30
 103 508 103 508 105 507 c 0,31,32
 119 514 119 514 135.5 507 c 128,-1,33
 152 500 152 500 159 479 c 1,34,35
 174 487 174 487 191 492.5 c 128,-1,36
 208 498 208 498 224 496 c 0,37,38
 275 490 275 490 317 483 c 128,-1,39
 359 476 359 476 387.5 455.5 c 128,-1,40
 416 435 416 435 430 396 c 128,-1,41
 444 357 444 357 439 287 c 0,42,43
 435 276 435 276 431.5 269 c 128,-1,44
 428 262 428 262 426 249 c 0,45,46
 422 220 422 220 423 190 c 128,-1,47
 424 160 424 160 426.5 130 c 128,-1,48
 429 100 429 100 432.5 70.5 c 128,-1,49
 436 41 436 41 436 11 c 0,50,51
 435 -16 435 -16 409 -20 c 0,52,53
 377 -25 377 -25 361 -21 c 128,-1,54
 345 -17 345 -17 339 -4 c 128,-1,55
 333 9 333 9 334 29 c 128,-1,56
 335 49 335 49 338 75 c 0,57,58
 342 149 342 149 345 200.5 c 128,-1,59
 348 252 348 252 347 286.5 c 128,-1,60
 346 321 346 321 339 340.5 c 128,-1,61
 332 360 332 360 317 370 c 128,-1,62
 302 380 302 380 276.5 382.5 c 128,-1,63
 251 385 251 385 212 386 c 0,64,65
 181 387 181 387 163.5 369 c 128,-1,66
 146 351 146 351 138.5 323 c 128,-1,67
 131 295 131 295 131 261 c 128,-1,68
 131 227 131 227 134 195 c 128,-1,69
 137 163 137 163 141 136.5 c 128,-1,70
 145 110 145 110 146 97 c 0,71,72
 147 79 147 79 149.5 63.5 c 128,-1,73
 152 48 152 48 152.5 34 c 128,-1,74
 153 20 153 20 150 6 c 128,-1,75
 147 -8 147 -8 137 -23 c 1,76,-1
 53 -13 l 1,0,1
EndSplineSet
EndChar

StartChar: o
Encoding: 111 111 82
Width: 444
GlyphClass: 2
Flags: W
LayerCount: 2
Back
Fore
SplineSet
296 484 m 1,0,1
 336 466 336 466 359 436.5 c 128,-1,2
 382 407 382 407 393.5 370.5 c 128,-1,3
 405 334 405 334 408 293 c 128,-1,4
 411 252 411 252 412 210 c 0,5,6
 413 186 413 186 408.5 154.5 c 128,-1,7
 404 123 404 123 391 101 c 0,8,9
 371 69 371 69 346 47 c 128,-1,10
 321 25 321 25 289 5 c 1,11,12
 259 -1 259 -1 230 -2.5 c 128,-1,13
 201 -4 201 -4 176 -2.5 c 128,-1,14
 151 -1 151 -1 132.5 3.5 c 128,-1,15
 114 8 114 8 106 14 c 0,16,17
 86 29 86 29 73 44.5 c 128,-1,18
 60 60 60 60 51 77 c 128,-1,19
 42 94 42 94 35.5 113.5 c 128,-1,20
 29 133 29 133 22 155 c 0,21,22
 11 191 11 191 13.5 240 c 128,-1,23
 16 289 16 289 30 338 c 128,-1,24
 44 387 44 387 69.5 428.5 c 128,-1,25
 95 470 95 470 130 491 c 0,26,27
 139 496 139 496 151.5 500.5 c 128,-1,28
 164 505 164 505 183.5 505.5 c 128,-1,29
 203 506 203 506 230 501 c 128,-1,30
 257 496 257 496 296 484 c 1,0,1
164 404 m 0,31,32
 155 400 155 400 148 390 c 128,-1,33
 141 380 141 380 136.5 368 c 128,-1,34
 132 356 132 356 128 345 c 128,-1,35
 124 334 124 334 121 328 c 0,36,37
 117 316 117 316 109.5 295 c 128,-1,38
 102 274 102 274 97 249.5 c 128,-1,39
 92 225 92 225 93 199.5 c 128,-1,40
 94 174 94 174 106 151.5 c 128,-1,41
 118 129 118 129 144.5 113 c 128,-1,42
 171 97 171 97 217 91 c 0,43,44
 245 87 245 87 264.5 100.5 c 128,-1,45
 284 114 284 114 296.5 136 c 128,-1,46
 309 158 309 158 316 183.5 c 128,-1,47
 323 209 323 209 326 229.5 c 128,-1,48
 329 250 329 250 329.5 261 c 128,-1,49
 330 272 330 272 331 265 c 1,50,51
 329 292 329 292 321 321.5 c 128,-1,52
 313 351 313 351 295 373.5 c 128,-1,53
 277 396 277 396 245.5 406.5 c 128,-1,54
 214 417 214 417 164 404 c 0,31,32
EndSplineSet
EndChar

StartChar: p
Encoding: 112 112 83
Width: 452
GlyphClass: 2
Flags: W
LayerCount: 2
Back
Fore
SplineSet
32 224 m 0,0,1
 32 247 32 247 29.5 275.5 c 128,-1,2
 27 304 27 304 25.5 333 c 128,-1,3
 24 362 24 362 25.5 390 c 128,-1,4
 27 418 27 418 35 441 c 0,5,6
 39 453 39 453 50.5 459 c 128,-1,7
 62 465 62 465 75 465.5 c 128,-1,8
 88 466 88 466 100 461 c 128,-1,9
 112 456 112 456 118 446 c 0,10,11
 126 434 126 434 131 409 c 1,12,13
 142 418 142 418 156 429 c 128,-1,14
 170 440 170 440 184 443 c 0,15,16
 231 454 231 454 272 442 c 128,-1,17
 313 430 313 430 344.5 402.5 c 128,-1,18
 376 375 376 375 396.5 335.5 c 128,-1,19
 417 296 417 296 423.5 251 c 128,-1,20
 430 206 430 206 421.5 160 c 128,-1,21
 413 114 413 114 387 74 c 0,22,23
 373 53 373 53 359 36.5 c 128,-1,24
 345 20 345 20 327 9.5 c 128,-1,25
 309 -1 309 -1 284.5 -4 c 128,-1,26
 260 -7 260 -7 225 0 c 0,27,28
 199 5 199 5 173.5 25.5 c 128,-1,29
 148 46 148 46 134 67 c 1,30,31
 133 52 133 52 133 37.5 c 128,-1,32
 133 23 133 23 133 9 c 0,33,34
 132 -24 132 -24 132.5 -60 c 128,-1,35
 133 -96 133 -96 133 -132 c 128,-1,36
 133 -168 133 -168 131 -204 c 128,-1,37
 129 -240 129 -240 123 -273 c 0,38,39
 120 -290 120 -290 105 -297 c 0,40,41
 104 -298 104 -298 104 -298.5 c 128,-1,42
 104 -299 104 -299 103 -300 c 0,43,44
 100 -301 100 -301 96.5 -301.5 c 128,-1,45
 93 -302 93 -302 90 -303 c 2,46,-1
 90 -302 l 1,47,48
 86 -302 86 -302 84 -298.5 c 128,-1,49
 82 -295 82 -295 78 -293 c 0,50,51
 77 -292 77 -292 75.5 -293.5 c 128,-1,52
 74 -295 74 -295 72 -295 c 0,53,54
 58 -291 58 -291 51 -291.5 c 128,-1,55
 44 -292 44 -292 35 -281 c 0,56,57
 33 -279 33 -279 31.5 -277 c 128,-1,58
 30 -275 30 -275 30 -273 c 0,59,60
 25 -228 25 -228 24.5 -164.5 c 128,-1,61
 24 -101 24 -101 25 -32 c 128,-1,62
 26 37 26 37 28 104 c 128,-1,63
 30 171 30 171 32 224 c 0,0,1
139 278 m 0,64,65
 141 230 141 230 139 175 c 1,66,67
 155 162 155 162 165 148 c 0,68,69
 173 142 173 142 184 132 c 128,-1,70
 195 122 195 122 208.5 112.5 c 128,-1,71
 222 103 222 103 237 96.5 c 128,-1,72
 252 90 252 90 268 90 c 0,73,74
 306 90 306 90 322.5 120 c 128,-1,75
 339 150 339 150 338.5 191 c 128,-1,76
 338 232 338 232 322.5 275.5 c 128,-1,77
 307 319 307 319 281 347.5 c 128,-1,78
 255 376 255 376 220 380.5 c 128,-1,79
 185 385 185 385 147 348 c 0,80,81
 142 340 142 340 138 337 c 1,82,83
 139 320 139 320 138.5 304.5 c 128,-1,84
 138 289 138 289 139 278 c 0,64,65
EndSplineSet
EndChar

StartChar: q
Encoding: 113 113 84
Width: 460
GlyphClass: 2
Flags: W
LayerCount: 2
Back
Fore
SplineSet
415 233 m 0,0,1
 417 180 417 180 419 113 c 128,-1,2
 421 46 421 46 422 -23 c 128,-1,3
 423 -92 423 -92 422 -155.5 c 128,-1,4
 421 -219 421 -219 417 -264 c 0,5,6
 417 -266 417 -266 415.5 -268 c 128,-1,7
 414 -270 414 -270 412 -272 c 0,8,9
 403 -283 403 -283 396 -282.5 c 128,-1,10
 389 -282 389 -282 375 -286 c 0,11,12
 373 -286 373 -286 371.5 -284.5 c 128,-1,13
 370 -283 370 -283 369 -284 c 0,14,15
 365 -286 365 -286 363 -289.5 c 128,-1,16
 361 -293 361 -293 357 -293 c 1,17,-1
 357 -294 l 2,18,19
 354 -293 354 -293 350.5 -292.5 c 128,-1,20
 347 -292 347 -292 344 -291 c 0,21,22
 343 -290 343 -290 343 -289.5 c 128,-1,23
 343 -289 343 -289 342 -288 c 0,24,25
 327 -281 327 -281 324 -264 c 0,26,27
 313 -197 313 -197 314 -123 c 128,-1,28
 315 -49 315 -49 314 18 c 0,29,30
 314 32 314 32 314 46.5 c 128,-1,31
 314 61 314 61 313 76 c 1,32,33
 299 55 299 55 273.5 34.5 c 128,-1,34
 248 14 248 14 222 9 c 0,35,36
 187 2 187 2 162.5 5 c 128,-1,37
 138 8 138 8 120 18.5 c 128,-1,38
 102 29 102 29 88 45.5 c 128,-1,39
 74 62 74 62 60 83 c 0,40,41
 33 123 33 123 25 169 c 128,-1,42
 17 215 17 215 23.5 260 c 128,-1,43
 30 305 30 305 50.5 344.5 c 128,-1,44
 71 384 71 384 102.5 411.5 c 128,-1,45
 134 439 134 439 174.5 451 c 128,-1,46
 215 463 215 463 263 452 c 0,47,48
 277 449 277 449 291 438 c 128,-1,49
 305 427 305 427 316 418 c 1,50,51
 321 443 321 443 329 455 c 0,52,53
 335 465 335 465 347 470 c 128,-1,54
 359 475 359 475 372 474.5 c 128,-1,55
 385 474 385 474 396.5 468 c 128,-1,56
 408 462 408 462 412 450 c 0,57,58
 420 427 420 427 421 399 c 128,-1,59
 422 371 422 371 420.5 342 c 128,-1,60
 419 313 419 313 417 284.5 c 128,-1,61
 415 256 415 256 415 233 c 0,0,1
308 287 m 0,62,63
 309 298 309 298 308.5 313.5 c 128,-1,64
 308 329 308 329 309 346 c 1,65,66
 305 349 305 349 300 357 c 0,67,68
 261 394 261 394 226.5 389.5 c 128,-1,69
 192 385 192 385 166 356.5 c 128,-1,70
 140 328 140 328 124.5 284.5 c 128,-1,71
 109 241 109 241 108.5 200 c 128,-1,72
 108 159 108 159 124.5 129 c 128,-1,73
 141 99 141 99 179 99 c 0,74,75
 195 99 195 99 210 105.5 c 128,-1,76
 225 112 225 112 238.5 121.5 c 128,-1,77
 252 131 252 131 263 141 c 128,-1,78
 274 151 274 151 282 157 c 0,79,80
 292 171 292 171 308 184 c 1,81,82
 306 239 306 239 308 287 c 0,62,63
EndSplineSet
EndChar

StartChar: r
Encoding: 114 114 85
Width: 352
GlyphClass: 2
Flags: W
LayerCount: 2
Back
Fore
SplineSet
305 446 m 1,0,1
 340 424 340 424 340 409 c 128,-1,2
 340 394 340 394 319.5 382 c 128,-1,3
 299 370 299 370 266.5 359 c 128,-1,4
 234 348 234 348 204 333 c 128,-1,5
 174 318 174 318 155 297 c 128,-1,6
 136 276 136 276 142 244 c 0,7,8
 141 239 141 239 140.5 235 c 128,-1,9
 140 231 140 231 140 229 c 0,10,11
 137 180 137 180 132 130.5 c 128,-1,12
 127 81 127 81 126 25 c 0,13,14
 125 5 125 5 111 -5 c 128,-1,15
 97 -15 97 -15 79.5 -15.5 c 128,-1,16
 62 -16 62 -16 46 -8.5 c 128,-1,17
 30 -1 30 -1 25 16 c 0,18,19
 21 25 21 25 21 30 c 128,-1,20
 21 35 21 35 23 42.5 c 128,-1,21
 25 50 25 50 28 63.5 c 128,-1,22
 31 77 31 77 33 102.5 c 128,-1,23
 35 128 35 128 35 170 c 128,-1,24
 35 212 35 212 32 276 c 1,25,26
 36 324 36 324 35 368.5 c 128,-1,27
 34 413 34 413 34 460 c 0,28,29
 34 474 34 474 43.5 484 c 128,-1,30
 53 494 53 494 67 498 c 128,-1,31
 81 502 81 502 97 498.5 c 128,-1,32
 113 495 113 495 126 482.5 c 128,-1,33
 139 470 139 470 146 446.5 c 128,-1,34
 153 423 153 423 149 387 c 1,35,36
 152 388 152 388 159 393 c 128,-1,37
 166 398 166 398 173.5 403 c 128,-1,38
 181 408 181 408 188 412.5 c 128,-1,39
 195 417 195 417 198 418 c 0,40,41
 221 435 221 435 251 440 c 128,-1,42
 281 445 281 445 305 446 c 1,0,1
EndSplineSet
EndChar

StartChar: s
Encoding: 115 115 86
Width: 406
GlyphClass: 2
Flags: W
LayerCount: 2
Back
Fore
SplineSet
375 472 m 1,0,1
 392 455 392 455 390.5 438 c 128,-1,2
 389 421 389 421 378 411 c 1,3,4
 379 402 379 402 378 395 c 0,5,6
 375 384 375 384 366.5 381 c 128,-1,7
 358 378 358 378 331 389 c 1,8,9
 300 396 300 396 292 400.5 c 128,-1,10
 284 405 284 405 280 409 c 0,11,12
 264 413 264 413 246.5 415.5 c 128,-1,13
 229 418 229 418 213 418 c 128,-1,14
 197 418 197 418 183 415 c 128,-1,15
 169 412 169 412 160 403 c 256,16,17
 151 394 151 394 146.5 381.5 c 128,-1,18
 142 369 142 369 143 356 c 128,-1,19
 144 343 144 343 148.5 331 c 128,-1,20
 153 319 153 319 162 311 c 0,21,22
 174 300 174 300 188.5 292 c 128,-1,23
 203 284 203 284 218 278 c 1,24,25
 236 276 236 276 251.5 273 c 128,-1,26
 267 270 267 270 282 264.5 c 128,-1,27
 297 259 297 259 313 249.5 c 128,-1,28
 329 240 329 240 349 227 c 0,29,30
 366 215 366 215 376.5 195 c 128,-1,31
 387 175 387 175 389 155 c 0,32,33
 390 132 390 132 386.5 107 c 128,-1,34
 383 82 383 82 373 60.5 c 128,-1,35
 363 39 363 39 345.5 23 c 128,-1,36
 328 7 328 7 302 2 c 0,37,38
 277 -3 277 -3 250 -2 c 128,-1,39
 223 -1 223 -1 200 -2 c 0,40,41
 168 -3 168 -3 137 -4.5 c 128,-1,42
 106 -6 106 -6 74 -6 c 0,43,44
 52 -5 52 -5 40 11 c 128,-1,45
 28 27 28 27 29.5 46 c 128,-1,46
 31 65 31 65 47 81 c 128,-1,47
 63 97 63 97 98 99 c 0,48,49
 118 98 118 98 139.5 96.5 c 128,-1,50
 161 95 161 95 182.5 95.5 c 128,-1,51
 204 96 204 96 225 100 c 128,-1,52
 246 104 246 104 266 114 c 1,53,54
 269 120 269 120 271.5 128.5 c 128,-1,55
 274 137 274 137 274.5 146 c 128,-1,56
 275 155 275 155 273.5 163.5 c 128,-1,57
 272 172 272 172 268 177 c 0,58,59
 260 187 260 187 250.5 194 c 128,-1,60
 241 201 241 201 231 207 c 0,61,62
 229 208 229 208 228 209 c 128,-1,63
 227 210 227 210 225 211 c 0,64,65
 199 223 199 223 168.5 229.5 c 128,-1,66
 138 236 138 236 110.5 245.5 c 128,-1,67
 83 255 83 255 63 272.5 c 128,-1,68
 43 290 43 290 39 323 c 0,69,70
 36 342 36 342 39.5 361.5 c 128,-1,71
 43 381 43 381 45 401 c 1,72,-1
 61 433 l 1,73,74
 87 464 87 464 127.5 482 c 128,-1,75
 168 500 168 500 212.5 505 c 128,-1,76
 257 510 257 510 300 501.5 c 128,-1,77
 343 493 343 493 375 472 c 1,0,1
EndSplineSet
EndChar

StartChar: t
Encoding: 116 116 87
Width: 437
GlyphClass: 2
Flags: W
LayerCount: 2
Back
Fore
SplineSet
77 681 m 0,0,1
 80 687 80 687 89.5 703 c 128,-1,2
 99 719 99 719 113.5 734.5 c 128,-1,3
 128 750 128 750 145 760 c 128,-1,4
 162 770 162 770 179 764 c 0,5,6
 202 750 202 750 209 729 c 128,-1,7
 216 708 216 708 214 685 c 0,8,9
 214 667 214 667 210.5 647 c 128,-1,10
 207 627 207 627 202 609 c 1,11,-1
 316 584 l 1,12,-1
 322 578 l 2,13,14
 327 578 327 578 332 577.5 c 128,-1,15
 337 577 337 577 343 577 c 0,16,17
 345 576 345 576 347.5 575 c 128,-1,18
 350 574 350 574 352 573 c 2,19,-1
 357 568 l 2,20,21
 358 567 358 567 360 563 c 0,22,23
 361 562 361 562 361 560 c 0,24,25
 362 557 362 557 362 553 c 0,26,27
 362 547 362 547 357 540 c 0,28,29
 357 539 357 539 355 537 c 2,30,-1
 353 535 l 2,31,32
 348 532 348 532 341 530 c 2,33,-1
 194 517 l 1,34,-1
 193 517 l 2,35,36
 191 517 191 517 190.5 516.5 c 128,-1,37
 190 516 190 516 189 516 c 0,38,39
 188 508 188 508 188 501.5 c 128,-1,40
 188 495 188 495 188 487 c 0,41,42
 189 463 189 463 188 428.5 c 128,-1,43
 187 394 187 394 187 354.5 c 128,-1,44
 187 315 187 315 188.5 274 c 128,-1,45
 190 233 190 233 197 195.5 c 128,-1,46
 204 158 204 158 217.5 126.5 c 128,-1,47
 231 95 231 95 254 75 c 0,48,49
 263 67 263 67 271.5 67 c 128,-1,50
 280 67 280 67 288 70 c 128,-1,51
 296 73 296 73 304.5 77 c 128,-1,52
 313 81 313 81 322 82 c 2,53,-1
 333 82 l 2,54,55
 335 85 335 85 337.5 90.5 c 128,-1,56
 340 96 340 96 341 99 c 0,57,58
 351 116 351 116 367 114 c 128,-1,59
 383 112 383 112 388 93 c 1,60,61
 388 66 388 66 377.5 46.5 c 128,-1,62
 367 27 367 27 349.5 15 c 128,-1,63
 332 3 332 3 310 -3 c 128,-1,64
 288 -9 288 -9 264 -9 c 1,65,66
 250 -15 250 -15 232 -11 c 128,-1,67
 214 -7 214 -7 196 3 c 0,68,69
 176 11 176 11 160.5 22.5 c 128,-1,70
 145 34 145 34 137 49 c 1,71,72
 126 60 126 60 118 70 c 128,-1,73
 110 80 110 80 106 87 c 0,74,75
 95 106 95 106 92 124.5 c 128,-1,76
 89 143 89 143 88 164 c 2,77,-1
 74 283 l 1,78,79
 72 346 72 346 70 409.5 c 128,-1,80
 68 473 68 473 69 537 c 1,81,-1
 -25 538 l 2,82,83
 -44 541 -44 541 -48 557 c 0,84,85
 -49 561 -49 561 -49 568 c 0,86,87
 -47 575 -47 575 -42 580 c 0,88,89
 -40 582 -40 582 -36 584 c 0,90,91
 -35 585 -35 585 -34 585 c 128,-1,92
 -33 585 -33 585 -32 586 c 0,93,94
 -29 587 -29 587 -23 587 c 0,95,96
 -15 587 -15 587 1.5 588 c 128,-1,97
 18 589 18 589 26 591 c 0,98,99
 37 594 37 594 43 598.5 c 128,-1,100
 49 603 49 603 53.5 608 c 128,-1,101
 58 613 58 613 62 618 c 128,-1,102
 66 623 66 623 72 626 c 1,103,104
 73 640 73 640 74 653.5 c 128,-1,105
 75 667 75 667 77 681 c 0,0,1
EndSplineSet
EndChar

StartChar: u
Encoding: 117 117 88
Width: 449
GlyphClass: 2
Flags: W
LayerCount: 2
Back
Fore
SplineSet
23 470 m 1,0,1
 26 483 26 483 35 491.5 c 128,-1,2
 44 500 44 500 55 503 c 128,-1,3
 66 506 66 506 78 504 c 128,-1,4
 90 502 90 502 98 495 c 0,5,6
 112 468 112 468 119 428.5 c 128,-1,7
 126 389 126 389 129.5 344.5 c 128,-1,8
 133 300 133 300 135 254.5 c 128,-1,9
 137 209 137 209 140 172 c 0,10,11
 141 157 141 157 142.5 148.5 c 128,-1,12
 144 140 144 140 146.5 134 c 128,-1,13
 149 128 149 128 153.5 121 c 128,-1,14
 158 114 158 114 165 101 c 0,15,16
 180 75 180 75 200 77.5 c 128,-1,17
 220 80 220 80 241 95.5 c 128,-1,18
 262 111 262 111 282.5 132 c 128,-1,19
 303 153 303 153 318 164 c 1,20,21
 320 262 320 262 321.5 339.5 c 128,-1,22
 323 417 323 417 332.5 461 c 128,-1,23
 342 505 342 505 364.5 509 c 128,-1,24
 387 513 387 513 430 464 c 1,25,26
 427 420 427 420 420.5 372.5 c 128,-1,27
 414 325 414 325 409 276 c 128,-1,28
 404 227 404 227 403.5 178 c 128,-1,29
 403 129 403 129 412 84 c 1,30,31
 413 99 413 99 414.5 92.5 c 128,-1,32
 416 86 416 86 417 72 c 128,-1,33
 418 58 418 58 418 42 c 128,-1,34
 418 26 418 26 415 20 c 0,35,36
 408 1 408 1 395.5 -6 c 128,-1,37
 383 -13 383 -13 369 -10 c 1,38,39
 352 -20 352 -20 332.5 -5.5 c 128,-1,40
 313 9 313 9 311 40 c 0,41,42
 310 48 310 48 310 56 c 128,-1,43
 310 64 310 64 310 72 c 1,44,45
 291 49 291 49 268.5 28.5 c 128,-1,46
 246 8 246 8 220 -4 c 0,47,48
 207 -10 207 -10 188 -13 c 128,-1,49
 169 -16 169 -16 155 -11 c 0,50,51
 113 3 113 3 87.5 35 c 128,-1,52
 62 67 62 67 48.5 109.5 c 128,-1,53
 35 152 35 152 31 202 c 128,-1,54
 27 252 27 252 26.5 300.5 c 128,-1,55
 26 349 26 349 26.5 393.5 c 128,-1,56
 27 438 27 438 23 470 c 1,0,1
EndSplineSet
EndChar

StartChar: v
Encoding: 118 118 89
Width: 505
GlyphClass: 2
Flags: W
LayerCount: 2
Back
Fore
SplineSet
15 452 m 0,0,1
 12 472 12 472 21.5 485 c 128,-1,2
 31 498 31 498 44.5 502 c 128,-1,3
 58 506 58 506 72.5 499 c 128,-1,4
 87 492 87 492 93 472 c 0,5,6
 96 457 96 457 103.5 437 c 128,-1,7
 111 417 111 417 132 374 c 1,8,9
 149 350 149 350 162 317.5 c 128,-1,10
 175 285 175 285 186 252.5 c 128,-1,11
 197 220 197 220 206.5 191 c 128,-1,12
 216 162 216 162 227 144 c 1,13,14
 239 170 239 170 253 207 c 128,-1,15
 267 244 267 244 283.5 284 c 128,-1,16
 300 324 300 324 319.5 363 c 128,-1,17
 339 402 339 402 362 432 c 128,-1,18
 385 462 385 462 413 479.5 c 128,-1,19
 441 497 441 497 474 495 c 1,20,21
 493 487 493 487 486 462 c 0,22,23
 484 460 484 460 484 459 c 0,24,25
 484 456 484 456 482 448 c 2,26,-1
 419 330 l 2,27,28
 411 312 411 312 399 282.5 c 128,-1,29
 387 253 387 253 372 219 c 128,-1,30
 357 185 357 185 339 148.5 c 128,-1,31
 321 112 321 112 302 80.5 c 128,-1,32
 283 49 283 49 263 25 c 128,-1,33
 243 1 243 1 224 -9 c 0,34,35
 212 -11 212 -11 204 -9.5 c 128,-1,36
 196 -8 196 -8 187 1 c 1,37,38
 133 113 133 113 90 224 c 128,-1,39
 47 335 47 335 15 452 c 0,0,1
EndSplineSet
EndChar

StartChar: w
Encoding: 119 119 90
Width: 646
GlyphClass: 2
Flags: W
LayerCount: 2
Back
Fore
SplineSet
-6 422 m 1,0,1
 -8 436 -8 436 -2.5 447.5 c 128,-1,2
 3 459 3 459 11 465 c 1,3,4
 5 487 5 487 24 495 c 1,5,6
 56 497 56 497 83 479 c 128,-1,7
 110 461 110 461 133 430.5 c 128,-1,8
 156 400 156 400 175.5 361 c 128,-1,9
 195 322 195 322 211.5 282 c 128,-1,10
 228 242 228 242 242.5 205.5 c 128,-1,11
 257 169 257 169 271 144 c 1,12,13
 293 203 293 203 311.5 236 c 128,-1,14
 330 269 330 269 351 270 c 0,15,16
 359 270 359 270 361.5 259.5 c 128,-1,17
 364 249 364 249 368 231 c 128,-1,18
 372 213 372 213 381 190 c 128,-1,19
 390 167 390 167 411 144 c 1,20,21
 425 166 425 166 438 201 c 128,-1,22
 451 236 451 236 464.5 275.5 c 128,-1,23
 478 315 478 315 493.5 356 c 128,-1,24
 509 397 509 397 528 430.5 c 128,-1,25
 547 464 547 464 570 487.5 c 128,-1,26
 593 511 593 511 623 517 c 1,27,28
 643 512 643 512 638 486 c 0,29,30
 636 484 636 484 636 482 c 0,31,32
 636 475 636 475 635 471 c 2,33,-1
 584 348 l 2,34,35
 578 329 578 329 569 298.5 c 128,-1,36
 560 268 560 268 548 232.5 c 128,-1,37
 536 197 536 197 522 159 c 128,-1,38
 508 121 508 121 492 88 c 128,-1,39
 476 55 476 55 459 29 c 128,-1,40
 442 3 442 3 424 -9 c 0,41,42
 412 -13 412 -13 404 -12 c 128,-1,43
 396 -11 396 -11 386 -3 c 0,44,45
 380 6 380 6 374 20 c 128,-1,46
 368 34 368 34 362 49.5 c 128,-1,47
 356 65 356 65 350 79 c 128,-1,48
 344 93 344 93 339 102 c 1,49,50
 335 94 335 94 331.5 80 c 128,-1,51
 328 66 328 66 325 51.5 c 128,-1,52
 322 37 322 37 318.5 23 c 128,-1,53
 315 9 315 9 311 1 c 0,54,55
 302 -8 302 -8 294 -9.5 c 128,-1,56
 286 -11 286 -11 274 -9 c 1,57,58
 256 1 256 1 237.5 23.5 c 128,-1,59
 219 46 219 46 201.5 76 c 128,-1,60
 184 106 184 106 168 140.5 c 128,-1,61
 152 175 152 175 138 209 c 0,62,63
 133 220 133 220 127 230 c 128,-1,64
 121 240 121 240 115 251 c 0,65,66
 87 296 87 296 54.5 336.5 c 128,-1,67
 22 377 22 377 -6 422 c 1,0,1
EndSplineSet
EndChar

StartChar: x
Encoding: 120 120 91
Width: 477
GlyphClass: 2
Flags: W
LayerCount: 2
Back
Fore
SplineSet
64 -33 m 1,0,1
 48 -36 48 -36 36 -31 c 128,-1,2
 24 -26 24 -26 17.5 -16.5 c 128,-1,3
 11 -7 11 -7 11 5 c 128,-1,4
 11 17 11 17 19 28 c 1,5,6
 6 38 6 38 4.5 53 c 128,-1,7
 3 68 3 68 12 80 c 0,8,9
 16 85 16 85 20.5 91.5 c 128,-1,10
 25 98 25 98 28 101 c 0,11,12
 49 121 49 121 67 137.5 c 128,-1,13
 85 154 85 154 105 175 c 0,14,15
 123 195 123 195 142 214 c 128,-1,16
 161 233 161 233 181 252 c 1,17,18
 152 300 152 300 124.5 348 c 128,-1,19
 97 396 97 396 63 441 c 1,20,21
 43 447 43 447 37 463 c 128,-1,22
 31 479 31 479 37 493 c 0,23,24
 38 504 38 504 44.5 512 c 128,-1,25
 51 520 51 520 60 523.5 c 128,-1,26
 69 527 69 527 80.5 525.5 c 128,-1,27
 92 524 92 524 103 517 c 1,28,-1
 143 509 l 2,29,30
 155 504 155 504 170.5 488 c 128,-1,31
 186 472 186 472 203.5 449 c 128,-1,32
 221 426 221 426 239 398.5 c 128,-1,33
 257 371 257 371 274 344 c 1,34,35
 281 352 281 352 288 360 c 128,-1,36
 295 368 295 368 302 376 c 0,37,38
 307 381 307 381 315 394.5 c 128,-1,39
 323 408 323 408 334 424 c 128,-1,40
 345 440 345 440 357.5 455 c 128,-1,41
 370 470 370 470 383 479 c 128,-1,42
 396 488 396 488 408.5 488 c 128,-1,43
 421 488 421 488 433 474 c 0,44,45
 441 463 441 463 436 449 c 1,46,47
 403 409 403 409 372.5 366.5 c 128,-1,48
 342 324 342 324 313 280 c 1,49,-1
 400 135 l 2,50,51
 403 129 403 129 406 123.5 c 128,-1,52
 409 118 409 118 411 112 c 0,53,54
 433 85 433 85 453 58 c 0,55,56
 463 45 463 45 460.5 33 c 128,-1,57
 458 21 458 21 444 13 c 0,58,59
 441 11 441 11 438.5 10 c 128,-1,60
 436 9 436 9 433 9 c 0,61,62
 427 -4 427 -4 414.5 -12.5 c 128,-1,63
 402 -21 402 -21 388 -16 c 0,64,65
 365 -9 365 -9 344.5 11 c 128,-1,66
 324 31 324 31 306.5 55.5 c 128,-1,67
 289 80 289 80 274 105 c 128,-1,68
 259 130 259 130 247 148 c 2,69,-1
 235 165 l 1,70,-1
 229 156 l 2,71,72
 194 105 194 105 156 53.5 c 128,-1,73
 118 2 118 2 64 -33 c 1,0,1
25 92 m 0,74,75
 24 91 24 91 24 90 c 1,76,77
 25 91 25 91 26 91.5 c 128,-1,78
 27 92 27 92 28 93 c 1,79,80
 27 92 27 92 25 92 c 0,74,75
EndSplineSet
EndChar

StartChar: y
Encoding: 121 121 92
Width: 502
GlyphClass: 2
Flags: W
LayerCount: 2
Back
Fore
SplineSet
-21 -272 m 0,0,1
 -39 -270 -39 -270 -49 -259.5 c 128,-1,2
 -59 -249 -59 -249 -60.5 -236.5 c 128,-1,3
 -62 -224 -62 -224 -54.5 -211.5 c 128,-1,4
 -47 -199 -47 -199 -30 -193 c 1,5,6
 -17 -193 -17 -193 6 -191 c 128,-1,7
 29 -189 29 -189 52.5 -185 c 128,-1,8
 76 -181 76 -181 96.5 -174 c 128,-1,9
 117 -167 117 -167 126 -156 c 0,10,11
 138 -142 138 -142 148 -126 c 128,-1,12
 158 -110 158 -110 169 -94 c 0,13,14
 199 -33 199 -33 212 7.5 c 128,-1,15
 225 48 225 48 225.5 75.5 c 128,-1,16
 226 103 226 103 216 120.5 c 128,-1,17
 206 138 206 138 189.5 154.5 c 128,-1,18
 173 171 173 171 152.5 190 c 128,-1,19
 132 209 132 209 112 239 c 2,20,-1
 57 326 l 2,21,22
 55 326 55 326 49 332.5 c 128,-1,23
 43 339 43 339 36.5 349 c 128,-1,24
 30 359 30 359 24.5 370 c 128,-1,25
 19 381 19 381 19 389 c 0,26,27
 20 394 20 394 24 404 c 0,28,29
 24 412 24 412 29 417 c 128,-1,30
 34 422 34 422 42 423 c 0,31,32
 56 430 56 430 72 424 c 128,-1,33
 88 418 88 418 96 398 c 1,34,35
 95 400 95 400 95 402 c 1,36,37
 110 376 110 376 121.5 359 c 128,-1,38
 133 342 133 342 141 330 c 128,-1,39
 149 318 149 318 155.5 309.5 c 128,-1,40
 162 301 162 301 168 293 c 0,41,42
 196 271 196 271 215.5 257.5 c 128,-1,43
 235 244 235 244 248.5 235 c 128,-1,44
 262 226 262 226 271 221 c 128,-1,45
 280 216 280 216 287 212 c 1,46,47
 289 216 289 216 290 219 c 128,-1,48
 291 222 291 222 293 226 c 0,49,50
 307 260 307 260 324 299 c 128,-1,51
 341 338 341 338 351 373 c 0,52,53
 354 385 354 385 357 397 c 128,-1,54
 360 409 360 409 362 420 c 0,55,56
 364 425 364 425 370.5 434 c 128,-1,57
 377 443 377 443 381 448 c 0,58,59
 383 450 383 450 383.5 451.5 c 128,-1,60
 384 453 384 453 385 455 c 0,61,62
 387 460 387 460 388 463 c 128,-1,63
 389 466 389 466 391 470 c 0,64,65
 401 488 401 488 420 491 c 1,66,67
 432 503 432 503 447 506 c 0,68,69
 463 506 463 506 473.5 499.5 c 128,-1,70
 484 493 484 493 489 483.5 c 128,-1,71
 494 474 494 474 492.5 462.5 c 128,-1,72
 491 451 491 451 483 442 c 0,73,74
 482 440 482 440 478.5 433.5 c 128,-1,75
 475 427 475 427 474 426 c 0,76,77
 469 416 469 416 463.5 406.5 c 128,-1,78
 458 397 458 397 453 386 c 0,79,80
 433 337 433 337 417 284 c 128,-1,81
 401 231 401 231 385.5 177.5 c 128,-1,82
 370 124 370 124 352.5 71 c 128,-1,83
 335 18 335 18 311.5 -32 c 128,-1,84
 288 -82 288 -82 256 -127.5 c 128,-1,85
 224 -173 224 -173 180 -212 c 0,86,87
 176 -215 176 -215 170 -221 c 0,88,89
 149 -239 149 -239 130.5 -249 c 128,-1,90
 112 -259 112 -259 91 -263.5 c 128,-1,91
 70 -268 70 -268 43.5 -269.5 c 128,-1,92
 17 -271 17 -271 -21 -272 c 0,0,1
EndSplineSet
EndChar

StartChar: z
Encoding: 122 122 93
Width: 547
GlyphClass: 2
Flags: W
LayerCount: 2
Back
Fore
SplineSet
432 491 m 1,0,1
 467 501 467 501 488.5 498 c 128,-1,2
 510 495 510 495 519.5 482 c 128,-1,3
 529 469 529 469 526 447.5 c 128,-1,4
 523 426 523 426 508 398 c 0,5,6
 487 365 487 365 450.5 328.5 c 128,-1,7
 414 292 414 292 373 256.5 c 128,-1,8
 332 221 332 221 291.5 187 c 128,-1,9
 251 153 251 153 220 125 c 0,10,11
 205 110 205 110 186 88 c 1,12,13
 216 83 216 83 250.5 76.5 c 128,-1,14
 285 70 285 70 323.5 66.5 c 128,-1,15
 362 63 362 63 402.5 63.5 c 128,-1,16
 443 64 443 64 484 74 c 1,17,18
 498 70 498 70 505.5 62 c 128,-1,19
 513 54 513 54 515 44 c 1,20,21
 530 39 530 39 530.5 25.5 c 128,-1,22
 531 12 531 12 517 4 c 0,23,24
 465 -11 465 -11 415 -13.5 c 128,-1,25
 365 -16 365 -16 314.5 -13 c 128,-1,26
 264 -10 264 -10 211 -6 c 128,-1,27
 158 -2 158 -2 101 -3 c 0,28,29
 87 -6 87 -6 74 -6 c 128,-1,30
 61 -6 61 -6 52 -1.5 c 128,-1,31
 43 3 43 3 39 12.5 c 128,-1,32
 35 22 35 22 38 39 c 0,33,34
 39 42 39 42 42 46.5 c 128,-1,35
 45 51 45 51 56 64 c 128,-1,36
 67 77 67 77 89.5 100.5 c 128,-1,37
 112 124 112 124 152 166 c 128,-1,38
 192 208 192 208 252.5 271 c 128,-1,39
 313 334 313 334 400 425 c 1,40,41
 385 423 385 423 370 420.5 c 128,-1,42
 355 418 355 418 338 418 c 0,43,44
 276 417 276 417 215 416 c 128,-1,45
 154 415 154 415 92 412 c 1,46,47
 74 416 74 416 56.5 434 c 128,-1,48
 39 452 39 452 32 471 c 128,-1,49
 25 490 25 490 32 504.5 c 128,-1,50
 39 519 39 519 71 518 c 0,51,52
 104 514 104 514 148 508 c 128,-1,53
 192 502 192 502 240.5 497.5 c 128,-1,54
 289 493 289 493 338.5 490.5 c 128,-1,55
 388 488 388 488 432 491 c 1,0,1
EndSplineSet
EndChar

StartChar: braceleft
Encoding: 123 123 94
Width: 381
GlyphClass: 2
Flags: W
LayerCount: 2
Back
Fore
SplineSet
281 652 m 0,0,1
 302 653 302 653 314 642 c 128,-1,2
 326 631 326 631 327.5 617 c 128,-1,3
 329 603 329 603 320 590 c 128,-1,4
 311 577 311 577 290 573 c 0,5,6
 276 571 276 571 262.5 571 c 128,-1,7
 249 571 249 571 235 567 c 0,8,9
 213 560 213 560 202.5 543.5 c 128,-1,10
 192 527 192 527 189.5 504.5 c 128,-1,11
 187 482 187 482 188.5 455.5 c 128,-1,12
 190 429 190 429 191.5 403 c 128,-1,13
 193 377 193 377 191.5 354 c 128,-1,14
 190 331 190 331 181 315 c 0,15,16
 174 304 174 304 157 291.5 c 128,-1,17
 140 279 140 279 132 273 c 0,18,19
 126 268 126 268 121 263.5 c 128,-1,20
 116 259 116 259 111 256 c 1,21,22
 141 235 141 235 156.5 212.5 c 128,-1,23
 172 190 172 190 179 166 c 128,-1,24
 186 142 186 142 187 117 c 128,-1,25
 188 92 188 92 188.5 66 c 128,-1,26
 189 40 189 40 191 13.5 c 128,-1,27
 193 -13 193 -13 202 -40 c 0,28,29
 211 -62 211 -62 213.5 -75 c 128,-1,30
 216 -88 216 -88 221 -95.5 c 128,-1,31
 226 -103 226 -103 239.5 -105 c 128,-1,32
 253 -107 253 -107 285 -106 c 1,33,34
 318 -121 318 -121 319.5 -139 c 128,-1,35
 321 -157 321 -157 305.5 -170.5 c 128,-1,36
 290 -184 290 -184 264.5 -188 c 128,-1,37
 239 -192 239 -192 217 -179 c 0,38,39
 175 -155 175 -155 158.5 -120.5 c 128,-1,40
 142 -86 142 -86 138.5 -46.5 c 128,-1,41
 135 -7 135 -7 137.5 35 c 128,-1,42
 140 77 140 77 135.5 115.5 c 128,-1,43
 131 154 131 154 113.5 187 c 128,-1,44
 96 220 96 220 53 242 c 0,45,46
 45 246 45 246 42.5 250.5 c 128,-1,47
 40 255 40 255 38 263 c 0,48,49
 38 275 38 275 43.5 279.5 c 128,-1,50
 49 284 49 284 57 285.5 c 128,-1,51
 65 287 65 287 74 288 c 128,-1,52
 83 289 83 289 89 293 c 0,53,54
 95 296 95 296 102.5 302.5 c 128,-1,55
 110 309 110 309 117 316 c 128,-1,56
 124 323 124 323 130 329.5 c 128,-1,57
 136 336 136 336 138 341 c 0,58,59
 144 350 144 350 143 369.5 c 128,-1,60
 142 389 142 389 139 411 c 128,-1,61
 136 433 136 433 132 453.5 c 128,-1,62
 128 474 128 474 128 486 c 0,63,64
 128 520 128 520 138 550.5 c 128,-1,65
 148 581 148 581 167.5 603.5 c 128,-1,66
 187 626 187 626 216 639 c 128,-1,67
 245 652 245 652 281 652 c 0,0,1
EndSplineSet
EndChar

StartChar: bar
Encoding: 124 124 95
Width: 833
GlyphClass: 2
Flags: W
LayerCount: 2
Back
Fore
SplineSet
260 690 m 1,0,1
 263 708 263 708 274 717.5 c 128,-1,2
 285 727 285 727 298 727.5 c 128,-1,3
 311 728 311 728 322.5 720 c 128,-1,4
 334 712 334 712 339 694 c 1,5,6
 331 534 331 534 330 377 c 128,-1,7
 329 220 329 220 337 60 c 0,8,9
 338 52 338 52 341.5 21 c 128,-1,10
 345 -10 345 -10 348 -46.5 c 128,-1,11
 351 -83 351 -83 351 -116 c 128,-1,12
 351 -149 351 -149 344 -160 c 0,13,14
 332 -173 332 -173 319 -176 c 128,-1,15
 306 -179 306 -179 294.5 -174 c 128,-1,16
 283 -169 283 -169 276 -158.5 c 128,-1,17
 269 -148 269 -148 271 -134 c 0,18,19
 276 -100 276 -100 277.5 -64 c 128,-1,20
 279 -28 279 -28 279 8 c 128,-1,21
 279 44 279 44 279.5 79.5 c 128,-1,22
 280 115 280 115 283 150 c 0,23,24
 287 286 287 286 278 420.5 c 128,-1,25
 269 555 269 555 260 690 c 1,0,1
EndSplineSet
EndChar

StartChar: asciitilde
Encoding: 126 126 97
Width: 623
GlyphClass: 2
Flags: W
LayerCount: 2
Back
Fore
SplineSet
81 171 m 0,0,1
 60 172 60 172 47 179 c 128,-1,2
 34 186 34 186 29 195.5 c 128,-1,3
 24 205 24 205 27 214.5 c 128,-1,4
 30 224 30 224 41 232 c 0,5,6
 41 233 41 233 42 234 c 0,7,8
 54 242 54 242 76 252.5 c 128,-1,9
 98 263 98 263 124 272 c 128,-1,10
 150 281 150 281 176.5 287 c 128,-1,11
 203 293 203 293 224 291 c 0,12,13
 256 288 256 288 275.5 281.5 c 128,-1,14
 295 275 295 275 310 266 c 128,-1,15
 325 257 325 257 340.5 247 c 128,-1,16
 356 237 356 237 382 227 c 0,17,18
 391 224 391 224 406.5 225 c 128,-1,19
 422 226 422 226 440.5 233 c 128,-1,20
 459 240 459 240 478 253 c 128,-1,21
 497 266 497 266 512 286 c 1,22,23
 533 298 533 298 551.5 295.5 c 128,-1,24
 570 293 570 293 581.5 281.5 c 128,-1,25
 593 270 593 270 593 254.5 c 128,-1,26
 593 239 593 239 577 226 c 0,27,28
 561 217 561 217 541 204.5 c 128,-1,29
 521 192 521 192 497.5 182 c 128,-1,30
 474 172 474 172 447.5 168 c 128,-1,31
 421 164 421 164 393 172 c 0,32,33
 373 178 373 178 351.5 191 c 128,-1,34
 330 204 330 204 309 217 c 128,-1,35
 288 230 288 230 267 238 c 128,-1,36
 246 246 246 246 227 242 c 0,37,38
 203 237 203 237 186 225.5 c 128,-1,39
 169 214 169 214 153 201.5 c 128,-1,40
 137 189 137 189 120.5 179.5 c 128,-1,41
 104 170 104 170 81 171 c 0,0,1
440 231 m 0,42,43
 438 236 438 236 437.5 236.5 c 128,-1,44
 437 237 437 237 438 235.5 c 128,-1,45
 439 234 439 234 439.5 232 c 128,-1,46
 440 230 440 230 440 231 c 0,42,43
EndSplineSet
EndChar

StartChar: cent
Encoding: 162 162 99
Width: 416
GlyphClass: 2
Flags: W
LayerCount: 2
Back
Fore
SplineSet
393 108 m 1,0,1
 377 68 377 68 340 40.5 c 128,-1,2
 303 13 303 13 258.5 1 c 128,-1,3
 214 -11 214 -11 168.5 -6 c 128,-1,4
 123 -1 123 -1 92 24 c 0,5,6
 61 48 61 48 43 85 c 128,-1,7
 25 122 25 122 18 163.5 c 128,-1,8
 11 205 11 205 12.5 248 c 128,-1,9
 14 291 14 291 22 328 c 0,10,11
 34 394 34 394 66.5 430.5 c 128,-1,12
 99 467 99 467 139.5 482.5 c 128,-1,13
 180 498 180 498 222 497.5 c 128,-1,14
 264 497 264 497 295 490 c 0,15,16
 311 487 311 487 329.5 478 c 128,-1,17
 348 469 348 469 363 456 c 128,-1,18
 378 443 378 443 386.5 427.5 c 128,-1,19
 395 412 395 412 391 394 c 1,20,21
 382 375 382 375 362 379 c 0,22,23
 356 381 356 381 352.5 383 c 128,-1,24
 349 385 349 385 344 389 c 0,25,26
 343 391 343 391 340 392.5 c 128,-1,27
 337 394 337 394 335 396 c 0,28,29
 317 401 317 401 299.5 408.5 c 128,-1,30
 282 416 282 416 264 421.5 c 128,-1,31
 246 427 246 427 228 428 c 128,-1,32
 210 429 210 429 192 421 c 0,33,34
 153 403 153 403 133.5 369 c 128,-1,35
 114 335 114 335 108 296 c 128,-1,36
 102 257 102 257 108 219 c 128,-1,37
 114 181 114 181 126 154 c 1,38,39
 142 139 142 139 155.5 128 c 128,-1,40
 169 117 169 117 185 112.5 c 128,-1,41
 201 108 201 108 221.5 110 c 128,-1,42
 242 112 242 112 272 121 c 0,43,44
 288 126 288 126 309.5 136.5 c 128,-1,45
 331 147 331 147 350 150.5 c 128,-1,46
 369 154 369 154 381.5 146.5 c 128,-1,47
 394 139 394 139 393 108 c 1,0,1
157 690 m 1,48,49
 160 708 160 708 171 717.5 c 128,-1,50
 182 727 182 727 195 727.5 c 128,-1,51
 208 728 208 728 219.5 720 c 128,-1,52
 231 712 231 712 236 694 c 1,53,54
 228 534 228 534 227 377 c 128,-1,55
 226 220 226 220 234 60 c 0,56,57
 235 52 235 52 238.5 21 c 128,-1,58
 242 -10 242 -10 245 -46.5 c 128,-1,59
 248 -83 248 -83 248 -116 c 128,-1,60
 248 -149 248 -149 241 -160 c 0,61,62
 229 -173 229 -173 216 -176 c 128,-1,63
 203 -179 203 -179 191.5 -174 c 128,-1,64
 180 -169 180 -169 173 -158.5 c 128,-1,65
 166 -148 166 -148 168 -134 c 0,66,67
 173 -100 173 -100 174.5 -64 c 128,-1,68
 176 -28 176 -28 176 8 c 128,-1,69
 176 44 176 44 176.5 79.5 c 128,-1,70
 177 115 177 115 180 150 c 0,71,72
 184 286 184 286 175 420.5 c 128,-1,73
 166 555 166 555 157 690 c 1,48,49
EndSplineSet
EndChar

StartChar: sterling
Encoding: 163 163 100
Width: 482
GlyphClass: 2
Flags: W
LayerCount: 2
Back
Fore
SplineSet
286 40 m 0,0,1
 247 48 247 48 215 43.5 c 128,-1,2
 183 39 183 39 157 29.5 c 128,-1,3
 131 20 131 20 111 9 c 128,-1,4
 91 -2 91 -2 75 -7 c 128,-1,5
 59 -12 59 -12 47.5 -7 c 128,-1,6
 36 -2 36 -2 27 20 c 0,7,8
 22 33 22 33 29.5 43.5 c 128,-1,9
 37 54 37 54 51.5 63.5 c 128,-1,10
 66 73 66 73 85.5 82 c 128,-1,11
 105 91 105 91 123.5 100.5 c 128,-1,12
 142 110 142 110 157 121 c 128,-1,13
 172 132 172 132 179 146 c 1,14,15
 171 185 171 185 167.5 234 c 128,-1,16
 164 283 164 283 166.5 334.5 c 128,-1,17
 169 386 169 386 177.5 436 c 128,-1,18
 186 486 186 486 202 527.5 c 128,-1,19
 218 569 218 569 243 599 c 128,-1,20
 268 629 268 629 302 640 c 128,-1,21
 336 651 336 651 381 639 c 128,-1,22
 426 627 426 627 482 586 c 1,23,-1
 549 527 l 2,24,25
 555 518 555 518 554.5 508 c 128,-1,26
 554 498 554 498 549 489 c 128,-1,27
 544 480 544 480 535 474.5 c 128,-1,28
 526 469 526 469 515 469 c 1,29,30
 501 461 501 461 484 465.5 c 128,-1,31
 467 470 467 470 456 490 c 1,32,33
 417 533 417 533 386.5 547 c 128,-1,34
 356 561 356 561 333.5 555 c 128,-1,35
 311 549 311 549 295.5 527 c 128,-1,36
 280 505 280 505 270.5 475.5 c 128,-1,37
 261 446 261 446 257 413.5 c 128,-1,38
 253 381 253 381 254 354 c 0,39,40
 255 329 255 329 254.5 305.5 c 128,-1,41
 254 282 254 282 254.5 258.5 c 128,-1,42
 255 235 255 235 259 211.5 c 128,-1,43
 263 188 263 188 272 163 c 1,44,45
 284 152 284 152 293.5 139.5 c 128,-1,46
 303 127 303 127 314 115 c 128,-1,47
 325 103 325 103 339 94 c 128,-1,48
 353 85 353 85 373.5 83 c 128,-1,49
 394 81 394 81 423 87 c 128,-1,50
 452 93 452 93 494 112 c 0,51,52
 506 120 506 120 517.5 117 c 128,-1,53
 529 114 529 114 535.5 104.5 c 128,-1,54
 542 95 542 95 540.5 81.5 c 128,-1,55
 539 68 539 68 525 55 c 0,56,57
 512 43 512 43 504 32 c 128,-1,58
 496 21 496 21 487 13.5 c 128,-1,59
 478 6 478 6 465 2 c 128,-1,60
 452 -2 452 -2 430 -2 c 0,61,62
 412 -1 412 -1 393.5 5.5 c 128,-1,63
 375 12 375 12 357 19.5 c 128,-1,64
 339 27 339 27 321 33.5 c 128,-1,65
 303 40 303 40 286 40 c 0,0,1
137 255 m 1,66,67
 116 257 116 257 106.5 269.5 c 128,-1,68
 97 282 97 282 97.5 296 c 128,-1,69
 98 310 98 310 109 321.5 c 128,-1,70
 120 333 120 333 141 334 c 1,71,72
 170 318 170 318 204 315.5 c 128,-1,73
 238 313 238 313 270 316 c 128,-1,74
 302 319 302 319 330.5 322.5 c 128,-1,75
 359 326 359 326 377.5 323 c 128,-1,76
 396 320 396 320 403 306.5 c 128,-1,77
 410 293 410 293 399 260 c 1,78,79
 386 256 386 256 368.5 256 c 128,-1,80
 351 256 351 256 332 258 c 128,-1,81
 313 260 313 260 295 263 c 128,-1,82
 277 266 277 266 264 267 c 0,83,84
 232 270 232 270 200.5 265.5 c 128,-1,85
 169 261 169 261 137 255 c 1,66,67
EndSplineSet
EndChar

StartChar: currency
Encoding: 164 164 101
Width: 833
GlyphClass: 2
Flags: W
LayerCount: 2
Back
Fore
SplineSet
232 527 m 1,0,1
 242 539 242 539 269 542.5 c 128,-1,2
 296 546 296 546 327.5 544 c 128,-1,3
 359 542 359 542 388.5 535.5 c 128,-1,4
 418 529 418 529 432 521 c 1,5,6
 451 532 451 532 461.5 547 c 128,-1,7
 472 562 472 562 482 579 c 0,8,9
 489 591 489 591 492.5 604.5 c 128,-1,10
 496 618 496 618 502 626.5 c 128,-1,11
 508 635 508 635 519.5 636.5 c 128,-1,12
 531 638 531 638 554 627 c 0,13,14
 567 621 567 621 573 610 c 128,-1,15
 579 599 579 599 577.5 587 c 128,-1,16
 576 575 576 575 566.5 565 c 128,-1,17
 557 555 557 555 539 551 c 0,18,19
 529 549 529 549 521 541.5 c 128,-1,20
 513 534 513 534 507 523.5 c 128,-1,21
 501 513 501 513 496 500.5 c 128,-1,22
 491 488 491 488 488 476 c 1,23,24
 510 453 510 453 519.5 430 c 128,-1,25
 529 407 529 407 526 375 c 2,26,-1
 526 373 l 2,27,28
 526 371 526 371 526 366 c 128,-1,29
 526 361 526 361 525 358 c 0,30,31
 523 338 523 338 521 319 c 128,-1,32
 519 300 519 300 511 281 c 0,33,34
 504 264 504 264 494.5 246 c 128,-1,35
 485 228 485 228 472 212 c 1,36,37
 487 181 487 181 505.5 152.5 c 128,-1,38
 524 124 524 124 560 106 c 1,39,40
 565 88 565 88 559 74.5 c 128,-1,41
 553 61 553 61 541.5 55 c 128,-1,42
 530 49 530 49 516.5 51 c 128,-1,43
 503 53 503 53 492 66 c 2,44,45
 492 66 492 66 491 67 c 0,46,47
 488 79 488 79 483 92.5 c 128,-1,48
 478 106 478 106 470.5 119 c 128,-1,49
 463 132 463 132 450.5 142.5 c 128,-1,50
 438 153 438 153 420 161 c 1,51,52
 402 145 402 145 380.5 139.5 c 128,-1,53
 359 134 359 134 335.5 135.5 c 128,-1,54
 312 137 312 137 288.5 143.5 c 128,-1,55
 265 150 265 150 244 156 c 1,56,57
 228 147 228 147 219 136 c 128,-1,58
 210 125 210 125 203 113 c 128,-1,59
 196 101 196 101 189.5 88 c 128,-1,60
 183 75 183 75 173 63 c 0,61,62
 157 47 157 47 139.5 49.5 c 128,-1,63
 122 52 122 52 113 64 c 128,-1,64
 104 76 104 76 107.5 93 c 128,-1,65
 111 110 111 110 138 123 c 0,66,67
 162 136 162 136 170 149.5 c 128,-1,68
 178 163 178 163 185 178 c 1,69,70
 157 211 157 211 141 255.5 c 128,-1,71
 125 300 125 300 124 344.5 c 128,-1,72
 123 389 123 389 138.5 429 c 128,-1,73
 154 469 154 469 190 494 c 1,74,75
 187 494 187 494 180.5 502 c 128,-1,76
 174 510 174 510 165 519.5 c 128,-1,77
 156 529 156 529 145 537 c 128,-1,78
 134 545 134 545 121 544 c 0,79,80
 113 544 113 544 105.5 547.5 c 128,-1,81
 98 551 98 551 94.5 558.5 c 128,-1,82
 91 566 91 566 93 577.5 c 128,-1,83
 95 589 95 589 106 604 c 0,84,85
 112 613 112 613 123 614 c 128,-1,86
 134 615 134 615 145.5 611 c 128,-1,87
 157 607 157 607 167 598 c 128,-1,88
 177 589 177 589 181 577 c 0,89,90
 182 572 182 572 182.5 568.5 c 128,-1,91
 183 565 183 565 187 559.5 c 128,-1,92
 191 554 191 554 201 546.5 c 128,-1,93
 211 539 211 539 232 527 c 1,0,1
214 220 m 1,94,95
 221 227 221 227 230.5 228 c 128,-1,96
 240 229 240 229 249 225.5 c 128,-1,97
 258 222 258 222 265.5 214.5 c 128,-1,98
 273 207 273 207 276 198 c 1,99,100
 295 192 295 192 309 185.5 c 128,-1,101
 323 179 323 179 335.5 177 c 128,-1,102
 348 175 348 175 362 179 c 128,-1,103
 376 183 376 183 396 198 c 1,104,105
 399 213 399 213 408 223.5 c 128,-1,106
 417 234 417 234 434 236 c 1,107,108
 449 257 449 257 458 281 c 128,-1,109
 467 305 467 305 470 329 c 0,110,111
 476 377 476 377 458 408 c 128,-1,112
 440 439 440 439 409 454 c 128,-1,113
 378 469 378 469 339.5 468.5 c 128,-1,114
 301 468 301 468 266.5 453.5 c 128,-1,115
 232 439 232 439 207.5 411 c 128,-1,116
 183 383 183 383 180 343 c 0,117,118
 180 313 180 313 190 281.5 c 128,-1,119
 200 250 200 250 214 220 c 1,94,95
EndSplineSet
EndChar

StartChar: yen
Encoding: 165 165 102
Width: 510
GlyphClass: 2
Flags: W
LayerCount: 2
Back
Fore
SplineSet
19 629 m 0,0,1
 16 635 16 635 11.5 649 c 128,-1,2
 7 663 7 663 9 674 c 0,3,4
 12 687 12 687 16.5 696.5 c 128,-1,5
 21 706 21 706 27.5 710 c 128,-1,6
 34 714 34 714 42 710.5 c 128,-1,7
 50 707 50 707 60 694 c 0,8,9
 93 653 93 653 115 614.5 c 128,-1,10
 137 576 137 576 155.5 541 c 128,-1,11
 174 506 174 506 194.5 474.5 c 128,-1,12
 215 443 215 443 246 417 c 1,13,14
 332 550 332 550 378.5 618.5 c 128,-1,15
 425 687 425 687 439 696 c 0,16,17
 446 699 446 699 452.5 701.5 c 128,-1,18
 459 704 459 704 464.5 703 c 128,-1,19
 470 702 470 702 474 694.5 c 128,-1,20
 478 687 478 687 479 669 c 0,21,22
 480 649 480 649 467 621 c 128,-1,23
 454 593 454 593 433.5 561 c 128,-1,24
 413 529 413 529 389 495.5 c 128,-1,25
 365 462 365 462 343.5 431 c 128,-1,26
 322 400 322 400 307.5 374 c 128,-1,27
 293 348 293 348 292 331 c 0,28,29
 289 292 289 292 291 251.5 c 128,-1,30
 293 211 293 211 295 170.5 c 128,-1,31
 297 130 297 130 297 89 c 128,-1,32
 297 48 297 48 290 8 c 0,33,34
 288 -2 288 -2 272 -7 c 128,-1,35
 256 -12 256 -12 237.5 -9.5 c 128,-1,36
 219 -7 219 -7 204 3.5 c 128,-1,37
 189 14 189 14 190 35 c 0,38,39
 195 96 195 96 197.5 171.5 c 128,-1,40
 200 247 200 247 208 340 c 1,41,-1
 205 346 l 2,42,43
 190 372 190 372 162.5 411 c 128,-1,44
 135 450 135 450 106 490.5 c 128,-1,45
 77 531 77 531 52.5 568.5 c 128,-1,46
 28 606 28 606 19 629 c 0,0,1
336 297 m 0,47,48
 345 296 345 296 359.5 297 c 128,-1,49
 374 298 374 298 390.5 299.5 c 128,-1,50
 407 301 407 301 422 301 c 128,-1,51
 437 301 437 301 447 297 c 0,52,53
 460 292 460 292 465 283 c 128,-1,54
 470 274 470 274 464.5 265.5 c 128,-1,55
 459 257 459 257 442.5 251 c 128,-1,56
 426 245 426 245 398 245 c 0,57,58
 356 244 356 244 319.5 244.5 c 128,-1,59
 283 245 283 245 247.5 245.5 c 128,-1,60
 212 246 212 246 175.5 246 c 128,-1,61
 139 246 139 246 97 244 c 0,62,63
 62 243 62 243 46.5 252.5 c 128,-1,64
 31 262 31 262 31 274 c 128,-1,65
 31 286 31 286 43.5 297 c 128,-1,66
 56 308 56 308 78 311 c 1,67,68
 145 306 145 306 207.5 305.5 c 128,-1,69
 270 305 270 305 336 297 c 0,47,48
174 134 m 0,70,71
 165 135 165 135 150.5 134 c 128,-1,72
 136 133 136 133 119.5 131.5 c 128,-1,73
 103 130 103 130 88 130 c 128,-1,74
 73 130 73 130 63 134 c 0,75,76
 49 139 49 139 44.5 148 c 128,-1,77
 40 157 40 157 45.5 165.5 c 128,-1,78
 51 174 51 174 67 180 c 128,-1,79
 83 186 83 186 112 186 c 0,80,81
 154 187 154 187 190.5 186.5 c 128,-1,82
 227 186 227 186 262.5 185.5 c 128,-1,83
 298 185 298 185 334.5 185 c 128,-1,84
 371 185 371 185 413 187 c 0,85,86
 448 188 448 188 463.5 178.5 c 128,-1,87
 479 169 479 169 479 157 c 128,-1,88
 479 145 479 145 466.5 134 c 128,-1,89
 454 123 454 123 432 120 c 1,90,91
 365 125 365 125 302.5 125.5 c 128,-1,92
 240 126 240 126 174 134 c 0,70,71
EndSplineSet
EndChar

StartChar: brokenbar
Encoding: 166 166 103
Width: 261
GlyphClass: 2
Flags: W
LayerCount: 2
Back
Fore
SplineSet
84 173 m 1,0,1
 87 191 87 191 98 200.5 c 128,-1,2
 109 210 109 210 122 210.5 c 128,-1,3
 135 211 135 211 146.5 203 c 128,-1,4
 158 195 158 195 163 177 c 1,5,6
 152 143 152 143 149 113.5 c 128,-1,7
 146 84 146 84 147 55.5 c 128,-1,8
 148 27 148 27 150.5 -3.5 c 128,-1,9
 153 -34 153 -34 154 -71 c 0,10,11
 154 -99 154 -99 153 -128 c 128,-1,12
 152 -157 152 -157 156 -186 c 1,13,14
 150 -193 150 -193 144.5 -199 c 128,-1,15
 139 -205 139 -205 129 -210 c 0,16,17
 120 -212 120 -212 113 -209 c 128,-1,18
 106 -206 106 -206 102 -189.5 c 128,-1,19
 98 -173 98 -173 98.5 -138.5 c 128,-1,20
 99 -104 99 -104 104 -42 c 1,21,-1
 84 173 l 1,0,1
78 634 m 1,22,23
 81 652 81 652 92 661.5 c 128,-1,24
 103 671 103 671 116 671.5 c 128,-1,25
 129 672 129 672 140.5 664 c 128,-1,26
 152 656 152 656 157 638 c 0,27,28
 160 594 160 594 160.5 567 c 128,-1,29
 161 540 161 540 160 517 c 0,30,31
 166 457 166 457 171 405 c 128,-1,32
 176 353 176 353 158 307 c 1,33,34
 149 296 149 296 137.5 297.5 c 128,-1,35
 126 299 126 299 120 312 c 0,36,37
 115 321 115 321 112.5 336.5 c 128,-1,38
 110 352 110 352 106.5 386 c 128,-1,39
 103 420 103 420 97 479 c 128,-1,40
 91 538 91 538 78 634 c 1,22,23
EndSplineSet
EndChar

StartChar: section
Encoding: 167 167 104
Width: 833
GlyphClass: 2
Flags: W
LayerCount: 2
Back
Fore
SplineSet
460 628 m 1,0,1
 467 606 467 606 455.5 593.5 c 128,-1,2
 444 581 444 581 422 574 c 128,-1,3
 400 567 400 567 371.5 563.5 c 128,-1,4
 343 560 343 560 314.5 556 c 128,-1,5
 286 552 286 552 261 546 c 128,-1,6
 236 540 236 540 223 528 c 0,7,8
 199 507 199 507 205.5 486 c 128,-1,9
 212 465 212 465 233.5 446 c 128,-1,10
 255 427 255 427 282.5 411.5 c 128,-1,11
 310 396 310 396 327 387 c 0,12,13
 347 376 347 376 369.5 365.5 c 128,-1,14
 392 355 392 355 413 342 c 128,-1,15
 434 329 434 329 452 312.5 c 128,-1,16
 470 296 470 296 482 273 c 0,17,18
 492 254 492 254 493.5 231 c 128,-1,19
 495 208 495 208 489.5 184.5 c 128,-1,20
 484 161 484 161 472.5 140.5 c 128,-1,21
 461 120 461 120 445 105 c 0,22,23
 439 100 439 100 422 95 c 128,-1,24
 405 90 405 90 385.5 86 c 128,-1,25
 366 82 366 82 347.5 81 c 128,-1,26
 329 80 329 80 321 84 c 0,27,28
 296 97 296 97 310 119 c 0,29,30
 320 129 320 129 332.5 131 c 128,-1,31
 345 133 345 133 359.5 135.5 c 128,-1,32
 374 138 374 138 389.5 144 c 128,-1,33
 405 150 405 150 422 168 c 1,34,-1
 443 204 l 1,35,36
 441 223 441 223 427 245.5 c 128,-1,37
 413 268 413 268 399 279 c 0,38,39
 379 294 379 294 342.5 313.5 c 128,-1,40
 306 333 306 333 266.5 356 c 128,-1,41
 227 379 227 379 191.5 405 c 128,-1,42
 156 431 156 431 136.5 457.5 c 128,-1,43
 117 484 117 484 121 510.5 c 128,-1,44
 125 537 125 537 165 562 c 1,45,-1
 290 616 l 2,46,47
 306 620 306 620 330.5 626 c 128,-1,48
 355 632 355 632 380.5 635.5 c 128,-1,49
 406 639 406 639 428 638 c 128,-1,50
 450 637 450 637 460 628 c 1,0,1
150 -144 m 1,51,52
 143 -123 143 -123 154.5 -110 c 128,-1,53
 166 -97 166 -97 188 -90 c 128,-1,54
 210 -83 210 -83 238.5 -79.5 c 128,-1,55
 267 -76 267 -76 295.5 -72 c 128,-1,56
 324 -68 324 -68 348.5 -62 c 128,-1,57
 373 -56 373 -56 387 -44 c 0,58,59
 411 -23 411 -23 404.5 -2 c 128,-1,60
 398 19 398 19 376.5 38 c 128,-1,61
 355 57 355 57 327.5 72.5 c 128,-1,62
 300 88 300 88 283 97 c 0,63,64
 263 108 263 108 240.5 118.5 c 128,-1,65
 218 129 218 129 197 142 c 128,-1,66
 176 155 176 155 158 171.5 c 128,-1,67
 140 188 140 188 128 211 c 0,68,69
 118 230 118 230 116.5 253 c 128,-1,70
 115 276 115 276 120 299.5 c 128,-1,71
 125 323 125 323 136.5 343.5 c 128,-1,72
 148 364 148 364 165 379 c 0,73,74
 171 383 171 383 188 388.5 c 128,-1,75
 205 394 205 394 224.5 397.5 c 128,-1,76
 244 401 244 401 262.5 402.5 c 128,-1,77
 281 404 281 404 289 400 c 0,78,79
 314 387 314 387 300 365 c 0,80,81
 290 355 290 355 277.5 353 c 128,-1,82
 265 351 265 351 250.5 348.5 c 128,-1,83
 236 346 236 346 220 340 c 128,-1,84
 204 334 204 334 188 316 c 1,85,-1
 167 280 l 1,86,87
 169 261 169 261 183 238.5 c 128,-1,88
 197 216 197 216 211 205 c 0,89,90
 231 190 231 190 267.5 170.5 c 128,-1,91
 304 151 304 151 343.5 128 c 128,-1,92
 383 105 383 105 418.5 79 c 128,-1,93
 454 53 454 53 473.5 26.5 c 128,-1,94
 493 0 493 0 489 -26.5 c 128,-1,95
 485 -53 485 -53 445 -78 c 1,96,-1
 320 -132 l 2,97,98
 304 -137 304 -137 279.5 -142.5 c 128,-1,99
 255 -148 255 -148 229.5 -151.5 c 128,-1,100
 204 -155 204 -155 182 -154 c 128,-1,101
 160 -153 160 -153 150 -144 c 1,51,52
EndSplineSet
EndChar

StartChar: dieresis
Encoding: 168 168 105
Width: 219
GlyphClass: 2
Flags: W
LayerCount: 2
Back
Fore
SplineSet
75 642 m 1,0,1
 106 666 106 666 124 663 c 128,-1,2
 142 660 142 660 148.5 642 c 128,-1,3
 155 624 155 624 152.5 598.5 c 128,-1,4
 150 573 150 573 140 552 c 128,-1,5
 130 531 130 531 115 521 c 128,-1,6
 100 511 100 511 82 526 c 0,7,8
 75 530 75 530 73 534 c 0,9,10
 71 536 71 536 68.5 537 c 128,-1,11
 66 538 66 538 64 540 c 0,12,13
 53 549 53 549 45.5 566.5 c 128,-1,14
 38 584 38 584 37.5 601.5 c 128,-1,15
 37 619 37 619 45.5 631.5 c 128,-1,16
 54 644 54 644 75 642 c 1,0,1
253 642 m 1,17,18
 284 666 284 666 302 663 c 128,-1,19
 320 660 320 660 326.5 642 c 128,-1,20
 333 624 333 624 330.5 598.5 c 128,-1,21
 328 573 328 573 318 552 c 128,-1,22
 308 531 308 531 293 521 c 128,-1,23
 278 511 278 511 260 526 c 0,24,25
 253 530 253 530 251 534 c 0,26,27
 249 536 249 536 246.5 537 c 128,-1,28
 244 538 244 538 242 540 c 0,29,30
 231 549 231 549 223.5 566.5 c 128,-1,31
 216 584 216 584 215.5 601.5 c 128,-1,32
 215 619 215 619 223.5 631.5 c 128,-1,33
 232 644 232 644 253 642 c 1,17,18
EndSplineSet
EndChar

StartChar: copyright
Encoding: 169 169 106
Width: 416
GlyphClass: 2
Flags: W
LayerCount: 2
Back
Fore
SplineSet
98 584 m 0,0,1
 127 615 127 615 164.5 632 c 128,-1,2
 202 649 202 649 243 655.5 c 128,-1,3
 284 662 284 662 325 660 c 128,-1,4
 366 658 366 658 403 651 c 0,5,6
 535 622 535 622 582 498 c 0,7,8
 596 460 596 460 601.5 417.5 c 128,-1,9
 607 375 607 375 599 335 c 0,10,11
 586 264 586 264 545.5 208.5 c 128,-1,12
 505 153 505 153 448 119.5 c 128,-1,13
 391 86 391 86 323.5 77.5 c 128,-1,14
 256 69 256 69 189 93 c 0,15,16
 149 107 149 107 122.5 134 c 128,-1,17
 96 161 96 161 77.5 194.5 c 128,-1,18
 59 228 59 228 47 266.5 c 128,-1,19
 35 305 35 305 25 342 c 0,20,21
 17 372 17 372 19.5 405.5 c 128,-1,22
 22 439 22 439 33 471.5 c 128,-1,23
 44 504 44 504 61 533.5 c 128,-1,24
 78 563 78 563 98 584 c 0,0,1
447 562 m 0,25,26
 418 575 418 575 387 576 c 128,-1,27
 356 577 356 577 326 583 c 1,28,29
 302 583 302 583 277.5 582.5 c 128,-1,30
 253 582 253 582 230 577.5 c 128,-1,31
 207 573 207 573 185 563.5 c 128,-1,32
 163 554 163 554 145 537 c 0,33,34
 110 504 110 504 96.5 470 c 128,-1,35
 83 436 83 436 82 400.5 c 128,-1,36
 81 365 81 365 89.5 328 c 128,-1,37
 98 291 98 291 107 251 c 0,38,39
 112 235 112 235 120.5 216 c 128,-1,40
 129 197 129 197 144 178.5 c 128,-1,41
 159 160 159 160 181.5 145.5 c 128,-1,42
 204 131 204 131 237 124 c 0,43,44
 295 112 295 112 350.5 131 c 128,-1,45
 406 150 406 150 450.5 188.5 c 128,-1,46
 495 227 495 227 523.5 278.5 c 128,-1,47
 552 330 552 330 556 382.5 c 128,-1,48
 560 435 560 435 535 483 c 128,-1,49
 510 531 510 531 447 562 c 0,25,26
437 264 m 1,50,51
 427 238 427 238 403 220.5 c 128,-1,52
 379 203 379 203 350 195 c 128,-1,53
 321 187 321 187 291.5 190.5 c 128,-1,54
 262 194 262 194 242 210 c 256,55,56
 222 226 222 226 210.5 249.5 c 128,-1,57
 199 273 199 273 194 300 c 128,-1,58
 189 327 189 327 190 355 c 128,-1,59
 191 383 191 383 196 407 c 0,60,61
 204 450 204 450 225 473.5 c 128,-1,62
 246 497 246 497 272 507 c 128,-1,63
 298 517 298 517 325.5 516.5 c 128,-1,64
 353 516 353 516 373 512 c 0,65,66
 383 510 383 510 395.5 504 c 128,-1,67
 408 498 408 498 417.5 490 c 128,-1,68
 427 482 427 482 433 471.5 c 128,-1,69
 439 461 439 461 436 450 c 0,70,71
 430 437 430 437 417 440 c 0,72,73
 412 441 412 441 405 446 c 0,74,75
 404 448 404 448 402.5 448.5 c 128,-1,76
 401 449 401 449 399 451 c 0,77,78
 388 454 388 454 376.5 459 c 128,-1,79
 365 464 365 464 353.5 467.5 c 128,-1,80
 342 471 342 471 330 471.5 c 128,-1,81
 318 472 318 472 306 467 c 0,82,83
 281 456 281 456 268.5 434 c 128,-1,84
 256 412 256 412 252 386.5 c 128,-1,85
 248 361 248 361 252 336 c 128,-1,86
 256 311 256 311 264 294 c 1,87,88
 274 284 274 284 282.5 277 c 128,-1,89
 291 270 291 270 301.5 267 c 128,-1,90
 312 264 312 264 325 265.5 c 128,-1,91
 338 267 338 267 358 273 c 0,92,93
 368 276 368 276 382 282.5 c 128,-1,94
 396 289 396 289 408.5 291.5 c 128,-1,95
 421 294 421 294 429.5 289 c 128,-1,96
 438 284 438 284 437 264 c 1,50,51
EndSplineSet
EndChar

StartChar: logicalnot
Encoding: 172 172 109
Width: 616
GlyphClass: 2
Flags: W
LayerCount: 2
Back
Fore
SplineSet
79 401 m 0,0,1
 58 403 58 403 48.5 415.5 c 128,-1,2
 39 428 39 428 39.5 442 c 128,-1,3
 40 456 40 456 51 467.5 c 128,-1,4
 62 479 62 479 83 480 c 0,5,6
 159 473 159 473 234 464.5 c 128,-1,7
 309 456 309 456 385 451 c 0,8,9
 389 451 389 451 402 451 c 128,-1,10
 415 451 415 451 430 451.5 c 128,-1,11
 445 452 445 452 460.5 453 c 128,-1,12
 476 454 476 454 485 454 c 2,13,-1
 479 454 l 2,14,15
 476 454 476 454 481.5 455.5 c 128,-1,16
 487 457 487 457 489 458 c 0,17,18
 500 463 500 463 512.5 464.5 c 128,-1,19
 525 466 525 466 534 456 c 0,20,21
 542 448 542 448 547 436 c 128,-1,22
 552 424 552 424 554 411 c 128,-1,23
 556 398 556 398 557 384.5 c 128,-1,24
 558 371 558 371 559 361 c 0,25,26
 561 341 561 341 562 321.5 c 128,-1,27
 563 302 563 302 564 282 c 0,28,29
 563 261 563 261 551.5 250 c 128,-1,30
 540 239 540 239 526 238.5 c 128,-1,31
 512 238 512 238 499.5 247.5 c 128,-1,32
 487 257 487 257 485 278 c 1,33,34
 488 307 488 307 493.5 341.5 c 128,-1,35
 499 376 499 376 494 406 c 1,36,37
 491 403 491 403 485 403 c 0,38,39
 383 409 383 409 282.5 408.5 c 128,-1,40
 182 408 182 408 79 401 c 0,0,1
495 454 m 1,41,-1
 487 454 l 1,42,-1
 495 454 l 1,41,-1
EndSplineSet
EndChar

StartChar: registered
Encoding: 174 174 110
Width: 833
GlyphClass: 2
Flags: W
LayerCount: 2
Back
Fore
SplineSet
98 584 m 0,0,1
 127 615 127 615 164.5 632 c 128,-1,2
 202 649 202 649 243 655.5 c 128,-1,3
 284 662 284 662 325 660 c 128,-1,4
 366 658 366 658 403 651 c 0,5,6
 535 622 535 622 582 498 c 0,7,8
 596 460 596 460 601.5 417.5 c 128,-1,9
 607 375 607 375 599 335 c 0,10,11
 586 264 586 264 545.5 208.5 c 128,-1,12
 505 153 505 153 448 119.5 c 128,-1,13
 391 86 391 86 323.5 77.5 c 128,-1,14
 256 69 256 69 189 93 c 0,15,16
 149 107 149 107 122.5 134 c 128,-1,17
 96 161 96 161 77.5 194.5 c 128,-1,18
 59 228 59 228 47 266.5 c 128,-1,19
 35 305 35 305 25 342 c 0,20,21
 17 372 17 372 19.5 405.5 c 128,-1,22
 22 439 22 439 33 471.5 c 128,-1,23
 44 504 44 504 61 533.5 c 128,-1,24
 78 563 78 563 98 584 c 0,0,1
447 562 m 0,25,26
 418 575 418 575 387 576 c 128,-1,27
 356 577 356 577 326 583 c 1,28,29
 302 583 302 583 277.5 582.5 c 128,-1,30
 253 582 253 582 230 577.5 c 128,-1,31
 207 573 207 573 185 563.5 c 128,-1,32
 163 554 163 554 145 537 c 0,33,34
 110 504 110 504 96.5 470 c 128,-1,35
 83 436 83 436 82 400.5 c 128,-1,36
 81 365 81 365 89.5 328 c 128,-1,37
 98 291 98 291 107 251 c 0,38,39
 112 235 112 235 120.5 216 c 128,-1,40
 129 197 129 197 144 178.5 c 128,-1,41
 159 160 159 160 181.5 145.5 c 128,-1,42
 204 131 204 131 237 124 c 0,43,44
 295 112 295 112 350.5 131 c 128,-1,45
 406 150 406 150 450.5 188.5 c 128,-1,46
 495 227 495 227 523.5 278.5 c 128,-1,47
 552 330 552 330 556 382.5 c 128,-1,48
 560 435 560 435 535 483 c 128,-1,49
 510 531 510 531 447 562 c 0,25,26
254 352 m 1,50,51
 254 352 254 352 253 353 c 2,52,-1
 247 210 l 1,53,54
 234 206 234 206 221.5 206 c 128,-1,55
 209 206 209 206 185 215 c 1,56,57
 188 236 188 236 189 266.5 c 128,-1,58
 190 297 190 297 191 331 c 128,-1,59
 192 365 192 365 192 399 c 128,-1,60
 192 433 192 433 193 461 c 128,-1,61
 194 489 194 489 194.5 507.5 c 128,-1,62
 195 526 195 526 197 529 c 2,63,-1
 196 529 l 1,64,65
 202 542 202 542 220 546 c 128,-1,66
 238 550 238 550 261.5 548 c 128,-1,67
 285 546 285 546 311 539.5 c 128,-1,68
 337 533 337 533 358 525 c 0,69,70
 385 515 385 515 404 498.5 c 128,-1,71
 423 482 423 482 421 451 c 0,72,73
 419 433 419 433 408.5 416.5 c 128,-1,74
 398 400 398 400 380 389 c 0,75,76
 368 383 368 383 356 378.5 c 128,-1,77
 344 374 344 374 321 369 c 1,78,-1
 366 285 l 2,79,80
 385 254 385 254 391 245.5 c 128,-1,81
 397 237 397 237 399 233 c 0,82,83
 406 217 406 217 395.5 208.5 c 128,-1,84
 385 200 385 200 369 205 c 1,85,-1
 258 349 l 1,86,-1
 254 352 l 1,50,51
246 502 m 1,87,88
 250 478 250 478 250.5 453.5 c 128,-1,89
 251 429 251 429 253 403 c 1,90,91
 272 406 272 406 290 408 c 128,-1,92
 308 410 308 410 322 415 c 128,-1,93
 336 420 336 420 344 430 c 128,-1,94
 352 440 352 440 351 459 c 0,95,96
 351 474 351 474 337 483 c 128,-1,97
 323 492 323 492 305.5 496.5 c 128,-1,98
 288 501 288 501 270.5 501.5 c 128,-1,99
 253 502 253 502 246 502 c 1,87,88
EndSplineSet
EndChar

StartChar: degree
Encoding: 176 176 111
Width: 381
GlyphClass: 2
Flags: W
LayerCount: 2
Back
Fore
SplineSet
49 518 m 0,0,1
 48 545 48 545 58 571 c 128,-1,2
 68 597 68 597 85.5 617.5 c 128,-1,3
 103 638 103 638 125.5 652 c 128,-1,4
 148 666 148 666 173 669.5 c 128,-1,5
 198 673 198 673 222.5 664.5 c 128,-1,6
 247 656 247 656 268 632 c 0,7,8
 290 608 290 608 305 570 c 128,-1,9
 320 532 320 532 320.5 494 c 128,-1,10
 321 456 321 456 303.5 425.5 c 128,-1,11
 286 395 286 395 244 385 c 0,12,13
 188 373 188 373 151.5 376 c 128,-1,14
 115 379 115 379 93 396.5 c 128,-1,15
 71 414 71 414 61 444.5 c 128,-1,16
 51 475 51 475 49 518 c 0,0,1
106 458 m 0,17,18
 110 435 110 435 125 426 c 128,-1,19
 140 417 140 417 160 419.5 c 128,-1,20
 180 422 180 422 201.5 433 c 128,-1,21
 223 444 223 444 241 461 c 128,-1,22
 259 478 259 478 269.5 498 c 128,-1,23
 280 518 280 518 277 537.5 c 128,-1,24
 274 557 274 557 255.5 575 c 128,-1,25
 237 593 237 593 196 605 c 1,26,27
 155 609 155 609 135 591.5 c 128,-1,28
 115 574 115 574 107.5 549 c 128,-1,29
 100 524 100 524 101.5 497.5 c 128,-1,30
 103 471 103 471 106 458 c 0,17,18
EndSplineSet
EndChar

StartChar: mu
Encoding: 181 181 116
Width: 833
GlyphClass: 2
Flags: W
LayerCount: 2
Back
Fore
SplineSet
234 -12 m 0,0,1
 210 -110 210 -110 188.5 -160.5 c 128,-1,2
 167 -211 167 -211 150 -230 c 128,-1,3
 133 -249 133 -249 122 -242 c 128,-1,4
 111 -235 111 -235 109 -217 c 0,5,6
 116 -149 116 -149 124.5 -106.5 c 128,-1,7
 133 -64 133 -64 141.5 -34 c 128,-1,8
 150 -4 150 -4 156.5 22 c 128,-1,9
 163 48 163 48 165.5 85 c 128,-1,10
 168 122 168 122 166 176.5 c 128,-1,11
 164 231 164 231 154 318 c 0,12,13
 152 338 152 338 151 367 c 128,-1,14
 150 396 150 396 152 424.5 c 128,-1,15
 154 453 154 453 160.5 478 c 128,-1,16
 167 503 167 503 180.5 516 c 128,-1,17
 194 529 194 529 215.5 526.5 c 128,-1,18
 237 524 237 524 269 498 c 1,19,-1
 244 122 l 2,20,21
 244 92 244 92 256 77.5 c 128,-1,22
 268 63 268 63 286 59.5 c 128,-1,23
 304 56 304 56 326 61.5 c 128,-1,24
 348 67 348 67 368.5 77 c 128,-1,25
 389 87 389 87 404.5 100 c 128,-1,26
 420 113 420 113 426 125 c 0,27,28
 447 168 447 168 456 219.5 c 128,-1,29
 465 271 465 271 466 324 c 128,-1,30
 467 377 467 377 461.5 429 c 128,-1,31
 456 481 456 481 447 525 c 1,32,33
 449 538 449 538 457 545 c 128,-1,34
 465 552 465 552 474.5 552.5 c 128,-1,35
 484 553 484 553 493 547 c 128,-1,36
 502 541 502 541 506 529 c 1,37,-1
 507 529 l 1,38,-1
 507 528 l 1,39,40
 513 496 513 496 521 459.5 c 128,-1,41
 529 423 529 423 533.5 384.5 c 128,-1,42
 538 346 538 346 537 305.5 c 128,-1,43
 536 265 536 265 523 226 c 1,44,-1
 551 -19 l 2,45,46
 551 -37 551 -37 542.5 -46.5 c 128,-1,47
 534 -56 534 -56 522.5 -57 c 128,-1,48
 511 -58 511 -58 498.5 -49.5 c 128,-1,49
 486 -41 486 -41 478 -21 c 1,50,51
 474 3 474 3 467 27 c 128,-1,52
 460 51 460 51 455 77 c 1,53,54
 438 60 438 60 413 43.5 c 128,-1,55
 388 27 388 27 360.5 14.5 c 128,-1,56
 333 2 333 2 307.5 -4.5 c 128,-1,57
 282 -11 282 -11 264 -8 c 0,58,59
 250 -5 250 -5 235 3 c 1,60,61
 235 0 235 0 235 -4 c 128,-1,62
 235 -8 235 -8 234 -12 c 0,0,1
EndSplineSet
EndChar

StartChar: paragraph
Encoding: 182 182 117
Width: 833
GlyphClass: 2
Flags: W
LayerCount: 2
Back
Fore
SplineSet
253 654 m 1,0,1
 275 650 275 650 294 645.5 c 128,-1,2
 313 641 313 641 334 637 c 128,-1,3
 355 633 355 633 379.5 630.5 c 128,-1,4
 404 628 404 628 437.5 627.5 c 128,-1,5
 471 627 471 627 515.5 629 c 128,-1,6
 560 631 560 631 621 637 c 1,7,8
 639 632 639 632 647 620.5 c 128,-1,9
 655 609 655 609 654.5 596 c 128,-1,10
 654 583 654 583 644.5 572 c 128,-1,11
 635 561 635 561 617 558 c 1,12,13
 594 561 594 561 566.5 563.5 c 128,-1,14
 539 566 539 566 510 568 c 1,15,-1
 510 567 l 1,16,-1
 506 179 l 1,17,18
 514 98 514 98 515 16.5 c 128,-1,19
 516 -65 516 -65 521 -147 c 0,20,21
 520 -168 520 -168 508.5 -179 c 128,-1,22
 497 -190 497 -190 483 -190.5 c 128,-1,23
 469 -191 469 -191 456.5 -181.5 c 128,-1,24
 444 -172 444 -172 442 -151 c 1,25,26
 466 -58 466 -58 464.5 32 c 128,-1,27
 463 122 463 122 453.5 211.5 c 128,-1,28
 444 301 444 301 434 390.5 c 128,-1,29
 424 480 424 480 431 572 c 1,30,31
 412 573 412 573 394.5 573.5 c 128,-1,32
 377 574 377 574 360 574 c 1,33,34
 365 548 365 548 361.5 519 c 128,-1,35
 358 490 358 490 355 470 c 0,36,37
 344 402 344 402 337.5 340 c 128,-1,38
 331 278 331 278 329 217.5 c 128,-1,39
 327 157 327 157 330.5 94.5 c 128,-1,40
 334 32 334 32 343 -37 c 0,41,42
 346 -55 346 -55 349 -73 c 128,-1,43
 352 -91 352 -91 352.5 -109 c 128,-1,44
 353 -127 353 -127 349.5 -144 c 128,-1,45
 346 -161 346 -161 334 -176 c 1,46,47
 329 -173 329 -173 320 -175.5 c 128,-1,48
 311 -178 311 -178 302 -181 c 128,-1,49
 293 -184 293 -184 285 -184 c 128,-1,50
 277 -184 277 -184 274 -176 c 0,51,52
 260 -143 260 -143 256.5 -89 c 128,-1,53
 253 -35 253 -35 254.5 25.5 c 128,-1,54
 256 86 256 86 260 145 c 128,-1,55
 264 204 264 204 265 246 c 1,56,57
 247 252 247 252 220 261.5 c 128,-1,58
 193 271 193 271 166 285.5 c 128,-1,59
 139 300 139 300 116.5 318 c 128,-1,60
 94 336 94 336 85 358 c 0,61,62
 64 411 64 411 67.5 460 c 128,-1,63
 71 509 71 509 94 548.5 c 128,-1,64
 117 588 117 588 157.5 615.5 c 128,-1,65
 198 643 198 643 253 654 c 1,0,1
EndSplineSet
EndChar

StartChar: cedilla
Encoding: 184 184 119
Width: 833
GlyphClass: 2
Flags: W
LayerCount: 2
Back
Fore
SplineSet
269 -2 m 1,0,1
 267 16 267 16 274.5 28.5 c 128,-1,2
 282 41 282 41 294 46 c 128,-1,3
 306 51 306 51 319.5 46.5 c 128,-1,4
 333 42 333 42 344 27 c 0,5,6
 345 22 345 22 345 16.5 c 128,-1,7
 345 11 345 11 347 6 c 0,8,9
 351 -5 351 -5 362 -13 c 128,-1,10
 373 -21 373 -21 385.5 -29.5 c 128,-1,11
 398 -38 398 -38 409.5 -47.5 c 128,-1,12
 421 -57 421 -57 428 -71 c 0,13,14
 432 -79 432 -79 432.5 -89 c 128,-1,15
 433 -99 433 -99 429 -107 c 0,16,17
 418 -130 418 -130 403 -143 c 128,-1,18
 388 -156 388 -156 369 -163.5 c 128,-1,19
 350 -171 350 -171 328.5 -174 c 128,-1,20
 307 -177 307 -177 284 -181 c 1,21,22
 263 -179 263 -179 253.5 -166.5 c 128,-1,23
 244 -154 244 -154 244.5 -140 c 128,-1,24
 245 -126 245 -126 256 -114.5 c 128,-1,25
 267 -103 267 -103 288 -102 c 0,26,27
 334 -105 334 -105 355 -105 c 128,-1,28
 376 -105 376 -105 377 -100 c 128,-1,29
 378 -95 378 -95 360.5 -84 c 128,-1,30
 343 -73 343 -73 311 -54 c 0,31,32
 295 -44 295 -44 286 -31 c 128,-1,33
 277 -18 277 -18 269 -2 c 1,0,1
EndSplineSet
EndChar

StartChar: AE
Encoding: 198 198 133
Width: 1213
GlyphClass: 2
Flags: W
LayerCount: 2
Back
Fore
SplineSet
387 186 m 1,0,1
 375 206 375 206 363 213 c 128,-1,2
 351 220 351 220 335.5 219.5 c 128,-1,3
 320 219 320 219 298 213 c 128,-1,4
 276 207 276 207 243 200 c 1,5,6
 214 158 214 158 189 112.5 c 128,-1,7
 164 67 164 67 147 20 c 0,8,9
 140 3 140 3 128 -4.5 c 128,-1,10
 116 -12 116 -12 103 -10 c 1,11,12
 87 -30 87 -30 64.5 -25.5 c 128,-1,13
 42 -21 42 -21 35 2 c 1,14,15
 22 7 22 7 15 20 c 128,-1,16
 8 33 8 33 12 52 c 1,17,18
 67 133 67 133 106.5 209.5 c 128,-1,19
 146 286 146 286 182 359.5 c 128,-1,20
 218 433 218 433 256.5 505 c 128,-1,21
 295 577 295 577 348 650 c 1,22,23
 350 665 350 665 371 676.5 c 128,-1,24
 392 688 392 688 415.5 695.5 c 128,-1,25
 439 703 439 703 457.5 705.5 c 128,-1,26
 476 708 476 708 473 703 c 1,27,-1
 463 721 l 1,28,29
 465 683 465 683 465 624.5 c 128,-1,30
 465 566 465 566 462.5 501.5 c 128,-1,31
 460 437 460 437 454 373.5 c 128,-1,32
 448 310 448 310 438.5 263.5 c 128,-1,33
 429 217 429 217 416.5 193.5 c 128,-1,34
 404 170 404 170 387 186 c 1,0,1
368 504 m 1,35,36
 356 480 356 480 341.5 449.5 c 128,-1,37
 327 419 327 419 311.5 387 c 128,-1,38
 296 355 296 355 280.5 324 c 128,-1,39
 265 293 265 293 251 269 c 1,40,41
 274 271 274 271 302 270.5 c 128,-1,42
 330 270 330 270 358 281 c 1,43,44
 357 310 357 310 360 338.5 c 128,-1,45
 363 367 363 367 366 395.5 c 128,-1,46
 369 424 369 424 370.5 451 c 128,-1,47
 372 478 372 478 368 504 c 1,35,36
374 3 m 1,48,49
 360 241 360 241 368.5 418.5 c 128,-1,50
 377 596 377 596 400 696 c 1,51,-1
 797 707 l 2,52,53
 820 705 820 705 833 687 c 128,-1,54
 846 669 846 669 848.5 648.5 c 128,-1,55
 851 628 851 628 843 611.5 c 128,-1,56
 835 595 835 595 817 595 c 0,57,58
 777 590 777 590 739.5 589.5 c 128,-1,59
 702 589 702 589 663 590.5 c 128,-1,60
 624 592 624 592 582.5 594 c 128,-1,61
 541 596 541 596 493 598 c 1,62,63
 497 590 497 590 496 567.5 c 128,-1,64
 495 545 495 545 493 516.5 c 128,-1,65
 491 488 491 488 489 457.5 c 128,-1,66
 487 427 487 427 489 402 c 1,67,68
 522 400 522 400 550 400 c 128,-1,69
 578 400 578 400 603.5 400.5 c 128,-1,70
 629 401 629 401 654.5 400.5 c 128,-1,71
 680 400 680 400 710 397 c 0,72,73
 732 393 732 393 740 376.5 c 128,-1,74
 748 360 748 360 745.5 342 c 128,-1,75
 743 324 743 324 732 310.5 c 128,-1,76
 721 297 721 297 705 300 c 1,77,78
 679 296 679 296 646.5 296.5 c 128,-1,79
 614 297 614 297 582 298 c 128,-1,80
 550 299 550 299 523 298.5 c 128,-1,81
 496 298 496 298 482 293 c 1,82,83
 478 255 478 255 477 212.5 c 128,-1,84
 476 170 476 170 471 122 c 0,85,86
 471 119 471 119 469 113 c 1,87,88
 471 113 471 113 472 112 c 0,89,90
 514 108 514 108 547.5 106.5 c 128,-1,91
 581 105 581 105 612.5 105 c 128,-1,92
 644 105 644 105 675 106.5 c 128,-1,93
 706 108 706 108 743 111 c 0,94,95
 787 115 787 115 805 111.5 c 128,-1,96
 823 108 823 108 828.5 98 c 128,-1,97
 834 88 834 88 834.5 71 c 128,-1,98
 835 54 835 54 844 31 c 1,99,100
 844 10 844 10 824 6 c 0,101,102
 793 0 793 0 757.5 -0.5 c 128,-1,103
 722 -1 722 -1 691 -2 c 0,104,105
 657 -2 657 -2 616 -1 c 128,-1,106
 575 0 575 0 532.5 1 c 128,-1,107
 490 2 490 2 449 3 c 128,-1,108
 408 4 408 4 374 3 c 1,48,49
EndSplineSet
EndChar

